<svg width="996" height="719" viewBox="0 0 996 719" fill="none" xmlns="http://www.w3.org/2000/svg">
<path d="M0 8.0188C0 8.0188 164.727 -36.3915 290.761 83.8143C465.075 250.024 349.364 493.577 551.269 473.762C764.808 452.815 806 719 806 719H0V8.0188Z" fill="url(#paint0_linear_0_1)"/>
<path style="mix-blend-mode:multiply" d="M146.834 708.442C146.834 708.442 104.959 370.739 171.884 351.039C243.567 329.934 184.999 708.442 184.999 708.442H146.834Z" fill="url(#paint1_linear_0_1)"/>
<path d="M173.532 393.868C173.532 393.868 164.914 501.213 177.392 621.434" stroke="white" stroke-miterlimit="10" stroke-linecap="round"/>
<path style="mix-blend-mode:multiply" d="M92.7055 706.998C92.4994 706.998 82.7005 501.419 0 446.8V706.998H92.7055Z" fill="url(#paint2_linear_0_1)"/>
<path d="M12.3469 542.317C12.3469 542.317 39.2143 604.302 49.6877 706.998" stroke="white" stroke-miterlimit="10" stroke-linecap="round"/>
<path style="mix-blend-mode:multiply" d="M372.508 706.998C372.508 706.998 391.6 598.342 426.674 606.982C466.525 616.804 395.741 706.998 395.741 706.998H372.508Z" fill="url(#paint3_linear_0_1)"/>
<path style="mix-blend-mode:multiply" d="M156.558 706.998C156.558 706.998 146.609 553.207 103.291 492.365C103.291 492.365 59.0557 577.817 114.983 706.136L156.558 706.998Z" fill="url(#paint4_linear_0_1)"/>
<path d="M427.63 408.882C425.081 406.876 424.651 403.184 426.674 400.635L431.677 394.299C433.681 391.75 436.323 390.288 438.871 392.294C438.871 392.294 443.593 396.961 446.722 395.518C450.281 393.887 457.176 386.239 460.586 380.71C462.984 376.83 455.321 370.907 455.321 370.907C452.773 368.902 453.635 366.502 455.64 363.953L460.642 357.618C462.647 355.069 466.338 354.638 468.886 356.662C488.728 372.407 454.085 422.789 427.63 408.863V408.882Z" fill="#CFDBFF"/>
<path d="M721.859 630.843H488.634C485.486 630.843 483.182 627.844 484.025 624.808L530.977 451.992C532.757 445.469 538.659 440.952 545.423 440.952H778.648C781.796 440.952 784.1 443.951 783.257 446.988L736.305 619.803C734.525 626.326 728.623 630.843 721.859 630.843Z" fill="#8385FC"/>
<path d="M729.372 630.843H496.147C493 630.843 490.695 627.844 491.538 624.808L538.49 451.992C540.27 445.469 546.172 440.952 552.936 440.952H786.161C789.309 440.952 791.613 443.951 790.77 446.988L743.818 619.803C742.038 626.326 736.136 630.843 729.372 630.843Z" fill="url(#paint5_linear_0_1)"/>
<path d="M619.392 539.787L584.749 679.951C582.276 689.923 573.339 696.933 563.053 696.933H534.574C531.802 696.933 529.553 699.182 529.553 701.956C529.553 704.73 531.802 706.979 534.574 706.979H609.5C618.586 706.979 626.474 700.757 628.61 691.91L664.508 542.205C665.277 538.962 662.841 535.851 659.506 535.851H624.376C622.015 535.851 619.954 537.463 619.392 539.768V539.787Z" fill="url(#paint6_linear_0_1)"/>
<path d="M989.199 719H0V707H989.199C992.95 707 996 709.691 996 713C996 716.309 992.95 719 989.199 719Z" fill="#0E225C"/>
<path d="M62.0722 378.049C45.4347 382.566 35.617 399.716 40.1324 416.361C42.1933 423.952 46.8773 430.081 52.9103 434.111L52.8354 448.169L62.653 438.459C67.693 439.715 73.0702 439.771 78.4287 438.309C95.0662 433.792 104.884 416.642 100.369 399.998C95.8531 383.353 78.7097 373.532 62.0722 378.049V378.049ZM60.3672 413.718C58.8871 414.112 57.3507 413.231 56.9573 411.769C56.5451 410.269 57.4257 408.732 58.9058 408.338C60.4047 407.926 61.9223 408.826 62.3158 410.307C62.7092 411.787 61.8474 413.306 60.3672 413.718ZM70.9718 410.831C69.4729 411.244 67.9553 410.344 67.5618 408.882C67.1497 407.383 68.0115 405.864 69.5104 405.452C71.0093 405.04 72.5269 405.939 72.9203 407.42C73.3138 408.901 72.4519 410.419 70.9718 410.831ZM81.5763 407.945C80.0775 408.357 78.5599 407.458 78.1664 405.996C77.7542 404.496 78.6161 402.978 80.1149 402.565C81.5951 402.172 83.1314 403.053 83.5249 404.534C83.9183 406.014 83.0378 407.551 81.5763 407.945Z" fill="white"/>
<path d="M409.437 226.132L410.355 222.177C412.585 212.506 422.215 206.489 431.883 208.719C441.55 210.95 447.565 220.584 445.335 230.256L445.373 230.106C443.368 239.271 438.927 244.276 432.332 248.4L428.904 250.555C424.613 253.235 421.559 257.528 420.416 262.457L418.786 269.561" fill="white"/>
<path d="M417.831 273.609C415.582 273.084 414.177 270.854 414.702 268.605L416.332 261.501C417.737 255.447 421.409 250.292 426.674 246.993L430.103 244.838C435.48 241.483 439.433 237.547 441.251 229.299C442.956 221.896 438.328 214.492 430.927 212.786C423.526 211.081 416.126 215.71 414.421 223.114L413.503 227.069C412.978 229.318 410.749 230.724 408.5 230.199C406.252 229.674 404.847 227.444 405.371 225.195L406.289 221.24C409.025 209.337 420.941 201.896 432.82 204.652C444.642 207.388 452.061 219.178 449.457 230.986C447.396 240.414 442.937 246.693 434.543 251.942L431.115 254.097C427.742 256.215 425.381 259.514 424.482 263.394L422.852 270.498C422.327 272.747 420.098 274.153 417.849 273.628L417.831 273.609Z" fill="#CFDBFF"/>
<path d="M420.304 284.312C419.742 286.786 417.269 288.323 414.814 287.742C412.341 287.18 410.805 284.706 411.386 282.25C411.948 279.776 414.421 278.239 416.875 278.82C419.348 279.382 420.885 281.857 420.304 284.312Z" fill="#CFDBFF"/>
<path d="M203.66 239.515L203.697 239.627C205.496 245.587 204.54 249.917 202.067 254.472L200.774 256.852C199.163 259.814 198.788 263.319 199.744 266.562L201.13 271.247L196.821 266.393C195.978 262.7 196.503 258.877 198.339 255.522L199.632 253.141C201.655 249.411 202.667 245.812 201.018 240.414C200.306 237.978 198.657 236.047 196.596 234.922C194.517 233.798 192.025 233.46 189.589 234.173C184.718 235.616 181.907 240.733 183.35 245.606L184.118 248.212C184.437 249.299 184.081 250.405 183.294 251.098L181.439 248.999L180.671 246.393C178.797 240.021 182.432 233.348 188.802 231.474C191.969 230.536 195.229 230.968 197.927 232.448C200.606 233.91 202.723 236.347 203.679 239.496L203.66 239.515Z" fill="white"/>
<path d="M206.339 238.709L206.433 239.027C208.213 245.063 207.632 250.086 204.54 255.803L203.248 258.183C201.974 260.526 201.693 263.225 202.442 265.774L203.829 270.46C204.259 271.941 203.416 273.497 201.936 273.928C200.456 274.359 198.901 273.534 198.47 272.035L197.084 267.349C196.99 267.03 196.915 266.693 196.821 266.374C195.978 262.682 196.503 258.858 198.339 255.503L199.632 253.123C201.655 249.393 202.667 245.794 201.018 240.396C200.306 237.959 198.657 236.028 196.596 234.904C194.517 233.779 192.025 233.442 189.589 234.154C184.718 235.597 181.907 240.714 183.35 245.588L184.118 248.193C184.437 249.28 184.081 250.386 183.294 251.079C183.013 251.342 182.638 251.548 182.226 251.679C180.746 252.11 179.191 251.286 178.76 249.786L177.992 247.181C175.687 239.346 180.165 231.118 188.015 228.793C195.791 226.507 203.997 230.911 206.339 238.671V238.709Z" fill="white"/>
<path d="M206.864 279.345C207.351 280.976 206.414 282.682 204.784 283.15C203.154 283.638 201.449 282.7 200.981 281.07C200.494 279.439 201.43 277.733 203.06 277.265C204.69 276.777 206.395 277.715 206.864 279.345Z" fill="white"/>
<path d="M108.256 309.504L70.4097 299.232L77.1546 274.435L92.7055 291.979L114.983 284.725L108.256 309.504Z" fill="white"/>
<path d="M98.6635 270.048L84.5741 266.225L81.9885 275.746L93.5674 288.829L110.149 283.394L112.734 273.872L98.6635 270.048Z" fill="white"/>
<path d="M108.178 276.964L86.7703 271.146L86.559 271.923L107.966 277.742L108.178 276.964Z" fill="#A6ABFD"/>
<path d="M107.122 280.932L85.7148 275.113L85.5036 275.891L106.911 281.71L107.122 280.932Z" fill="#A6ABFD"/>
<path d="M70.2598 203.302C70.2598 206.038 68.0489 208.25 65.3135 208.25C62.578 208.25 60.3672 206.038 60.3672 203.302C60.3672 200.565 62.578 198.354 65.3135 198.354C68.0489 198.354 70.2598 200.565 70.2598 203.302Z" stroke="white" stroke-miterlimit="10" stroke-linecap="round"/>
<path d="M277.405 274.453C277.405 277.19 275.194 279.401 272.459 279.401C269.723 279.401 267.512 277.19 267.512 274.453C267.512 271.717 269.723 269.505 272.459 269.505C275.194 269.505 277.405 271.717 277.405 274.453Z" stroke="white" stroke-miterlimit="10" stroke-linecap="round"/>
<path d="M405.259 338.743C405.259 341.48 403.048 343.692 400.313 343.692C397.577 343.692 395.366 341.48 395.366 338.743C395.366 336.007 397.577 333.795 400.313 333.795C403.048 333.795 405.259 336.007 405.259 338.743Z" stroke="#B0B1FB" stroke-miterlimit="10" stroke-linecap="round"/>
<path style="mix-blend-mode:multiply" d="M312.928 706.999C312.928 706.999 309.649 538.813 377.136 474.466C377.136 474.466 408.556 553.77 361.005 706.999H312.947H312.928Z" fill="url(#paint7_linear_0_1)"/>
<path d="M361.492 525.261C361.492 525.261 366.419 592.644 342.493 693.053" stroke="white" stroke-miterlimit="10" stroke-linecap="round"/>
<path d="M273.751 433.529L272.459 450.436L272.009 455.984L270.66 473.809L233.319 474.465L237.572 437.54L239.764 418.516L240.832 409.312L273.751 433.529Z" fill="#FA8FA4"/>
<path d="M272.459 450.436L272.028 455.965C250.069 455.965 240.008 425.77 239.221 423.333L239.783 418.497C251.118 442.283 272.477 450.436 272.477 450.436H272.459Z" fill="#FA8098"/>
<path d="M476.437 502.918C476.437 502.918 493.861 483.537 507.857 482.075C513.01 481.532 504.26 492.459 504.26 492.459H563.11C563.11 492.459 560.917 499.694 556.552 502.918C552.187 506.142 504.279 520.312 504.279 520.312L476.456 502.918H476.437Z" fill="#FA8FA4"/>
<path d="M298.108 366.896C303.185 370.776 311.635 375.18 312.853 381.441C313.94 387.045 302.623 405.676 307.982 412.874C317.931 426.238 297.452 445.094 290.201 450.099C272.739 462.132 227.942 426.688 243.099 380.729C254.622 345.809 283.4 355.668 298.127 366.896H298.108Z" fill="#FA8FA4"/>
<path d="M245.31 360.785C245.31 360.785 292.319 393.343 315.514 379.491C338.709 365.64 316.694 338.293 316.694 338.293C316.694 338.293 311.542 347.871 294.661 342.323C277.761 336.756 246.547 333.27 245.329 360.785H245.31Z" fill="#0A0A0F"/>
<path d="M265.526 357.355C265.526 357.355 254.434 341.405 239.558 350.758C228.241 357.88 230.696 397.392 240.907 412.443C240.907 412.443 241.169 365.996 265.526 357.355V357.355Z" fill="#0A0A0F"/>
<path d="M273.264 367.346C273.264 367.346 263.971 389.763 253.348 395.368C253.348 395.368 254.303 407.513 243.361 407.551C243.361 407.551 246.678 403.727 243.137 395.236C242.387 393.437 241.769 391.506 241.394 389.463C239.258 377.842 249.376 356.343 260.73 357.58C272.065 358.818 273.264 367.346 273.264 367.346V367.346Z" fill="#0A0A0F"/>
<path d="M243.455 413.474C243.455 413.474 235.436 414.373 232.195 407.794C226.387 396.061 239.127 388.995 243.118 395.236L243.455 413.474Z" fill="#FA8FA4"/>
<path d="M274.238 419.621C274.238 419.621 278.379 439.302 289.171 435.291C296.403 432.592 300.937 421.833 300.937 421.833L274.238 419.621V419.621Z" fill="white"/>
<path d="M279.11 399.173C278.96 401.197 278.173 402.809 277.349 402.734C276.524 402.678 276 400.972 276.15 398.948C276.299 396.923 277.086 395.311 277.911 395.386C278.735 395.443 279.26 397.148 279.11 399.173Z" fill="#2E112E"/>
<path d="M303.354 401.328C303.204 403.352 302.417 404.964 301.593 404.889C300.787 404.833 300.244 403.127 300.394 401.103C300.544 399.079 301.331 397.467 302.155 397.542C302.979 397.598 303.504 399.303 303.354 401.328Z" fill="#2E112E"/>
<path d="M156.558 706.998C156.558 706.998 104.191 539.767 158.263 502.618C212.335 465.449 248.046 458.401 303.373 480.706C358.7 503.011 329.809 706.998 329.809 706.998H156.558Z" fill="#3629B7"/>
<path d="M286.154 555.981L372.415 634.292C395.647 655.397 432.482 649.324 447.752 621.903L504.26 520.331L476.437 502.937C476.437 502.937 420.791 568.165 411.236 562.954C401.68 557.743 360.705 467.812 253.535 468.055C202.161 468.168 286.154 556 286.154 556V555.981Z" fill="#3629B7"/>
<path d="M158.263 502.618C158.263 502.618 104.022 544.848 71.1031 627.319C55.8708 665.481 83.8435 706.998 124.913 706.998H245.741L243.455 669.492L159.106 626.438C159.106 626.438 247.334 549.59 158.263 502.6V502.618Z" fill="#3629B7"/>
<path d="M250.912 392.986C250.912 392.986 255.933 348.658 284.637 340.073C284.637 340.073 276.468 333.101 266.613 338.724C266.613 338.724 243.924 350.945 240.008 393.867L250.912 392.986V392.986Z" fill="#6970FB"/>
<path d="M277.33 444.157C273.995 442.957 265.264 439.002 257.32 431.243C247.071 421.252 246.809 407.663 246.79 407.063L250.968 406.876C250.968 407.007 251.662 419.884 260.692 428.675C269.967 437.728 279.878 440.577 279.972 440.614L278.848 444.644C278.848 444.644 278.229 444.457 277.349 444.157H277.33Z" fill="#0A0A0F"/>
<path d="M275.793 439.152C275.063 441.214 276.562 443.913 278.623 444.644C280.684 445.375 282.932 444.307 283.663 442.264C284.393 440.202 283.325 437.953 281.283 437.222C279.222 436.491 276.543 437.109 275.793 439.171V439.152Z" fill="#0A0A0F"/>
<path d="M240.982 421.889C251.205 421.889 259.493 412.633 259.493 401.215C259.493 389.797 251.205 380.541 240.982 380.541C230.759 380.541 222.471 389.797 222.471 401.215C222.471 412.633 230.759 421.889 240.982 421.889Z" fill="#3629B7"/>
<path d="M235.005 419.621C244.111 419.621 251.493 411.38 251.493 401.215C251.493 391.049 244.111 382.809 235.005 382.809C225.899 382.809 218.518 391.049 218.518 401.215C218.518 411.38 225.899 419.621 235.005 419.621Z" fill="#8885F7"/>
<path d="M222.452 470.922L235.98 451.298L259.475 468.036L271.99 455.984L283.869 470.529L270.829 485.711L259.456 472.947L249.207 487.81C249.207 487.81 232.495 482.393 222.415 470.922H222.452Z" fill="white"/>
<path d="M188.222 582.072L159.593 627.263C155.434 633.823 158.413 642.52 165.701 645.182L249.245 675.584" fill="#3629B7"/>
<path d="M188.222 582.072L159.593 627.263C155.434 633.823 158.413 642.52 165.701 645.182L249.245 675.584" stroke="#0A0A0F" stroke-miterlimit="10"/>
<path d="M245.76 706.998L249.245 681.788C249.245 681.788 292.262 694.215 295.017 696.521C297.771 698.826 305.602 707.017 305.602 707.017H245.741L245.76 706.998Z" fill="#FA8FA4"/>
<path d="M158.769 305.342L156.595 319.568" stroke="white" stroke-miterlimit="10" stroke-linecap="round"/>
<path d="M164.839 313.608L150.637 311.321" stroke="white" stroke-miterlimit="10" stroke-linecap="round"/>
<path d="M518.874 381.591L516.682 395.817" stroke="#B0B1FB" stroke-miterlimit="10" stroke-linecap="round"/>
<path d="M524.926 389.838L510.724 387.552" stroke="#B0B1FB" stroke-miterlimit="10" stroke-linecap="round"/>
<path d="M41.6501 331.715H30.2024V343.167H41.6501V331.715Z" stroke="white" stroke-miterlimit="10" stroke-linecap="round"/>
<path d="M343.008 203.481L334.344 195.996L326.862 204.664L335.527 212.149L343.008 203.481Z" stroke="#9DA5FE" stroke-miterlimit="10" stroke-linecap="round"/>
<path d="M468.437 633.955H417.812C414.683 633.955 412.154 636.485 412.154 639.616V672.736C412.154 680.177 414.402 687.43 418.618 693.56L424.801 702.575C426.693 705.349 429.841 706.999 433.194 706.999H452.979C456.371 706.999 459.518 705.312 461.411 702.519L468.68 691.742C472.184 686.531 474.076 680.402 474.076 674.123V639.616C474.076 636.485 471.547 633.955 468.418 633.955H468.437Z" fill="white"/>
<path d="M436.679 682.013H408.482C398.945 682.013 391.188 674.253 391.188 664.712C391.188 655.172 398.945 647.412 408.482 647.412H436.679V681.994V682.013ZM408.482 655.059C403.161 655.059 398.814 659.389 398.814 664.731C398.814 670.073 403.142 674.403 408.482 674.403H429.054V655.078H408.482V655.059Z" fill="white"/>
<path d="M444.96 612.531C444.96 612.531 434.543 604.227 438.497 591.238C442.45 578.23 450.937 569.664 444.96 560.461C444.96 560.461 460.005 562.691 454.572 577.93C449.139 593.168 440.351 602.69 444.96 612.549V612.531Z" fill="url(#paint8_linear_0_1)"/>
<path d="M434.581 586.477C434.581 586.477 424.388 601.34 434.581 612.512C446.665 625.763 441.326 631.836 441.326 631.836C441.326 631.836 437.597 625.951 427.63 619.428C418.917 613.73 412.379 595.061 434.581 586.458V586.477Z" fill="url(#paint9_linear_0_1)"/>
<defs>
<linearGradient id="paint0_linear_0_1" x1="0" y1="359.514" x2="806" y2="359.514" gradientUnits="userSpaceOnUse">
<stop stop-color="#919DFF"/>
<stop offset="1" stop-color="#FFE5F5"/>
</linearGradient>
<linearGradient id="paint1_linear_0_1" x1="147.077" y1="323.018" x2="186.923" y2="645.31" gradientUnits="userSpaceOnUse">
<stop stop-color="#919DFF"/>
<stop offset="1" stop-color="#FFE5F5"/>
</linearGradient>
<linearGradient id="paint2_linear_0_1" x1="-85.3798" y1="414.486" x2="58.6195" y2="667.361" gradientUnits="userSpaceOnUse">
<stop stop-color="#919DFF"/>
<stop offset="1" stop-color="#FFE5F5"/>
</linearGradient>
<linearGradient id="paint3_linear_0_1" x1="372.508" y1="656.747" x2="438.852" y2="656.747" gradientUnits="userSpaceOnUse">
<stop stop-color="#919DFF"/>
<stop offset="1" stop-color="#FFE5F5"/>
</linearGradient>
<linearGradient id="paint4_linear_0_1" x1="100.2" y1="473.79" x2="124.726" y2="672.207" gradientUnits="userSpaceOnUse">
<stop stop-color="#919DFF"/>
<stop offset="1" stop-color="#FFE5F5"/>
</linearGradient>
<linearGradient id="paint5_linear_0_1" x1="491.351" y1="535.888" x2="790.939" y2="535.888" gradientUnits="userSpaceOnUse">
<stop stop-color="#919DFF"/>
<stop offset="1" stop-color="#FFE5F5"/>
</linearGradient>
<linearGradient id="paint6_linear_0_1" x1="519.08" y1="707.261" x2="893.702" y2="387.739" gradientUnits="userSpaceOnUse">
<stop stop-color="#919DFF"/>
<stop offset="1" stop-color="#FFE5F5"/>
</linearGradient>
<linearGradient id="paint7_linear_0_1" x1="377.043" y1="425.095" x2="338.791" y2="703.827" gradientUnits="userSpaceOnUse">
<stop stop-color="#919DFF"/>
<stop offset="1" stop-color="#FFE5F5"/>
</linearGradient>
<linearGradient id="paint8_linear_0_1" x1="437.597" y1="586.477" x2="455.752" y2="586.477" gradientUnits="userSpaceOnUse">
<stop stop-color="#919DFF"/>
<stop offset="1" stop-color="#FFE5F5"/>
</linearGradient>
<linearGradient id="paint9_linear_0_1" x1="419.517" y1="609.156" x2="442.506" y2="609.156" gradientUnits="userSpaceOnUse">
<stop stop-color="#919DFF"/>
<stop offset="1" stop-color="#FFE5F5"/>
</linearGradient>
</defs>
</svg>
