<svg width="30" height="30" viewBox="0 0 30 30" fill="none" xmlns="http://www.w3.org/2000/svg">
<path d="M15 0C6.705 0 0 6.705 0 15C0 23.295 6.705 30 15 30C23.295 30 30 23.295 30 15C30 6.705 23.295 0 15 0ZM21.45 21.45C21.3112 21.5891 21.1464 21.6994 20.9649 21.7746C20.7835 21.8499 20.589 21.8887 20.3925 21.8887C20.196 21.8887 20.0015 21.8499 19.8201 21.7746C19.6386 21.6994 19.4738 21.5891 19.335 21.45L15 17.115L10.665 21.45C10.3845 21.7305 10.0041 21.888 9.6075 21.888C9.21086 21.888 8.83047 21.7305 8.55 21.45C8.26953 21.1695 8.11197 20.7891 8.11197 20.3925C8.11197 20.1961 8.15065 20.0016 8.22581 19.8202C8.30097 19.6387 8.41113 19.4739 8.55 19.335L12.885 15L8.55 10.665C8.26953 10.3845 8.11197 10.0041 8.11197 9.6075C8.11197 9.21086 8.26953 8.83047 8.55 8.55C8.83047 8.26953 9.21086 8.11197 9.6075 8.11197C10.0041 8.11197 10.3845 8.26953 10.665 8.55L15 12.885L19.335 8.55C19.4739 8.41113 19.6387 8.30097 19.8202 8.22581C20.0016 8.15065 20.1961 8.11197 20.3925 8.11197C20.5889 8.11197 20.7834 8.15065 20.9648 8.22581C21.1463 8.30097 21.3111 8.41113 21.45 8.55C21.5889 8.68887 21.699 8.85374 21.7742 9.03518C21.8493 9.21663 21.888 9.4111 21.888 9.6075C21.888 9.80389 21.8493 9.99837 21.7742 10.1798C21.699 10.3613 21.5889 10.5261 21.45 10.665L17.115 15L21.45 19.335C22.02 19.905 22.02 20.865 21.45 21.45Z" fill="#3F3D56"/>
</svg>
