<svg width="146" height="184" viewBox="0 0 146 184" fill="none" xmlns="http://www.w3.org/2000/svg">
<g clip-path="url(#clip0_434_35)">
<path d="M35.3249 39.2081H0.710327V8.28711H35.3249V39.2081Z" fill="white"/>
<path d="M36.0353 39.9216H0V7.57422H36.0353V39.9216ZM1.42073 38.4952H34.6145V9.00064H1.42073V38.4952Z" fill="#CCCCCC"/>
<path d="M41.9835 167.199L38.4999 167.199L36.8425 153.708L41.9841 153.708L41.9835 167.199Z" fill="#FFB7B7"/>
<path d="M42.8718 170.589L31.6393 170.589V170.446C31.6394 169.282 32.1 168.166 32.9199 167.342C33.7398 166.519 34.8518 166.057 36.0113 166.057H36.0116L42.872 166.057L42.8718 170.589Z" fill="#2F2E41"/>
<path d="M74.4924 165.051L71.0898 165.801L66.5895 152.981L71.6115 151.874L74.4924 165.051Z" fill="#FFB7B7"/>
<path d="M76.0844 168.171L65.1131 170.589L65.0826 170.45C64.8341 169.313 65.0455 168.123 65.6705 167.143C66.2955 166.162 67.2828 165.471 68.4153 165.221L68.4156 165.221L75.1165 163.744L76.0844 168.171Z" fill="#2F2E41"/>
<path d="M32.2063 119.809L14.9996 123.535C11.6995 117.289 10.958 110.765 10.9305 104.594L28.1371 100.868C27.8712 107.426 29.2715 113.944 32.2063 119.809Z" fill="#3629B7"/>
<path d="M14.8557 108.053L14.7091 107.397L23.6512 105.583L23.7978 106.239L14.8557 108.053Z" fill="white"/>
<path d="M15.4422 110.677L15.2956 110.021L24.2377 108.207L24.3843 108.863L15.4422 110.677Z" fill="white"/>
<path d="M16.0287 113.301L15.8821 112.645L24.8242 110.831L24.9708 111.487L16.0287 113.301Z" fill="white"/>
<path d="M16.6152 115.925L16.4686 115.269L25.4107 113.455L25.5573 114.111L16.6152 115.925Z" fill="white"/>
<path d="M17.2017 118.55L17.0551 117.894L25.9971 116.08L26.1438 116.736L17.2017 118.55Z" fill="white"/>
<path d="M71.4375 104.5C71.7064 104.098 71.884 103.641 71.9579 103.161C72.0318 102.682 72.0002 102.193 71.8652 101.727C71.7303 101.261 71.4953 100.831 71.1768 100.467C70.8583 100.102 70.4641 99.8123 70.0219 99.6173L70.1778 92.0395L65.6143 90.8213L65.5439 101.526C65.2668 102.293 65.2798 103.136 65.5803 103.895C65.8809 104.653 66.4481 105.275 67.1746 105.641C67.9011 106.008 68.7363 106.094 69.522 105.884C70.3076 105.674 70.9892 105.182 71.4375 104.5L71.4375 104.5Z" fill="#FFB7B7"/>
<path d="M27.6055 34.0526L10.0076 33.6525C8.24731 26.8065 9.03979 20.288 10.4445 14.2812L28.0423 14.6813C26.2623 20.9966 26.112 27.6628 27.6055 34.0526Z" fill="#3629B7"/>
<path d="M13.4595 18.563L13.4688 17.8906L22.586 18.2178L22.5763 18.8903L13.4595 18.563Z" fill="white"/>
<path d="M13.4211 21.2512L13.4305 20.5791L22.5476 20.9063L22.5379 21.5785L13.4211 21.2512Z" fill="white"/>
<path d="M13.3824 23.941L13.3921 23.2686L22.5092 23.5958L22.4996 24.2682L13.3824 23.941Z" fill="white"/>
<path d="M13.3441 26.6304L13.3538 25.958L22.4709 26.2852L22.4612 26.9576L13.3441 26.6304Z" fill="white"/>
<path d="M13.3057 29.3196L13.3154 28.6475L22.4322 28.9747L22.4229 29.6468L13.3057 29.3196Z" fill="white"/>
<path d="M36.0045 12.8146C39.529 12.8146 42.3862 9.94598 42.3862 6.40732C42.3862 2.86865 39.529 0 36.0045 0C32.4799 0 29.6227 2.86865 29.6227 6.40732C29.6227 9.94598 32.4799 12.8146 36.0045 12.8146Z" fill="#3629B7"/>
<path d="M35.7769 9.52918L33.3599 6.56308L33.7401 6.25098L35.7411 8.70671L39.2381 3.55762L39.6435 3.8352L35.7769 9.52918Z" fill="white"/>
<path d="M145.29 93.6973H110.675V62.7764H145.29V93.6973Z" fill="white"/>
<path d="M146 94.4109H109.965V62.0635H146V94.4109ZM111.385 92.9845H144.579V63.4899H111.385V92.9845Z" fill="#E6E6E6"/>
<path d="M145.29 39.2081H110.675V8.28711H145.29V39.2081Z" fill="white"/>
<path d="M146 39.9216H109.965V7.57422H146V39.9216ZM111.385 38.4952H144.579V9.00064H111.385V38.4952Z" fill="#E6E6E6"/>
<path d="M90.1651 93.6973H55.5506V62.7764H90.1651V93.6973Z" fill="white"/>
<path d="M90.8755 94.4109H54.8403V62.0635H90.8755V94.4109ZM56.261 92.9845H89.4548V63.4899H56.261V92.9845Z" fill="#CCCCCC"/>
<path d="M35.3249 93.6973H0.710327V62.7764H35.3249V93.6973Z" fill="white"/>
<path d="M36.0353 94.4109H0V62.0635H36.0353V94.4109ZM1.42073 92.9845H34.6145V63.4899H1.42073V92.9845Z" fill="#E6E6E6"/>
<path d="M90.1651 39.2081H55.5506V8.28711H90.1651V39.2081Z" fill="white"/>
<path d="M90.8755 39.9216H54.8403V7.57422H90.8755V39.9216ZM56.261 38.4952H89.4548V9.00064H56.261V38.4952Z" fill="#E6E6E6"/>
<path d="M85.36 183.083L89.9843 174.085C98.5178 175.494 100.024 175.206 107.481 174.234L109.464 184C101.489 182.787 93.4034 182.48 85.36 183.083Z" fill="#E6E6E6"/>
<path d="M104.652 181.461L104.507 176.401L105.037 176.421L105.182 181.481L104.652 181.461Z" fill="white"/>
<path d="M102.533 181.38L102.388 176.32L102.918 176.341L103.063 181.4L102.533 181.38Z" fill="white"/>
<path d="M100.414 181.299L100.269 176.24L100.799 176.26L100.944 181.319L100.414 181.299Z" fill="white"/>
<path d="M35.6041 92.5691C35.6041 92.5691 33.9247 93.2435 35.6041 118.873L36.2759 160.689H42.9935L50.5546 103.861L59.7877 130.338L68.1847 161.701L74.9024 160.014C74.9024 160.014 67.8488 96.6158 61.8029 92.569C55.757 88.5223 35.6041 92.5691 35.6041 92.5691Z" fill="#2F2E41"/>
<path d="M49.0939 40.6572C52.9496 40.6572 56.0752 37.519 56.0752 33.6479C56.0752 29.7768 52.9496 26.6387 49.0939 26.6387C45.2383 26.6387 42.1126 29.7768 42.1126 33.6479C42.1126 37.519 45.2383 40.6572 49.0939 40.6572Z" fill="#FFB8B8"/>
<path d="M55.7571 45.0197C55.7571 45.0197 49.7112 41.9847 44.0012 44.008C38.2912 46.0314 35.2682 48.392 35.2682 48.392L38.9629 67.9512L33.9247 94.2549C33.9247 94.2549 59.7877 92.2315 62.1388 94.2549C64.49 96.2782 64.49 91.8943 64.49 91.8943L62.4747 66.9395L66.1694 51.0898L55.7571 45.0197Z" fill="#3F3D56"/>
<path d="M43.1529 33.1646L44.6308 36.9556C45.2364 38.5091 45.93 40.1712 47.3496 41.0381C49.1023 42.1086 51.4429 41.5866 53.1385 40.4271C54.6634 39.3842 55.834 37.8977 56.4929 36.1674C57.1519 34.437 57.2677 32.5456 56.8247 30.7473C56.3818 28.949 55.4013 27.3298 54.015 26.1073C52.6287 24.8847 50.903 24.1174 49.0697 23.9083L48.9995 25.1772L47.4487 23.8721C47.334 24.0697 47.1762 24.2386 46.9872 24.3661C46.7981 24.4937 46.5828 24.5766 46.3572 24.6087C46.1317 24.6407 45.9019 24.621 45.685 24.551C45.4681 24.4811 45.2699 24.3627 45.1051 24.2048C45.5125 25.0526 45.0423 26.0866 44.3634 26.7361C43.5292 27.5339 41.1434 28.4928 41.2424 29.919C41.3085 30.8708 42.7684 32.1783 43.1529 33.1646Z" fill="#2F2E41"/>
<path d="M30.2395 104.949C30.6102 104.638 30.9085 104.25 31.1134 103.811C31.3183 103.372 31.4249 102.893 31.4255 102.408C31.4262 101.923 31.3209 101.444 31.1172 101.004C30.9135 100.565 30.6162 100.175 30.2464 99.8633L32.515 92.6343L28.4758 90.1787L25.4148 100.433C24.9342 101.091 24.711 101.904 24.7873 102.717C24.8637 103.529 25.2343 104.286 25.829 104.842C26.4237 105.399 27.2012 105.718 28.0141 105.737C28.8269 105.757 29.6188 105.476 30.2395 104.949Z" fill="#FFB7B7"/>
<path d="M37.6194 48.3916H35.2682C35.2682 48.3916 31.5735 50.7522 31.5735 54.1245C31.5735 57.4967 26.1994 96.9523 26.1994 96.9523L31.9094 97.964L36.9476 70.3114L40.6424 62.8924L37.6194 48.3916Z" fill="#3F3D56"/>
<path d="M59.7877 51.0898H66.1694C66.1694 51.0898 68.1847 53.1132 69.1924 57.8344C70.2 62.5556 71.2077 81.1031 71.2077 81.1031L70.5359 97.9644H65.4977L64.8259 76.0447L61.4671 61.8811L59.7877 51.0898Z" fill="#3F3D56"/>
<path d="M109.083 170.903H0.823392C0.748032 170.903 0.675753 170.873 0.622466 170.819C0.569178 170.766 0.539246 170.693 0.539246 170.617C0.539246 170.542 0.569178 170.469 0.622466 170.416C0.675753 170.362 0.748032 170.332 0.823392 170.332H109.083C109.159 170.332 109.231 170.362 109.284 170.416C109.337 170.469 109.367 170.542 109.367 170.617C109.367 170.693 109.337 170.766 109.284 170.819C109.231 170.873 109.159 170.903 109.083 170.903Z" fill="#CBCBCB"/>
</g>
<defs>
<clipPath id="clip0_434_35">
<rect width="146" height="184" fill="white"/>
</clipPath>
</defs>
</svg>
