<svg width="226" height="184" viewBox="0 0 226 171" fill="none" xmlns="http://www.w3.org/2000/svg">
<g clip-path="url(#clip0_434_168)">
<path d="M90.437 16.4938C87.6835 21.2238 92.8683 29.1936 87.6429 30.8485L88.0734 30.4193C91.2276 26.5505 84.6349 18.3621 87.7891 14.4933C88.2792 13.9258 88.6999 13.3023 89.0423 12.6357" fill="#2F2E41"/>
<path d="M116.224 85.8871C116.314 85.4137 116.299 84.9264 116.18 84.4595C116.061 83.9925 115.841 83.5572 115.535 83.1843C115.229 82.8114 114.845 82.5099 114.409 82.3011C113.974 82.0923 113.498 81.9812 113.014 81.9757L106.208 62.2578L102.441 67.0462L109.637 85.4703C109.682 86.2803 110.023 87.0458 110.595 87.6219C111.168 88.1979 111.933 88.5445 112.745 88.5959C113.557 88.6472 114.359 88.3998 115 87.9006C115.641 87.4013 116.077 86.6849 116.224 85.887L116.224 85.8871Z" fill="#FFB8B8"/>
<path d="M86.3055 38.2798C86.3055 38.2798 86.0938 31.1422 92.4947 35.2311C98.8956 39.3199 112.832 77.6226 112.832 77.6226L105.897 81.3642L90.1524 46.3129L86.3055 38.2798Z" fill="#3629B7"/>
<path d="M105.19 160.614L101.994 161.976L95.2042 150.331L99.9219 148.32L105.19 160.614Z" fill="#FFB6B6"/>
<path d="M109.243 165.417L106.951 166.394L105.617 164.41L105.494 167.015L99.4148 169.605C99.1234 169.729 98.7998 169.757 98.4913 169.685C98.1828 169.613 97.9055 169.444 97.6999 169.204C97.4942 168.963 97.3711 168.664 97.3484 168.349C97.3257 168.033 97.4047 167.719 97.5737 167.452L100.996 162.04L100.061 159.858L105.298 157.986L109.243 165.417Z" fill="#2F2E41"/>
<path d="M55.085 164.564L51.6134 164.395L50.6155 150.962L55.7397 151.212L55.085 164.564Z" fill="#FFB6B6"/>
<path d="M56.6235 170.651L54.1338 170.53L53.8042 168.164L52.5512 170.453L45.9479 170.131C45.6314 170.115 45.3281 170 45.0823 169.8C44.8365 169.601 44.6611 169.328 44.5817 169.022C44.5023 168.716 44.523 168.393 44.6408 168.1C44.7587 167.806 44.9675 167.558 45.2367 167.392L50.6879 164.017L50.804 161.647L56.3343 162.248L56.6235 170.651Z" fill="#2F2E41"/>
<path d="M157.376 162.424C157.606 162.432 157.833 162.37 158.026 162.245C158.219 162.12 158.369 161.94 158.456 161.727C158.543 161.515 158.562 161.281 158.511 161.057C158.46 160.833 158.341 160.63 158.171 160.476C158.141 160.364 158.12 160.284 158.091 160.172C158.306 159.613 158.683 159.13 159.174 158.786C159.666 158.442 160.249 158.252 160.85 158.241C161.45 158.229 162.04 158.397 162.545 158.722C163.049 159.048 163.444 159.516 163.68 160.067C165.04 163.158 166.792 166.356 165.968 169.783C171.509 157.779 169.444 142.932 160.99 132.792C158.668 131.545 156.774 129.309 156.261 126.696C157.408 127.071 158.825 126.13 157.954 124.938C157.577 124.482 157.196 124.031 156.819 123.575C161.118 118.922 166.361 126.121 161.641 132.391C163.223 134.331 164.598 136.431 165.742 138.656C165.46 136.284 165.747 133.88 166.578 131.64C167.423 129.552 169.027 127.785 170.436 125.974C172.151 123.767 175.731 124.744 175.991 127.521C174.395 128.061 174.209 130.37 176.043 130.668C175.613 135.844 172.27 140.629 167.625 142.941C169.395 147.746 170.117 152.872 169.743 157.978C170.51 152.008 176.914 150.5 181.377 148.088C181.661 147.903 181.993 147.804 182.332 147.803C182.671 147.803 183.003 147.901 183.287 148.085C183.572 148.27 183.796 148.532 183.933 148.842C184.07 149.151 184.114 149.494 184.059 149.828C183.442 150.084 182.853 150.402 182.299 150.775C182.039 150.953 181.841 151.206 181.732 151.5C181.622 151.794 181.607 152.115 181.687 152.418C181.768 152.722 181.94 152.993 182.182 153.194C182.423 153.396 182.72 153.519 183.034 153.545C180.826 159.147 175.016 162.949 169.012 162.985C168.458 165.491 167.646 167.933 166.586 170.271L157.675 170.355C157.642 170.257 157.612 170.155 157.583 170.057C158.408 170.101 159.236 170.044 160.047 169.887C157.84 167.331 156.14 166.033 157.376 162.424L157.376 162.424Z" fill="#F2F2F2"/>
<path d="M63.8551 77.2425C63.8551 77.2425 56.7951 96.4279 56.6811 98.5749C56.567 100.722 54.5536 127.871 52.865 129.449C51.1764 131.026 46.0139 155.483 50.0308 157.396C54.0477 159.309 66.7209 156.14 66.7209 156.14L71.1296 127.251L72.6273 105.118C72.6273 105.118 77.1868 157.237 85.4565 157.084C93.7261 156.93 103.803 153.79 103.803 153.79L92.2285 122.227C92.2285 122.227 92.3921 84.8594 89.7092 77.3227C87.0263 69.786 63.8551 77.2425 63.8551 77.2425Z" fill="#2F2E41"/>
<path d="M84.8041 27.8135L75.3492 28.677L73.8261 33.3394C73.8261 33.3394 65.9136 37.6725 67.6656 39.6411C69.4177 41.6096 67.2739 54.8758 67.2739 54.8758L67.7581 65.6443C67.7581 65.6443 67.2379 73.1049 65.6814 74.8238C64.1248 76.5428 60.0524 80.7578 62.9299 78.7412C73.0191 71.6704 90.6539 77.6367 90.6539 77.6367L88.1347 62.25C88.1347 62.25 93.8569 37.0584 91.5987 34.9309C89.3404 32.8033 87.2098 32.5344 87.2098 32.5344L84.8041 27.8135Z" fill="#3629B7"/>
<path d="M35.123 76.6203C35.598 76.5321 36.0478 76.3412 36.4408 76.0608C36.8338 75.7805 37.1604 75.4177 37.3975 74.9979C37.6347 74.5781 37.7767 74.1116 37.8134 73.6312C37.8502 73.1508 37.7809 72.6682 37.6104 72.2173L53.5572 58.7266L47.7142 56.9678L33.1178 70.3505C32.3773 70.6863 31.7861 71.2813 31.4561 72.0228C31.1262 72.7642 31.0804 73.6006 31.3276 74.3735C31.5747 75.1463 32.0976 75.8019 32.7971 76.216C33.4966 76.6301 34.3242 76.774 35.123 76.6203Z" fill="#FFB8B8"/>
<path d="M75.6219 41.3324C75.6219 41.3324 78.7638 34.9156 71.242 36.0117C63.7202 37.1078 35.1962 66.2834 35.1962 66.2834L39.9697 72.5419L68.7976 47.0716L75.6219 41.3324Z" fill="#3629B7"/>
<path d="M63.3728 30.4481L33.5502 68.5461C33.0343 69.2073 32.8023 70.0455 32.9051 70.877C33.0079 71.7085 33.437 72.4655 34.0985 72.982C41.024 89.75 61.7435 102.184 86.1169 113.47C86.7798 113.985 87.6206 114.217 88.4546 114.114C89.2886 114.012 90.0478 113.584 90.5655 112.924L120.388 74.8256C120.904 74.1646 121.137 73.3262 121.034 72.4946C120.931 71.6629 120.502 70.9059 119.84 70.3897C99.3858 58.873 81.8057 45.5298 67.8213 29.9014C67.1582 29.387 66.3176 29.1557 65.4838 29.2582C64.6499 29.3606 63.8908 29.7885 63.3728 30.4481Z" fill="#E6E6E6"/>
<path d="M118.295 73.9588L109.217 85.5554C103.672 92.5967 95.5578 97.1637 86.6469 98.2588C77.736 99.3538 68.7525 96.888 61.6589 91.3999L36.2191 71.5989C35.8423 71.3055 35.5975 70.875 35.5386 70.4018C35.4797 69.9287 35.6113 69.4515 35.9048 69.0751L64.7224 32.2609C65.0173 31.8857 65.4496 31.6425 65.9242 31.5846C66.3988 31.5267 66.877 31.659 67.254 31.9523C80.1228 48.5225 97.3488 61.4173 117.983 71.4371C118.359 71.7306 118.604 72.1609 118.662 72.6337C118.72 73.1064 118.588 73.583 118.295 73.9588Z" fill="white"/>
<path d="M62.7778 51.2455L56.866 58.7979C56.7091 58.9979 56.479 59.1277 56.2262 59.1586C55.9734 59.1896 55.7187 59.1192 55.5179 58.9629C55.3172 58.8067 55.1868 58.5774 55.1556 58.3253C55.1243 58.0733 55.1947 57.8192 55.3512 57.6189L61.2631 50.0665C61.3407 49.9672 61.4371 49.8841 61.5469 49.822C61.6567 49.7599 61.7777 49.72 61.903 49.7045C62.0283 49.6891 62.1554 49.6984 62.2771 49.7319C62.3988 49.7655 62.5126 49.8226 62.6122 49.9001C62.7117 49.9776 62.7949 50.0738 62.8571 50.1834C62.9193 50.2929 62.9592 50.4136 62.9746 50.5386C62.99 50.6635 62.9806 50.7903 62.9468 50.9116C62.913 51.0329 62.8556 51.1464 62.7778 51.2455H62.7778Z" fill="#CCCCCC"/>
<path d="M73.8668 45.6436L60.8838 62.2292C60.8062 62.3284 60.7097 62.4113 60.5999 62.4733C60.4901 62.5353 60.3692 62.5752 60.2439 62.5906C60.1187 62.606 59.9917 62.5966 59.8701 62.563C59.7485 62.5295 59.6347 62.4723 59.5352 62.3949C59.4358 62.3175 59.3526 62.2213 59.2904 62.1118C59.2282 62.0024 59.1882 61.8817 59.1728 61.7569C59.1574 61.632 59.1668 61.5053 59.2004 61.3841C59.2341 61.2628 59.2914 61.1494 59.369 61.0502L72.352 44.4646C72.4295 44.3651 72.526 44.282 72.6358 44.2197C72.7457 44.1575 72.8667 44.1175 72.9921 44.102C73.1174 44.0865 73.2446 44.0958 73.3663 44.1293C73.4881 44.1629 73.602 44.2201 73.7016 44.2976C73.8011 44.3751 73.8844 44.4714 73.9466 44.581C74.0088 44.6906 74.0487 44.8114 74.0641 44.9364C74.0794 45.0614 74.0699 45.1882 74.036 45.3096C74.0022 45.4309 73.9447 45.5444 73.8668 45.6436H73.8668Z" fill="#CCCCCC"/>
<path d="M51.7239 73.3083C55.219 73.3083 58.0523 70.483 58.0523 66.9979C58.0523 63.5128 55.219 60.6875 51.7239 60.6875C48.2289 60.6875 45.3956 63.5128 45.3956 66.9979C45.3956 70.483 48.2289 73.3083 51.7239 73.3083Z" fill="#3629B7"/>
<path d="M74.5561 58.7518L58.6104 79.1223C58.444 79.2913 58.221 79.3933 57.984 79.4089C57.7471 79.4245 57.5126 79.3525 57.3254 79.2068C57.1382 79.0611 57.0113 78.8518 56.9689 78.6187C56.9265 78.3857 56.9716 78.1453 57.0956 77.9433L73.0413 57.5728C73.2077 57.4039 73.4307 57.3019 73.6676 57.2863C73.9046 57.2707 74.1391 57.3426 74.3263 57.4883C74.5135 57.634 74.6404 57.8434 74.6828 58.0764C74.7252 58.3094 74.6801 58.5499 74.5561 58.7518Z" fill="#CCCCCC"/>
<path d="M84.9004 54.1005L62.6441 82.5327C62.4777 82.7017 62.2548 82.8037 62.0178 82.8192C61.7808 82.8348 61.5463 82.7629 61.3591 82.6172C61.1719 82.4715 61.045 82.2621 61.0026 82.0291C60.9602 81.7961 61.0054 81.5557 61.1293 81.3537L83.3856 52.9215C83.552 52.7525 83.775 52.6505 84.012 52.6349C84.249 52.6193 84.4834 52.6912 84.6706 52.837C84.8579 52.9827 84.9848 53.192 85.0271 53.425C85.0695 53.6581 85.0244 53.8985 84.9004 54.1005Z" fill="#CCCCCC"/>
<path d="M84.8231 66.7431L68.8774 87.1135C68.711 87.2825 68.4881 87.3845 68.2511 87.4001C68.0141 87.4157 67.7797 87.3437 67.5924 87.198C67.4052 87.0523 67.2783 86.843 67.2359 86.61C67.1936 86.3769 67.2387 86.1365 67.3627 85.9345L83.3084 65.564C83.4748 65.3951 83.6977 65.2931 83.9347 65.2775C84.1717 65.2619 84.4061 65.3338 84.5933 65.4795C84.7806 65.6253 84.9075 65.8346 84.9498 66.0676C84.9922 66.3006 84.9471 66.5411 84.8231 66.7431Z" fill="#CCCCCC"/>
<path d="M105.922 69.2548L89.9763 89.6252C89.8099 89.7942 89.5869 89.8962 89.3499 89.9118C89.1129 89.9274 88.8785 89.8555 88.6913 89.7097C88.504 89.564 88.3772 89.3547 88.3348 89.1217C88.2924 88.8886 88.3375 88.6482 88.4615 88.4462L104.407 68.0758C104.574 67.9068 104.797 67.8048 105.034 67.7892C105.271 67.7736 105.505 67.8455 105.692 67.9913C105.879 68.137 106.006 68.3463 106.049 68.5793C106.091 68.8124 106.046 69.0528 105.922 69.2548Z" fill="#3629B7"/>
<path d="M95.1675 62.0917L72.9112 90.5239C72.7448 90.6928 72.5218 90.7949 72.2848 90.8104C72.0478 90.826 71.8134 90.7541 71.6262 90.6084C71.439 90.4627 71.3121 90.2533 71.2697 90.0203C71.2273 89.7873 71.2724 89.5468 71.3964 89.3449L93.6527 60.9127C93.8191 60.7437 94.0421 60.6417 94.279 60.6261C94.516 60.6105 94.7505 60.6825 94.9377 60.8282C95.1249 60.9739 95.2518 61.1832 95.2942 61.4162C95.3366 61.6493 95.2915 61.8897 95.1675 62.0917Z" fill="#CCCCCC"/>
<path d="M68.9527 15.7769C68.9521 17.3098 69.3289 18.8194 70.05 20.1732C70.7711 21.527 71.8145 22.6836 73.0885 23.5414C74.3625 24.3993 75.8282 24.9321 77.3569 25.0933C78.8857 25.2544 80.4308 25.0389 81.8565 24.4656C83.2822 23.8923 84.545 22.9787 85.534 21.8052C86.523 20.6316 87.208 19.2339 87.5288 17.7348C87.8496 16.2357 87.7965 14.6809 87.374 13.207C86.9516 11.7331 86.1728 10.3851 85.106 9.28146L85.0609 9.23656C84.9858 9.15786 84.9106 9.07921 84.8317 9.00427C84.8312 9.00427 84.8307 9.00418 84.8303 9.004C84.8298 9.00381 84.8294 9.00354 84.8291 9.00319C84.8287 9.00284 84.8284 9.00242 84.8282 9.00196C84.8281 9.0015 84.828 9.00101 84.828 9.00052C84.7303 8.91062 84.6326 8.82072 84.5312 8.73457C83.1741 7.54819 81.5029 6.77696 79.7177 6.51321C77.9324 6.24946 76.1087 6.50437 74.465 7.24743C72.8213 7.99048 71.4271 9.19019 70.4495 10.7029C69.4719 12.2156 68.9522 13.9773 68.9527 15.7769V15.7769Z" fill="#2F2E41"/>
<path d="M80.6579 25.7964C85.0072 25.7964 88.533 22.2806 88.533 17.9436C88.533 13.6066 85.0072 10.0908 80.6579 10.0908C76.3086 10.0908 72.7828 13.6066 72.7828 17.9436C72.7828 22.2806 76.3086 25.7964 80.6579 25.7964Z" fill="#FFB8B8"/>
<path d="M72.2626 20.0371C71.4928 16.578 72.6055 12.7027 75.0312 10.3934C76.2513 9.25493 77.7687 8.48277 79.4092 8.16571C81.0496 7.84864 82.7464 7.99954 84.3047 8.60105C84.5028 8.68078 84.7008 8.76802 84.8952 8.8591L84.9856 8.90157V8.91476C85.0031 8.92687 85.0206 8.9396 85.0382 8.95248C85.0749 8.98679 85.1196 9.0114 85.1683 9.02407C85.852 9.00623 86.5319 9.13268 87.1633 9.39511C87.7946 9.65755 88.3632 10.0501 88.8318 10.5469C90.0524 11.8675 90.6272 14.0017 90.451 16.5563L90.4454 16.6361L90.3772 16.6786C89.4531 17.2625 88.4942 17.7897 87.5058 18.2573C84.0486 19.8782 80.8924 20.1786 77.859 19.1743L77.8033 19.1559L76.5301 17.0282C76.2687 18.4957 76.4083 23.3633 74.9085 23.627L72.2952 20.1838L72.2626 20.0371Z" fill="#2F2E41"/>
<path d="M55.6849 26.874C58.3648 25.4947 54.9181 20.4887 55.6107 17.5618C56.3033 14.635 61.2907 13.6936 61.6084 10.7031C61.9261 7.71258 62.6736 4.62819 64.6526 2.35897C65.9171 0.908944 67.7805 -0.161519 69.6989 0.0201058C70.3481 0.0815562 70.9762 0.281786 71.5408 0.607156C72.1053 0.932526 72.5928 1.3754 72.9702 1.9056C73.3476 2.4358 73.606 3.04088 73.7277 3.67962C73.8494 4.31836 73.8317 4.97577 73.6757 5.60706C74.2219 4.83529 75.6355 5.00256 75.9854 5.88042C76.2965 6.66083 75.6093 7.60613 74.8005 7.67518C73.7423 8.97833 72.5305 10.3613 70.8726 10.6242C70.6085 10.6847 70.334 10.6845 70.0699 10.6238C69.8058 10.563 69.559 10.4432 69.3482 10.2734C68.9582 9.89986 68.9278 9.15314 69.3905 8.87403C67.307 9.6993 66.0855 11.9456 65.7764 14.1597C65.4673 16.3738 65.8949 18.614 66.1768 20.8318C66.4586 23.0495 66.58 25.3825 65.708 27.4419C64.6777 29.8751 62.3056 31.6191 59.7168 32.1784C57.1281 32.7377 54.3711 32.191 52.0278 30.9595C49.6846 29.7279 47.7305 27.8479 46.1343 25.74C48.8839 27.687 52.6881 28.4164 55.6849 26.874Z" fill="#2F2E41"/>
<path d="M76.896 17.4362C74.1425 22.1662 79.3273 30.1359 74.1019 31.7909L74.5324 31.3616C77.6865 27.4929 71.0939 19.3045 74.2481 15.4357C74.7381 14.8682 75.1588 14.2446 75.5013 13.5781" fill="#2F2E41"/>
<path d="M72.6303 19.965C72.6303 19.965 74.9632 11.282 84.9632 9.27787C84.9745 9.27416 85.0121 9.25916 85.0609 9.23671C85.0909 9.21797 85.1285 9.19922 85.1661 9.1805C85.0534 9.11681 84.9445 9.06065 84.8317 9.00441C84.8312 9.00442 84.8307 9.00433 84.8303 9.00414C84.8298 9.00395 84.8294 9.00368 84.8291 9.00333C84.8287 9.00298 84.8284 9.00256 84.8283 9.0021C84.8281 9.00165 84.828 9.00115 84.828 9.00066C84.7303 8.91076 84.6326 8.82086 84.5312 8.73471L84.2457 8.74597C84.2457 8.74597 74.2119 7.16146 72.6303 19.965Z" fill="#FD6584"/>
<path d="M5.48261e-06 170.627C-0.000141704 170.676 0.00945401 170.724 0.0282355 170.77C0.047017 170.815 0.0746175 170.856 0.109447 170.891C0.144276 170.926 0.185645 170.953 0.23118 170.972C0.276714 170.991 0.325511 171 0.374766 171H225.625C225.725 171 225.82 170.961 225.89 170.891C225.961 170.821 226 170.726 226 170.627C226 170.528 225.961 170.432 225.89 170.362C225.82 170.292 225.725 170.253 225.625 170.253H0.374747C0.325494 170.253 0.276701 170.262 0.23117 170.281C0.185639 170.3 0.144269 170.327 0.109442 170.362C0.0746152 170.397 0.0470166 170.438 0.0282355 170.483C0.00945444 170.529 -0.000139602 170.577 5.48261e-06 170.627Z" fill="#CCCCCC"/>
</g>
<defs>
<clipPath id="clip0_434_168">
<rect width="226" height="171" fill="white"/>
</clipPath>
</defs>
</svg>
