<svg width="176" height="184" viewBox="0 0 176 184" fill="none" xmlns="http://www.w3.org/2000/svg">
<g clip-path="url(#clip0_434_118)">
<path d="M122.765 22.4452L122.428 22.7988L145.565 44.7896L145.902 44.436L122.765 22.4452Z" fill="#E6E6E6"/>
<path d="M145.939 42.0518L145.45 42.0813L145.598 44.4838L143.186 44.4549L143.181 44.9432L146.118 44.9779L145.939 42.0518Z" fill="#E6E6E6"/>
<path d="M125.149 22.2919L125.143 22.7802L122.733 22.7513L122.88 25.1538L122.391 25.1833L122.213 22.2568L125.149 22.2919Z" fill="#E6E6E6"/>
<path d="M134.165 36.3024C135.65 36.3024 136.854 35.1003 136.854 33.6175C136.854 32.1347 135.65 30.9326 134.165 30.9326C132.679 30.9326 131.475 32.1347 131.475 33.6175C131.475 35.1003 132.679 36.3024 134.165 36.3024Z" fill="#E6E6E6"/>
<path d="M53.724 22.4457L30.5872 44.4365L30.9244 44.7901L54.0612 22.7993L53.724 22.4457Z" fill="#E6E6E6"/>
<path d="M30.3714 44.9779L33.3081 44.9432L33.3025 44.4549L30.8916 44.4838L31.039 42.0813L30.5505 42.0518L30.3714 44.9779Z" fill="#E6E6E6"/>
<path d="M54.2765 22.2568L54.0978 25.1833L53.6092 25.1538L53.7564 22.7513L51.3454 22.7802L51.3402 22.2919L54.2765 22.2568Z" fill="#E6E6E6"/>
<path d="M42.3242 36.3024C43.8095 36.3024 45.0136 35.1003 45.0136 33.6175C45.0136 32.1347 43.8095 30.9326 42.3242 30.9326C40.8389 30.9326 39.6348 32.1347 39.6348 33.6175C39.6348 35.1003 40.8389 36.3024 42.3242 36.3024Z" fill="#E6E6E6"/>
<path d="M108.293 55.6506H67.7072C67.1239 55.6499 66.5646 55.4183 66.1521 55.0065C65.7395 54.5946 65.5075 54.0363 65.5069 53.4539V2.19673C65.5075 1.61433 65.7395 1.05597 66.1521 0.644143C66.5646 0.232319 67.1239 0.000663242 67.7072 0H108.293C108.876 0.000663242 109.435 0.232319 109.848 0.644143C110.26 1.05597 110.492 1.61433 110.493 2.19673V53.4539C110.492 54.0363 110.26 54.5946 109.848 55.0065C109.435 55.4183 108.876 55.6499 108.293 55.6506ZM67.7072 0.488164C67.2535 0.488673 66.8185 0.668846 66.4976 0.989155C66.1768 1.30946 65.9963 1.74375 65.9958 2.19673V53.4539C65.9963 53.9069 66.1768 54.3411 66.4976 54.6614C66.8185 54.9818 67.2535 55.1619 67.7072 55.1624H108.293C108.747 55.1619 109.182 54.9818 109.502 54.6614C109.823 54.3411 110.004 53.9069 110.004 53.4539V2.19673C110.004 1.74375 109.823 1.30946 109.502 0.989155C109.182 0.668846 108.747 0.488673 108.293 0.488164H67.7072Z" fill="#3F3D56"/>
<path d="M84.6239 24.6384H75.6902C75.3985 24.6381 75.1188 24.5223 74.9126 24.3164C74.7063 24.1105 74.5903 23.8313 74.59 23.5401V13.0154C74.5903 12.7242 74.7063 12.445 74.9126 12.2391C75.1188 12.0331 75.3985 11.9173 75.6902 11.917H84.6239C84.9156 11.9173 85.1952 12.0331 85.4015 12.2391C85.6078 12.445 85.7238 12.7242 85.7241 13.0154V23.5401C85.7238 23.8313 85.6078 24.1105 85.4015 24.3164C85.1952 24.5223 84.9156 24.6381 84.6239 24.6384Z" fill="#3629B7"/>
<path d="M101.983 29.5193H93.0491C92.7574 29.519 92.4777 29.4031 92.2715 29.1972C92.0652 28.9913 91.9492 28.7121 91.9489 28.4209V17.8962C91.9492 17.605 92.0652 17.3258 92.2715 17.1199C92.4777 16.914 92.7574 16.7982 93.0491 16.7979H101.983C102.274 16.7982 102.554 16.914 102.76 17.1199C102.967 17.3258 103.083 17.605 103.083 17.8962V28.4209C103.083 28.7121 102.967 28.9913 102.76 29.1972C102.554 29.4031 102.274 29.519 101.983 29.5193Z" fill="#CCCCCC"/>
<path d="M88.0468 44.4089H79.1131C78.8214 44.4086 78.5417 44.2928 78.3355 44.0869C78.1292 43.881 78.0132 43.6018 78.0128 43.3106V32.7859C78.0132 32.4947 78.1292 32.2155 78.3355 32.0096C78.5417 31.8037 78.8214 31.6878 79.1131 31.6875H88.0468C88.3385 31.6878 88.6181 31.8037 88.8244 32.0096C89.0306 32.2155 89.1467 32.4947 89.147 32.7859V43.3106C89.1467 43.6018 89.0306 43.881 88.8244 44.0869C88.6181 44.2928 88.3385 44.4086 88.0468 44.4089Z" fill="#FF6584"/>
<path d="M173.8 108.356H133.214C132.631 108.355 132.071 108.123 131.659 107.712C131.246 107.3 131.014 106.741 131.014 106.159V54.9018C131.014 54.3194 131.246 53.761 131.659 53.3492C132.071 52.9374 132.631 52.7057 133.214 52.7051H173.8C174.383 52.7057 174.942 52.9374 175.355 53.3492C175.767 53.761 175.999 54.3194 176 54.9018V106.159C175.999 106.741 175.767 107.3 175.355 107.712C174.942 108.123 174.383 108.355 173.8 108.356ZM133.214 53.1932C132.76 53.1937 132.325 53.3739 132.004 53.6942C131.684 54.0145 131.503 54.4488 131.503 54.9018V106.159C131.503 106.612 131.684 107.046 132.004 107.367C132.325 107.687 132.76 107.867 133.214 107.868H173.8C174.253 107.867 174.688 107.687 175.009 107.367C175.33 107.046 175.51 106.612 175.511 106.159V54.9018C175.51 54.4488 175.33 54.0145 175.009 53.6942C174.688 53.3739 174.253 53.1937 173.8 53.1932H133.214Z" fill="#3F3D56"/>
<path d="M160.475 64.0552H146.539C146.279 64.0552 146.031 63.9523 145.847 63.7692C145.664 63.5861 145.561 63.3378 145.561 63.0789C145.561 62.8199 145.664 62.5716 145.847 62.3885C146.031 62.2054 146.279 62.1025 146.539 62.1025H160.475C160.734 62.1025 160.983 62.2054 161.166 62.3885C161.35 62.5716 161.453 62.8199 161.453 63.0789C161.453 63.3378 161.35 63.5861 161.166 63.7692C160.983 63.9523 160.734 64.0552 160.475 64.0552Z" fill="#3629B7"/>
<path d="M167.321 73.3296H139.693C139.565 73.3298 139.437 73.3047 139.318 73.2558C139.199 73.2068 139.091 73.1349 139 73.0443C138.909 72.9536 138.837 72.8459 138.788 72.7273C138.739 72.6087 138.713 72.4816 138.713 72.3533C138.713 72.2249 138.739 72.0978 138.788 71.9793C138.837 71.8607 138.909 71.753 139 71.6623C139.091 71.5716 139.199 71.4998 139.318 71.4508C139.437 71.4018 139.565 71.3767 139.693 71.377H167.321C167.449 71.3767 167.576 71.4018 167.695 71.4508C167.814 71.4998 167.922 71.5716 168.013 71.6623C168.104 71.753 168.176 71.8607 168.226 71.9793C168.275 72.0978 168.3 72.2249 168.3 72.3533C168.3 72.4816 168.275 72.6087 168.226 72.7273C168.176 72.8459 168.104 72.9536 168.013 73.0443C167.922 73.1349 167.814 73.2068 167.695 73.2558C167.576 73.3047 167.449 73.3298 167.321 73.3296Z" fill="#CCCCCC"/>
<path d="M167.321 78.4556H139.693C139.565 78.4558 139.437 78.4307 139.318 78.3817C139.199 78.3328 139.091 78.2609 139 78.1702C138.909 78.0795 138.837 77.9718 138.788 77.8533C138.739 77.7347 138.713 77.6076 138.713 77.4793C138.713 77.3509 138.739 77.2238 138.788 77.1052C138.837 76.9867 138.909 76.879 139 76.7883C139.091 76.6976 139.199 76.6257 139.318 76.5768C139.437 76.5278 139.565 76.5027 139.693 76.5029H167.321C167.449 76.5027 167.576 76.5278 167.695 76.5768C167.814 76.6257 167.922 76.6976 168.013 76.7883C168.104 76.879 168.176 76.9867 168.226 77.1052C168.275 77.2238 168.3 77.3509 168.3 77.4793C168.3 77.6076 168.275 77.7347 168.226 77.8533C168.176 77.9718 168.104 78.0795 168.013 78.1702C167.922 78.2609 167.814 78.3328 167.695 78.3817C167.576 78.4307 167.449 78.4558 167.321 78.4556Z" fill="#CCCCCC"/>
<path d="M167.321 83.5816H139.693C139.565 83.5818 139.437 83.5567 139.318 83.5077C139.199 83.4588 139.091 83.3869 139 83.2962C138.909 83.2055 138.837 83.0978 138.788 82.9792C138.739 82.8607 138.713 82.7336 138.713 82.6052C138.713 82.4769 138.739 82.3498 138.788 82.2312C138.837 82.1127 138.909 82.005 139 81.9143C139.091 81.8236 139.199 81.7517 139.318 81.7027C139.437 81.6538 139.565 81.6287 139.693 81.6289H167.321C167.449 81.6287 167.576 81.6538 167.695 81.7027C167.814 81.7517 167.922 81.8236 168.013 81.9143C168.104 82.005 168.176 82.1127 168.226 82.2312C168.275 82.3498 168.3 82.4769 168.3 82.6052C168.3 82.7336 168.275 82.8607 168.226 82.9792C168.176 83.0978 168.104 83.2055 168.013 83.2962C167.922 83.3869 167.814 83.4588 167.695 83.5077C167.576 83.5567 167.449 83.5818 167.321 83.5816Z" fill="#CCCCCC"/>
<path d="M167.321 88.7066H139.693C139.565 88.7068 139.437 88.6817 139.318 88.6327C139.199 88.5838 139.091 88.5119 139 88.4212C138.909 88.3305 138.837 88.2228 138.788 88.1043C138.739 87.9857 138.713 87.8586 138.713 87.7302C138.713 87.6019 138.739 87.4748 138.788 87.3562C138.837 87.2377 138.909 87.13 139 87.0393C139.091 86.9486 139.199 86.8767 139.318 86.8277C139.437 86.7788 139.565 86.7537 139.693 86.7539H167.321C167.449 86.7537 167.576 86.7788 167.695 86.8277C167.814 86.8767 167.922 86.9486 168.013 87.0393C168.104 87.13 168.176 87.2377 168.226 87.3562C168.275 87.4748 168.3 87.6019 168.3 87.7302C168.3 87.8586 168.275 87.9857 168.226 88.1043C168.176 88.2228 168.104 88.3305 168.013 88.4212C167.922 88.5119 167.814 88.5838 167.695 88.6327C167.576 88.6817 167.449 88.7068 167.321 88.7066Z" fill="#CCCCCC"/>
<path d="M167.321 93.8325H139.693C139.565 93.8328 139.437 93.8077 139.318 93.7587C139.199 93.7097 139.091 93.6379 139 93.5472C138.909 93.4565 138.837 93.3488 138.788 93.2302C138.739 93.1117 138.713 92.9846 138.713 92.8562C138.713 92.7279 138.739 92.6008 138.788 92.4822C138.837 92.3636 138.909 92.2559 139 92.1652C139.091 92.0746 139.199 92.0027 139.318 91.9537C139.437 91.9048 139.565 91.8797 139.693 91.8799H167.321C167.449 91.8797 167.576 91.9048 167.695 91.9537C167.814 92.0027 167.922 92.0746 168.013 92.1652C168.104 92.2559 168.176 92.3636 168.226 92.4822C168.275 92.6008 168.3 92.7279 168.3 92.8562C168.3 92.9846 168.275 93.1117 168.226 93.2302C168.176 93.3488 168.104 93.4565 168.013 93.5472C167.922 93.6379 167.814 93.7097 167.695 93.7587C167.576 93.8077 167.449 93.8328 167.321 93.8325Z" fill="#CCCCCC"/>
<path d="M167.321 98.9585H139.693C139.565 98.9587 139.437 98.9336 139.318 98.8847C139.199 98.8357 139.091 98.7638 139 98.6732C138.909 98.5825 138.837 98.4748 138.788 98.3562C138.739 98.2376 138.713 98.1105 138.713 97.9822C138.713 97.8538 138.739 97.7267 138.788 97.6082C138.837 97.4896 138.909 97.3819 139 97.2912C139.091 97.2005 139.199 97.1287 139.318 97.0797C139.437 97.0307 139.565 97.0056 139.693 97.0059H167.321C167.449 97.0056 167.576 97.0307 167.695 97.0797C167.814 97.1287 167.922 97.2005 168.013 97.2912C168.104 97.3819 168.176 97.4896 168.226 97.6082C168.275 97.7267 168.3 97.8538 168.3 97.9822C168.3 98.1105 168.275 98.2376 168.226 98.3562C168.176 98.4748 168.104 98.5825 168.013 98.6732C167.922 98.7638 167.814 98.8357 167.695 98.8847C167.576 98.9336 167.449 98.9587 167.321 98.9585Z" fill="#CCCCCC"/>
<path d="M42.7859 108.356H2.20042C1.61703 108.355 1.05773 108.123 0.645219 107.712C0.232704 107.3 0.00066358 106.741 0 106.159V54.9018C0.00066358 54.3194 0.232704 53.761 0.645219 53.3492C1.05773 52.9374 1.61703 52.7057 2.20042 52.7051H42.7859C43.3693 52.7057 43.9286 52.9374 44.3411 53.3492C44.7536 53.761 44.9857 54.3194 44.9863 54.9018V106.159C44.9857 106.741 44.7536 107.3 44.3411 107.712C43.9286 108.123 43.3693 108.355 42.7859 108.356ZM2.20042 53.1932C1.74667 53.1937 1.31166 53.3739 0.990813 53.6942C0.669967 54.0145 0.489488 54.4488 0.488978 54.9018V106.159C0.489488 106.612 0.669967 107.046 0.990813 107.367C1.31166 107.687 1.74667 107.867 2.20042 107.868H42.7859C43.2397 107.867 43.6747 107.687 43.9955 107.367C44.3164 107.046 44.4968 106.612 44.4973 106.159V54.9018C44.4968 54.4488 44.3164 54.0145 43.9955 53.6942C43.6747 53.3739 43.2397 53.1937 42.7859 53.1932H2.20042Z" fill="#3F3D56"/>
<path d="M36.3493 64.8071H24.1247C23.8653 64.8071 23.6166 64.7043 23.4332 64.5212C23.2498 64.3381 23.1467 64.0898 23.1467 63.8308C23.1467 63.5719 23.2498 63.3235 23.4332 63.1405C23.6166 62.9574 23.8653 62.8545 24.1247 62.8545H36.3493C36.6086 62.8545 36.8574 62.9574 37.0408 63.1405C37.2242 63.3235 37.3272 63.5719 37.3272 63.8308C37.3272 64.0898 37.2242 64.3381 37.0408 64.5212C36.8574 64.7043 36.6086 64.8071 36.3493 64.8071Z" fill="#3F3D56"/>
<path d="M36.3493 69.9321H24.1247C23.8653 69.9321 23.6166 69.8293 23.4332 69.6462C23.2498 69.4631 23.1467 69.2148 23.1467 68.9558C23.1467 68.6969 23.2498 68.4485 23.4332 68.2655C23.6166 68.0824 23.8653 67.9795 24.1247 67.9795H36.3493C36.6086 67.9795 36.8574 68.0824 37.0408 68.2655C37.2242 68.4485 37.3272 68.6969 37.3272 68.9558C37.3272 69.2148 37.2242 69.4631 37.0408 69.6462C36.8574 69.8293 36.6086 69.9321 36.3493 69.9321Z" fill="#3F3D56"/>
<path d="M17.8523 72.8513H8.91856C8.62687 72.851 8.34721 72.7352 8.14095 72.5293C7.93469 72.3234 7.81867 72.0442 7.81834 71.753V61.2282C7.81867 60.937 7.93469 60.6579 8.14095 60.4519C8.34721 60.246 8.62687 60.1302 8.91856 60.1299H17.8523C18.1439 60.1302 18.4236 60.246 18.6299 60.4519C18.8361 60.6579 18.9521 60.937 18.9525 61.2282V71.753C18.9521 72.0442 18.8361 72.3234 18.6299 72.5293C18.4236 72.7352 18.1439 72.851 17.8523 72.8513Z" fill="#3629B7"/>
<path d="M36.2646 80.4282H8.63708C8.50851 80.4285 8.38115 80.4034 8.26231 80.3544C8.14346 80.3054 8.03545 80.2336 7.94446 80.1429C7.85347 80.0522 7.78128 79.9445 7.73203 79.8259C7.68277 79.7074 7.65742 79.5803 7.65742 79.4519C7.65742 79.3236 7.68277 79.1965 7.73203 79.0779C7.78128 78.9593 7.85347 78.8516 7.94446 78.7609C8.03545 78.6703 8.14346 78.5984 8.26231 78.5494C8.38115 78.5004 8.50851 78.4754 8.63708 78.4756H36.2646C36.3931 78.4754 36.5205 78.5004 36.6393 78.5494C36.7582 78.5984 36.8662 78.6703 36.9572 78.7609C37.0482 78.8516 37.1204 78.9593 37.1696 79.0779C37.2189 79.1965 37.2442 79.3236 37.2442 79.4519C37.2442 79.5803 37.2189 79.7074 37.1696 79.8259C37.1204 79.9445 37.0482 80.0522 36.9572 80.1429C36.8662 80.2336 36.7582 80.3054 36.6393 80.3544C36.5205 80.4034 36.3931 80.4285 36.2646 80.4282Z" fill="#CCCCCC"/>
<path d="M36.2646 85.5532H8.63708C8.50851 85.5535 8.38115 85.5284 8.26231 85.4794C8.14346 85.4304 8.03545 85.3586 7.94446 85.2679C7.85347 85.1772 7.78128 85.0695 7.73203 84.9509C7.68277 84.8324 7.65742 84.7053 7.65742 84.5769C7.65742 84.4486 7.68277 84.3215 7.73203 84.2029C7.78128 84.0843 7.85347 83.9766 7.94446 83.8859C8.03545 83.7953 8.14346 83.7234 8.26231 83.6744C8.38115 83.6255 8.50851 83.6004 8.63708 83.6006H36.2646C36.3931 83.6004 36.5205 83.6255 36.6393 83.6744C36.7582 83.7234 36.8662 83.7953 36.9572 83.8859C37.0482 83.9766 37.1204 84.0843 37.1696 84.2029C37.2189 84.3215 37.2442 84.4486 37.2442 84.5769C37.2442 84.7053 37.2189 84.8324 37.1696 84.9509C37.1204 85.0695 37.0482 85.1772 36.9572 85.2679C36.8662 85.3586 36.7582 85.4304 36.6393 85.4794C36.5205 85.5284 36.3931 85.5535 36.2646 85.5532Z" fill="#CCCCCC"/>
<path d="M36.2646 90.6792H8.63708C8.50851 90.6794 8.38115 90.6544 8.26231 90.6054C8.14346 90.5564 8.03545 90.4845 7.94446 90.3939C7.85347 90.3032 7.78128 90.1955 7.73203 90.0769C7.68277 89.9583 7.65742 89.8312 7.65742 89.7029C7.65742 89.5745 7.68277 89.4474 7.73203 89.3289C7.78128 89.2103 7.85347 89.1026 7.94446 89.0119C8.03545 88.9213 8.14346 88.8494 8.26231 88.8004C8.38115 88.7514 8.50851 88.7263 8.63708 88.7266H36.2646C36.3931 88.7263 36.5205 88.7514 36.6393 88.8004C36.7582 88.8494 36.8662 88.9213 36.9572 89.0119C37.0482 89.1026 37.1204 89.2103 37.1696 89.3289C37.2189 89.4474 37.2442 89.5745 37.2442 89.7029C37.2442 89.8312 37.2189 89.9583 37.1696 90.0769C37.1204 90.1955 37.0482 90.3032 36.9572 90.3939C36.8662 90.4845 36.7582 90.5564 36.6393 90.6054C36.5205 90.6544 36.3931 90.6794 36.2646 90.6792Z" fill="#CCCCCC"/>
<path d="M36.2646 95.8052H8.63708C8.50851 95.8054 8.38115 95.7803 8.26231 95.7314C8.14346 95.6824 8.03545 95.6105 7.94446 95.5198C7.85347 95.4291 7.78128 95.3214 7.73203 95.2029C7.68277 95.0843 7.65742 94.9572 7.65742 94.8289C7.65742 94.7005 7.68277 94.5734 7.73203 94.4549C7.78128 94.3363 7.85347 94.2286 7.94446 94.1379C8.03545 94.0472 8.14346 93.9753 8.26231 93.9264C8.38115 93.8774 8.50851 93.8523 8.63708 93.8525H36.2646C36.3931 93.8523 36.5205 93.8774 36.6393 93.9264C36.7582 93.9753 36.8662 94.0472 36.9572 94.1379C37.0482 94.2286 37.1204 94.3363 37.1696 94.4549C37.2189 94.5734 37.2442 94.7005 37.2442 94.8289C37.2442 94.9572 37.2189 95.0843 37.1696 95.2029C37.1204 95.3214 37.0482 95.4291 36.9572 95.5198C36.8662 95.6105 36.7582 95.6824 36.6393 95.7314C36.5205 95.7803 36.3931 95.8054 36.2646 95.8052Z" fill="#CCCCCC"/>
<path d="M36.2646 100.931H8.63708C8.50851 100.931 8.38115 100.906 8.26231 100.857C8.14346 100.808 8.03545 100.736 7.94446 100.646C7.85347 100.555 7.78128 100.447 7.73203 100.329C7.68277 100.21 7.65742 100.083 7.65742 99.9548C7.65742 99.8265 7.68277 99.6994 7.73203 99.5808C7.78128 99.4623 7.85347 99.3546 7.94446 99.2639C8.03545 99.1732 8.14346 99.1013 8.26231 99.0524C8.38115 99.0034 8.50851 98.9783 8.63708 98.9785H36.2646C36.3931 98.9783 36.5205 99.0034 36.6393 99.0524C36.7582 99.1013 36.8662 99.1732 36.9572 99.2639C37.0482 99.3546 37.1204 99.4623 37.1696 99.5808C37.2189 99.6994 37.2442 99.8265 37.2442 99.9548C37.2442 100.083 37.2189 100.21 37.1696 100.329C37.1204 100.447 37.0482 100.555 36.9572 100.646C36.8662 100.736 36.7582 100.808 36.6393 100.857C36.5205 100.906 36.3931 100.931 36.2646 100.931Z" fill="#CCCCCC"/>
<path d="M58.1289 138.064V127.539C58.1292 127.248 58.2453 126.968 58.4515 126.762C58.6578 126.557 58.9374 126.441 59.2291 126.44H68.1628C68.4545 126.441 68.7342 126.557 68.9404 126.762C69.1467 126.968 69.2627 127.248 69.263 127.539V138.064C69.2627 138.355 69.1467 138.634 68.9404 138.84C68.7342 139.046 68.4545 139.162 68.1628 139.162H59.2291C58.9374 139.162 58.6578 139.046 58.4515 138.84C58.2453 138.634 58.1292 138.355 58.1289 138.064Z" fill="#E6E6E6"/>
<path d="M61.347 134.559V124.034C61.3473 123.743 61.4633 123.464 61.6696 123.258C61.8759 123.052 62.1555 122.936 62.4472 122.936H71.3809C71.6726 122.936 71.9523 123.052 72.1585 123.258C72.3648 123.464 72.4808 123.743 72.4811 124.034V134.559C72.4808 134.85 72.3648 135.129 72.1585 135.335C71.9523 135.541 71.6726 135.657 71.3809 135.657H62.4472C62.1555 135.657 61.8759 135.541 61.6696 135.335C61.4633 135.129 61.3473 134.85 61.347 134.559Z" fill="#3629B7"/>
<path d="M101.394 131.191C101.058 130.997 100.769 130.732 100.546 130.415C100.324 130.097 100.174 129.734 100.107 129.353C100.04 128.971 100.058 128.579 100.159 128.205C100.26 127.831 100.442 127.483 100.693 127.187L97.9236 106.979L103.692 107.262L104.598 126.972C105.068 127.425 105.356 128.034 105.407 128.685C105.458 129.336 105.268 129.982 104.873 130.502C104.478 131.022 103.906 131.38 103.265 131.507C102.624 131.634 101.958 131.522 101.394 131.191V131.191Z" fill="#A0616A"/>
<path d="M104.484 107.532C104.365 107.671 104.214 107.778 104.043 107.843L98.8594 109.818C98.599 109.917 98.3105 109.913 98.0531 109.806C97.7958 109.7 97.5892 109.498 97.4759 109.244L92.8839 98.9417C92.443 97.986 92.368 96.9022 92.6729 95.8951C92.8984 95.1762 93.314 94.5314 93.8758 94.0286C94.4376 93.5258 95.1248 93.1836 95.8651 93.0381C96.4345 92.9211 97.0225 92.9293 97.5883 93.0623C98.2663 93.2132 98.8959 93.5305 99.4202 93.9854C99.9444 94.4404 100.347 95.0187 100.591 95.668L104.674 106.442C104.742 106.624 104.761 106.821 104.727 107.013C104.694 107.205 104.61 107.384 104.484 107.532Z" fill="#CCCCCC"/>
<path d="M77.4701 180.513H73.8834L72.583 166.637L77.4707 166.702L77.4701 180.513Z" fill="#A0616A"/>
<path d="M71.3216 179.489H78.2387V183.837H66.9664C66.9664 183.266 67.0791 182.701 67.2979 182.173C67.5168 181.646 67.8376 181.166 68.242 180.763C68.6464 180.359 69.1266 180.039 69.6549 179.82C70.1833 179.602 70.7497 179.489 71.3216 179.489Z" fill="#2F2E41"/>
<path d="M94.1457 180.512H90.559L88.8528 166.701L94.1463 166.701L94.1457 180.512Z" fill="#A0616A"/>
<path d="M87.9972 179.489H94.9142V183.837H83.642C83.642 183.266 83.7546 182.701 83.9735 182.173C84.1923 181.646 84.5131 181.166 84.9176 180.763C85.322 180.359 85.8021 180.039 86.3305 179.82C86.8589 179.602 87.4252 179.489 87.9972 179.489Z" fill="#2F2E41"/>
<path d="M94.5968 175.599L88.9636 175.183C88.6433 175.159 88.3427 175.019 88.1185 174.789C87.8943 174.559 87.7618 174.256 87.7459 173.935L86.4899 148.02C86.4778 147.772 86.3752 147.536 86.2014 147.357C86.0275 147.179 85.7944 147.07 85.5457 147.051C85.297 147.032 85.0499 147.104 84.8507 147.254C84.6516 147.403 84.514 147.621 84.464 147.865L79.224 173.393C79.1591 173.707 78.9816 173.987 78.7248 174.179C78.468 174.372 78.1496 174.464 77.8294 174.439L72.7373 174.033C72.5628 174.019 72.3928 173.97 72.2373 173.89C72.0818 173.81 71.9439 173.699 71.8317 173.565C71.7195 173.431 71.6352 173.276 71.5838 173.109C71.5324 172.941 71.5149 172.766 71.5323 172.592L76.2563 125.431C76.2748 125.246 76.3321 125.068 76.4244 124.907C76.5168 124.746 76.6421 124.607 76.7922 124.498C76.9423 124.389 77.1138 124.313 77.2954 124.275C77.477 124.237 77.6646 124.238 77.8459 124.277L95.8105 128.176C96.108 128.241 96.3738 128.407 96.5627 128.646C96.7517 128.884 96.8521 129.181 96.847 129.485L96.0103 174.313C96.0037 174.657 95.8626 174.984 95.6171 175.225C95.3716 175.466 95.0414 175.602 94.697 175.603C94.6638 175.603 94.6303 175.601 94.5968 175.599Z" fill="#2F2E41"/>
<path d="M89.6685 85.9981C93.6369 85.9981 96.854 82.7865 96.854 78.8247C96.854 74.863 93.6369 71.6514 89.6685 71.6514C85.7002 71.6514 82.4831 74.863 82.4831 78.8247C82.4831 82.7865 85.7002 85.9981 89.6685 85.9981Z" fill="#A0616A"/>
<path d="M78.52 129.068C77.829 128.449 77.2805 127.688 76.9122 126.838C76.5438 125.988 76.3644 125.068 76.3862 124.142C76.3862 113.832 85.3253 90.7973 85.6056 90.0786C85.6329 89.9054 85.8688 89.8307 87.1062 88.9962C88.3444 88.161 90.1298 88.0327 92.413 88.6148C92.645 88.6742 92.8564 88.7959 93.024 88.9668C93.1917 89.1376 93.3092 89.3511 93.3638 89.584L93.7885 90.1966C93.8254 90.352 93.8984 90.4965 94.0015 90.6186C94.1046 90.7406 94.2349 90.8368 94.382 90.8994C96.2232 91.6738 102.076 95.2447 100.081 108.684C98.2289 121.167 97.4771 128.509 97.2399 131.086C97.212 131.392 97.0775 131.679 96.8598 131.895C96.6422 132.112 96.3552 132.246 96.0488 132.274C95.1461 132.354 93.5967 132.462 91.7514 132.462C87.4739 132.462 81.6067 131.886 78.52 129.068Z" fill="#CCCCCC"/>
<path d="M69.9341 125.247C69.7632 124.899 69.6708 124.518 69.6634 124.131C69.6561 123.743 69.7339 123.359 69.8915 123.004C70.049 122.65 70.2825 122.335 70.5754 122.08C70.8683 121.826 71.2135 121.639 71.5867 121.532L80.566 103.212L85.1982 106.656L74.9489 123.526C75.0871 124.164 74.9862 124.83 74.6652 125.398C74.3442 125.967 73.8255 126.398 73.2074 126.61C72.5892 126.822 71.9146 126.801 71.3113 126.55C70.708 126.299 70.218 125.835 69.9341 125.247L69.9341 125.247Z" fill="#A0616A"/>
<path d="M85.7053 107.32C85.5296 107.369 85.3441 107.374 85.1662 107.333L79.7591 106.089C79.4876 106.027 79.2503 105.863 79.0962 105.631C78.9421 105.399 78.8828 105.117 78.9306 104.843L80.8681 93.7338C81.0354 92.695 81.578 91.7533 82.3934 91.0866C82.9818 90.6152 83.6868 90.3109 84.4339 90.2059C85.1811 90.1009 85.9428 90.1991 86.6387 90.4901C87.1768 90.7096 87.6604 91.0436 88.056 91.4688C88.5348 91.9712 88.8805 92.5849 89.0619 93.2544C89.2432 93.9238 89.2546 94.6278 89.0948 95.3027L86.4714 106.52C86.4268 106.71 86.3322 106.884 86.1975 107.024C86.0628 107.165 85.8928 107.267 85.7053 107.32Z" fill="#CCCCCC"/>
<path d="M87.9862 85.3059C87.6365 84.9497 87.3783 84.5144 87.2337 84.037C87.0891 83.5596 87.0623 83.0544 87.1556 82.5644C87.4062 81.2561 87.5533 80.4001 87.5812 80.0887C87.6766 79.0233 86.5978 78.1609 85.5304 78.0237C85.489 78.0183 85.4544 78.0147 85.4255 78.0124C85.4526 78.039 85.4819 78.0662 85.5075 78.0903C85.7102 78.2804 85.9626 78.5172 85.9026 78.7614C85.8665 78.9084 85.7319 79.0128 85.4911 79.08C83.8218 79.5464 82.5361 79.1182 81.4449 77.7317C81.1382 77.3378 80.9274 76.878 80.8291 76.3888C80.4382 74.4744 81.4797 72.8424 82.4223 71.8106C83.1995 70.9598 84.4595 69.9271 86.0482 69.8386C87.2838 69.7697 88.753 70.4795 89.1928 71.7587C89.4002 71.4518 89.6764 71.1973 89.9994 71.0155C90.3224 70.8337 90.6835 70.7296 91.0538 70.7113C91.8974 70.693 92.7276 70.9236 93.4406 71.374C96.9246 73.3664 98.422 78.1127 96.7104 81.7387C95.6337 84.0194 93.3009 85.7174 90.6224 86.1699C90.4547 86.1983 90.2849 86.2126 90.1148 86.2127C89.7172 86.2121 89.3238 86.1315 88.9581 85.9757C88.5923 85.8198 88.2618 85.5921 87.9862 85.3059Z" fill="#2F2E41"/>
<path d="M54.2917 184H111.34C111.417 184 111.492 183.969 111.546 183.915C111.601 183.86 111.632 183.786 111.632 183.708C111.632 183.631 111.601 183.556 111.546 183.502C111.492 183.447 111.417 183.416 111.34 183.416H54.2917C54.2141 183.416 54.1396 183.447 54.0848 183.502C54.0299 183.556 53.9991 183.631 53.9991 183.708C53.9991 183.786 54.0299 183.86 54.0848 183.915C54.1396 183.969 54.2141 184 54.2917 184Z" fill="#3F3D56"/>
</g>
<defs>
<clipPath id="clip0_434_118">
<rect width="176" height="184" fill="white"/>
</clipPath>
</defs>
</svg>
