<svg width="169" height="184" viewBox="0 0 169 176" fill="none" xmlns="http://www.w3.org/2000/svg">
<g clip-path="url(#clip0_434_84)">
<path d="M160.156 164.002C160.156 170.628 124.304 176 80.0781 176C35.8517 176 0 170.628 0 164.002C0 159.311 17.9711 155.247 44.1618 153.276C54.962 152.461 67.1648 152.004 80.0781 152.004C85.3865 152.004 90.5735 152.081 95.59 152.228C132.392 153.312 160.156 158.171 160.156 164.002Z" fill="#3F3D56"/>
<path opacity="0.1" d="M69.7454 166.453C86.7225 166.453 100.485 164.778 100.485 162.712C100.485 160.646 86.7225 158.971 69.7454 158.971C52.7684 158.971 39.0058 160.646 39.0058 162.712C39.0058 164.778 52.7684 166.453 69.7454 166.453Z" fill="black"/>
<path d="M69.6163 165.421C85.666 165.421 98.6768 151.559 98.6768 134.459C98.6768 117.359 85.666 103.496 69.6163 103.496C53.5665 103.496 40.5557 117.359 40.5557 134.459C40.5557 151.559 53.5665 165.421 69.6163 165.421Z" fill="#3F3D56"/>
<path d="M78.7865 152.778H60.7043V169.292H78.7865V152.778Z" fill="#3629B7"/>
<path d="M102.422 156.777L101.389 162.454L108.105 163.486L112.497 160.906L112.238 156.777H102.422Z" fill="#575A89"/>
<path d="M68.583 50.2142C68.583 50.2142 68.0664 56.1487 66.7748 56.4068C65.4832 56.6648 69.6163 66.9856 69.6163 66.9856H75.8159L80.7239 65.6955L78.399 60.0191C78.399 60.0191 75.2992 55.8907 77.6241 52.5364C79.9489 49.1821 68.583 50.2142 68.583 50.2142Z" fill="#A0616A"/>
<path opacity="0.1" d="M68.583 50.2142C68.583 50.2142 68.0664 56.1487 66.7748 56.4068C65.4832 56.6648 69.6163 66.9856 69.6163 66.9856H75.8159L80.7239 65.6955L78.399 60.0191C78.399 60.0191 75.2992 55.8907 77.6241 52.5364C79.9489 49.1821 68.583 50.2142 68.583 50.2142Z" fill="black"/>
<path d="M55.6672 95.6258C55.6672 95.6258 48.9509 108.527 54.3756 111.107C59.8002 113.687 61.0918 113.429 61.0918 114.203C61.0918 114.977 60.0585 114.719 60.5752 116.01C61.0918 117.3 59.5419 122.46 61.0918 125.556C62.6417 128.653 62.1251 130.975 62.1251 130.975C62.1251 130.975 62.1251 131.233 62.6417 132.265C63.1583 133.297 63.4167 134.071 63.1583 134.587C62.9 135.103 61.3501 138.457 62.9 139.231C64.4499 140.006 72.4577 140.522 73.2327 139.231C74.0076 137.941 72.4577 137.167 73.2327 136.393C74.0076 135.619 74.5243 135.361 74.0076 134.845C73.491 134.329 72.9744 127.879 72.9744 127.879C72.9744 127.879 74.2659 120.396 73.7493 119.364C73.2327 118.332 72.4577 117.3 72.9744 116.526C73.491 115.752 74.0076 116.01 74.2659 114.977C74.5243 113.945 75.0409 111.623 75.0409 111.623L77.8824 111.365L84.5986 112.655C84.5986 112.655 92.0898 120.912 100.356 123.492C100.356 123.492 102.681 125.814 103.456 125.814C104.231 125.814 104.231 125.814 103.972 126.33C103.714 126.846 102.939 126.846 103.456 127.362C103.972 127.879 104.747 127.104 104.231 127.879C103.714 128.653 103.197 128.653 103.714 129.169C104.231 129.685 103.456 132.523 103.456 132.781C103.456 133.039 101.131 157.293 101.906 157.809C102.681 158.325 113.53 159.873 114.305 157.809C115.08 155.745 113.788 153.165 113.788 153.165C113.788 153.165 117.663 122.202 116.63 120.138C115.597 118.074 111.98 108.785 92.6064 102.85C92.6064 102.85 87.1818 101.818 87.1818 101.044C87.1818 100.27 86.6651 95.3678 85.6319 95.1098C84.5986 94.8518 78.6573 94.5938 78.6573 94.5938L71.1662 96.9159L60.8335 95.1098L55.6672 95.6258Z" fill="#2F2E41"/>
<path d="M64.7082 138.974L63.4167 143.619C63.4167 143.619 62.3834 151.101 63.675 152.907C64.6895 154.326 66.5009 156.063 69.8602 156.368C70.8017 156.454 71.7445 156.217 72.5326 155.695C73.3207 155.174 73.9069 154.399 74.1944 153.499C74.2329 153.392 74.257 153.279 74.266 153.165C74.266 152.649 73.491 146.457 73.491 146.457L72.1994 140.006L71.9411 138.2L64.7082 138.974Z" fill="#2F2E41"/>
<path d="M102.422 161.163C102.422 161.163 101.131 159.873 100.873 161.163C100.614 162.453 99.5809 167.872 101.389 168.13C103.197 168.388 120.505 170.968 122.313 169.936C124.121 168.904 127.479 167.356 125.413 166.582C123.346 165.808 117.405 163.486 117.405 163.486C117.405 163.486 114.047 159.099 113.53 158.841C113.013 158.583 110.172 159.099 108.88 160.131C107.589 161.163 102.422 161.163 102.422 161.163Z" fill="#2F2E41"/>
<path d="M74.7826 55.6331C79.2052 55.6331 82.7904 52.052 82.7904 47.6344C82.7904 43.2169 79.2052 39.6357 74.7826 39.6357C70.36 39.6357 66.7748 43.2169 66.7748 47.6344C66.7748 52.052 70.36 55.6331 74.7826 55.6331Z" fill="#A0616A"/>
<path d="M74.0076 65.6955L70.9078 62.3412L67.4718 55.6326C67.4718 55.6326 64.9666 54.8586 64.4499 56.1487C63.9333 57.4388 54.6339 61.5671 54.6339 61.5671C54.6339 61.5671 56.9587 83.241 55.9255 85.3051C54.8922 87.3693 53.084 95.626 54.6339 96.4001C56.1838 97.1741 63.4167 96.4001 65.7415 97.4321C68.0663 98.4642 74.7826 98.4642 76.5908 97.1741C78.399 95.884 78.9156 94.8519 80.7238 95.626C82.2632 96.285 85.8619 73.7558 86.898 67.0421C86.9853 66.4782 86.9128 65.9012 86.6888 65.3763C86.4647 64.8515 86.098 64.3998 85.6302 64.0723C83.3124 62.4484 79.138 59.65 78.399 60.019C77.3657 60.5351 74.0076 65.6955 74.0076 65.6955Z" fill="#575A89"/>
<path d="M85.1152 64.6641C85.7218 64.8155 86.2675 65.1488 86.6789 65.619C87.0904 66.0893 87.3479 66.6741 87.417 67.2948L89.5066 86.0799C89.5066 86.0799 84.3403 97.1748 81.7571 89.6922C79.174 82.2095 85.1152 64.6641 85.1152 64.6641Z" fill="#575A89"/>
<path d="M84.5986 87.886L90.2816 86.3379C90.2816 86.3379 91.3148 93.5625 92.3481 93.5625C93.3814 93.5625 88.7317 97.6908 86.4068 97.1748C84.082 96.6588 80.7239 94.8526 80.4655 93.5625C80.2072 92.2724 82.7904 86.8539 82.7904 86.8539L84.5986 87.886Z" fill="#575A89"/>
<path d="M68.7375 51.085C69.2821 49.8857 69.1875 48.4868 69.6377 47.2491C69.8787 46.5863 70.2699 45.9882 70.7807 45.5015C71.2914 45.0148 71.9079 44.6526 72.582 44.4432C73.2561 44.2338 73.9695 44.183 74.6666 44.2946C75.3636 44.4062 76.0253 44.6773 76.6001 45.0867C77.1792 45.4991 77.7598 46.0786 78.4666 45.9998C79.2278 45.915 79.9067 45.0668 80.6066 45.3777C81.3822 45.7222 81.1727 47.1107 81.9586 47.4315C82.3722 47.6003 82.861 47.3403 83.0996 46.963C83.3082 46.5664 83.4219 46.1269 83.4317 45.679C83.5402 44.5785 83.6382 43.4138 83.1603 42.4163C82.9594 42.0782 82.7842 41.7255 82.6364 41.361C82.5528 41.0207 82.5193 40.6701 82.5368 40.3201C82.5324 39.0266 82.4379 37.6774 81.7862 36.5596C81.063 35.3193 79.7263 34.5262 78.3317 34.1801C76.9371 33.834 75.476 33.8871 74.0441 34.0082C71.6771 34.2083 69.2086 34.6374 67.3438 36.1072C67.0903 36.2921 66.8721 36.5211 66.6997 36.7831C66.536 37.0943 66.4203 37.4285 66.3566 37.7742C65.9534 39.4143 65.3489 40.9982 64.5568 42.4901C64.1757 43.1226 63.8643 43.7944 63.628 44.4938C63.4302 45.2045 63.4436 46.0144 63.8576 46.6253C64.1946 47.1226 64.7334 47.3876 65.1568 47.7942C65.5762 48.1971 65.7725 48.9719 66.2372 49.277C66.6428 49.5433 67.1287 49.3553 67.5424 49.6376C68.0736 50 68.1119 50.7946 68.7375 51.085Z" fill="#2F2E41"/>
<path d="M75.2992 69.5657L76.0741 68.0176C76.0741 68.0176 87.4401 71.3719 89.7649 74.4681C89.7649 74.4681 95.4479 70.8558 98.5477 71.3719L101.647 71.8879L92.0898 80.4026L79.9489 79.3705L75.2992 69.5657Z" fill="#F2F2F2"/>
<path d="M74.7826 68.0176L64.1916 82.7248L79.4323 90.2074C79.4323 90.2074 80.8571 90.9815 81.9529 90.2074L92.0898 85.563L101.647 71.8879L92.0898 76.7903C92.0898 76.7903 91.0565 74.7261 88.99 75.7582L74.7826 68.0176Z" fill="#3629B7"/>
<path d="M91.0565 94.0786L93.123 88.6601C93.123 88.6601 97.7727 82.7256 95.1896 79.8874C92.6064 77.0492 89.7649 88.1441 89.7649 88.1441L91.0565 94.0786Z" fill="#A0616A"/>
<path d="M67.2133 93.2132L71.7225 89.5617C71.7225 89.5617 78.7255 86.7583 77.9166 83.0086C77.1077 79.2589 69.0769 87.4324 69.0769 87.4324L67.2133 93.2132Z" fill="#A0616A"/>
<path opacity="0.1" d="M56.0547 67.115H55.7963C55.7963 67.115 51.7924 62.3416 51.0175 68.7922C50.2425 75.2427 47.6594 96.6585 54.3756 97.4326C61.0918 98.2066 65.8707 94.2073 65.8707 94.2073C65.8707 94.2073 70.7787 86.7247 68.9705 86.7247C68.0956 86.7247 65.7161 86.3322 63.5458 86.4667C61.2306 86.6101 59.1503 87.2616 59.2836 86.5957C59.5419 85.3056 63.2875 68.9212 56.0547 67.115Z" fill="black"/>
<path d="M55.6672 62.0834L54.6339 61.5674C54.6339 61.5674 50.5008 62.3414 49.7259 68.792C48.9509 75.2425 46.3678 96.6583 53.084 97.4324C59.8002 98.2064 68.8413 96.4003 68.8413 96.4003C68.8413 96.4003 70.6495 86.5955 68.8413 86.5955C67.0331 86.5955 57.7337 87.8856 57.992 86.5955C58.2503 85.3054 62.9 63.8896 55.6672 62.0834Z" fill="#575A89"/>
<path d="M87.3109 91.1108L90.1594 86.75L91.9606 93.9491L87.3109 96.0132V91.1108Z" fill="#575A89"/>
<path d="M28.7953 28.9273C32.6473 28.9273 35.7699 25.8083 35.7699 21.9607C35.7699 18.1132 32.6473 14.9941 28.7953 14.9941C24.9434 14.9941 21.8208 18.1132 21.8208 21.9607C21.8208 25.8083 24.9434 28.9273 28.7953 28.9273Z" fill="#F2F2F2"/>
<path d="M37.0615 73.8232H20.5292V90.3366H37.0615V73.8232Z" fill="#F2F2F2"/>
<path d="M96.0937 0L100.278 7.23931L104.462 14.4786H96.0937H87.725L91.9092 7.23931L96.0937 0Z" fill="#F2F2F2"/>
<path d="M169 43.4067C168.9 46.4953 168.147 48.9709 166.741 50.8335C165.335 52.6963 163.664 53.6278 161.729 53.6279C160.153 53.6279 158.772 52.7164 157.585 50.8933C156.398 49.0702 155.805 46.2659 155.805 42.4802C155.805 41.6434 155.825 40.8464 155.865 40.0893C155.905 39.3323 155.954 38.6151 156.014 37.9375L157.062 28.1048H150.15C148.953 40.5376 147.971 47.9345 147.203 50.2956C146.435 52.6566 145.133 53.8371 143.298 53.8372C142.47 53.8168 141.679 53.4861 141.084 52.9107C140.739 52.6051 140.466 52.2267 140.285 51.8029C140.103 51.3791 140.019 50.9204 140.037 50.4599C140.037 49.5438 140.76 48.2636 142.206 46.6195C143.652 44.9757 144.455 43.4764 144.615 42.1216L146.41 28.1048H143.508C142.689 28.1097 141.884 28.3094 141.159 28.6875C140.491 28.9938 139.91 29.4611 139.468 30.0474L138.182 31.9601H137.134C138.112 28.9318 139.313 26.6554 140.74 25.1311C142.166 23.6068 143.806 22.8447 145.662 22.8447H168.521V28.1048H160.802C160.562 30.4957 160.378 32.8866 160.248 35.2775C160.118 37.6685 160.053 40.0694 160.054 42.4802C160.054 44.1142 160.433 45.4392 161.191 46.4552C161.949 47.4713 162.896 47.9794 164.033 47.9793C164.731 47.9793 165.464 47.6954 166.232 47.1275C166.597 46.872 166.902 46.5407 167.127 46.1564C167.352 45.7721 167.49 45.3439 167.534 44.9011C167.594 44.463 167.639 44.1193 167.669 43.8699C167.698 43.6211 167.713 43.4666 167.713 43.4067L169 43.4067Z" fill="#3629B7"/>
<path opacity="0.1" d="M169 43.4067C168.9 46.4953 168.147 48.9709 166.741 50.8335C165.335 52.6963 163.664 53.6278 161.729 53.6279C160.153 53.6279 158.772 52.7164 157.585 50.8933C156.398 49.0702 155.805 46.2659 155.805 42.4802C155.805 41.6434 155.825 40.8464 155.865 40.0893C155.905 39.3323 155.954 38.6151 156.014 37.9375L157.062 28.1048H150.15C148.953 40.5376 147.971 47.9345 147.203 50.2956C146.435 52.6566 145.133 53.8371 143.298 53.8372C142.47 53.8168 141.679 53.4861 141.084 52.9107C140.739 52.6051 140.466 52.2267 140.285 51.8029C140.103 51.3791 140.019 50.9204 140.037 50.4599C140.037 49.5438 140.76 48.2636 142.206 46.6195C143.652 44.9757 144.455 43.4764 144.615 42.1216L146.41 28.1048H143.508C142.689 28.1097 141.884 28.3094 141.159 28.6875C140.491 28.9938 139.91 29.4611 139.468 30.0474L138.182 31.9601H137.134C138.112 28.9318 139.313 26.6554 140.74 25.1311C142.166 23.6068 143.806 22.8447 145.662 22.8447H168.521V28.1048H160.802C160.562 30.4957 160.378 32.8866 160.248 35.2775C160.118 37.6685 160.053 40.0694 160.054 42.4802C160.054 44.1142 160.433 45.4392 161.191 46.4552C161.949 47.4713 162.896 47.9794 164.033 47.9793C164.731 47.9793 165.464 47.6954 166.232 47.1275C166.597 46.872 166.902 46.5407 167.127 46.1564C167.352 45.7721 167.49 45.3439 167.534 44.9011C167.594 44.463 167.639 44.1193 167.669 43.8699C167.698 43.6211 167.713 43.4666 167.713 43.4067L169 43.4067Z" fill="black"/>
<path d="M169 42.4731C168.9 45.5617 168.147 48.0373 166.741 49.8999C165.335 51.7627 163.664 52.6942 161.729 52.6943C160.153 52.6943 158.772 51.7828 157.585 49.9597C156.398 48.1366 155.805 45.3323 155.805 41.5466C155.805 40.7098 155.825 39.9128 155.865 39.1557C155.905 38.3987 155.954 37.6815 156.014 37.0039L157.062 27.1712H150.15C148.953 39.604 147.971 47.0009 147.203 49.362C146.435 51.723 145.133 52.9035 143.298 52.9036C142.47 52.8832 141.679 52.5525 141.084 51.9771C140.739 51.6715 140.466 51.2931 140.285 50.8693C140.103 50.4455 140.019 49.9868 140.037 49.5263C140.037 48.6102 140.76 47.33 142.206 45.6859C143.652 44.0421 144.455 42.5428 144.615 41.188L146.41 27.1712H143.508C142.689 27.1761 141.884 27.3758 141.159 27.7539C140.491 28.0602 139.91 28.5275 139.468 29.1138L138.182 31.0265H137.134C138.112 27.9982 139.313 25.7218 140.74 24.1975C142.166 22.6732 143.806 21.9111 145.662 21.9111H168.521V27.1712H160.802C160.562 29.5621 160.378 31.953 160.248 34.3439C160.118 36.7349 160.053 39.1358 160.054 41.5466C160.054 43.1806 160.433 44.5056 161.191 45.5216C161.949 46.5377 162.896 47.0458 164.033 47.0458C164.731 47.0458 165.464 46.7618 166.232 46.194C166.597 45.9384 166.902 45.6071 167.127 45.2229C167.352 44.8386 167.49 44.4103 167.534 43.9675C167.594 43.5294 167.639 43.1857 167.669 42.9364C167.698 42.6875 167.713 42.533 167.713 42.4731H169Z" fill="#3629B7"/>
</g>
<defs>
<clipPath id="clip0_434_84">
<rect width="169" height="176" fill="white"/>
</clipPath>
</defs>
</svg>
