<svg width="21" height="21" viewBox="0 0 21 21" fill="none" xmlns="http://www.w3.org/2000/svg">
<path d="M10.08 0C7.40662 0 4.84273 1.062 2.95236 2.95236C1.062 4.84273 0 7.40662 0 10.08C0 12.7534 1.062 15.3173 2.95236 17.2076C4.84273 19.098 7.40662 20.16 10.08 20.16C12.7534 20.16 15.3173 19.098 17.2076 17.2076C19.098 15.3173 20.16 12.7534 20.16 10.08C20.16 7.40662 19.098 4.84273 17.2076 2.95236C15.3173 1.062 12.7534 0 10.08 0ZM15.8268 13.7532L13.752 15.828L10.08 12.1548L6.4068 15.8268L4.332 13.752L8.0064 10.08L4.3332 6.4068L6.408 4.3332L10.08 8.0052L13.7532 4.332L15.828 6.4068L12.1536 10.08L15.8268 13.7532Z" fill="#F75842"/>
</svg>
