<svg viewBox="0 0 985 473" fill="none" xmlns="http://www.w3.org/2000/svg">
<g clip-path="url(#clip0_434_235)">
<path d="M143.878 470.491C144.128 470.977 144.382 471.464 144.639 471.954L918.241 471.717C918.241 471.717 918.61 471.319 919.286 470.536C919.3 470.522 919.314 470.505 919.328 470.491C939.383 447.325 957.599 413.066 965.337 379.202C976.619 330.163 967.086 282.055 935.739 237.704C901.238 188.887 854.132 150.113 794.392 150.882H794.336C762.475 151.308 731.976 163.025 705.283 180.946C679.914 197.978 635.937 180.181 609.419 161.925C578.365 140.631 552.073 109.467 531.857 77.6688C460.465 -34.3712 292.671 -14.5822 213.408 69.7342C171.328 114.423 154.78 175.063 172.599 244.916C175.943 258.029 177.812 271.695 177.024 285.259C172.807 359.18 94.8675 375.592 143.875 470.491H143.878Z" fill="#F2F2F2"/>
<g opacity="0.5">
<path d="M172.606 244.913C174.011 250.422 175.067 255.671 175.809 260.683C176.366 264.459 176.749 268.1 176.971 271.621L176.982 271.85H480.544V69.7344H213.415C209.863 73.5061 206.473 77.4187 203.252 81.4794C170.73 122.425 155.47 177.742 172.606 244.916V244.913Z" fill="#3F3D56"/>
<path d="M172.606 244.913C174.011 250.422 175.067 255.671 175.809 260.683H467.924V81.4756H203.252C170.73 122.421 155.47 177.738 172.606 244.913Z" fill="#CCCCCC"/>
<path d="M177.031 285.256C177.281 280.987 177.277 276.525 176.985 271.847L176.975 271.618H487.915C494.251 271.618 499.405 276.719 499.591 283.078C499.591 283.198 499.598 283.314 499.598 283.434V285.256H177.031Z" fill="#CCCCCC"/>
</g>
<path d="M740.154 162.27V199.032H840.034V158.329C839.369 158.097 838.703 157.871 838.038 157.653C837.742 157.554 837.447 157.459 837.147 157.364C836.288 157.085 835.43 156.817 834.571 156.56C821.039 152.478 807.589 150.712 794.392 150.881H794.336C778.805 151.089 763.626 153.98 749.074 158.943C748.211 159.232 747.356 159.535 746.5 159.842C746.201 159.947 745.906 160.057 745.606 160.166C744.941 160.409 744.279 160.659 743.614 160.91C743.42 160.984 743.223 161.058 743.033 161.132C742.069 161.502 741.108 161.882 740.15 162.274L740.154 162.27Z" fill="#CCCCCC"/>
<path d="M743.04 161.128V195.366H837.154V157.364C836.295 157.085 835.436 156.817 834.578 156.56C821.046 152.478 807.596 150.712 794.399 150.881H794.342C778.812 151.089 763.633 153.98 749.081 158.943C748.218 159.232 747.363 159.535 746.507 159.842C746.208 159.947 745.912 160.057 745.613 160.166C744.948 160.409 744.286 160.659 743.621 160.91C743.427 160.984 743.23 161.058 743.04 161.132V161.128Z" fill="#3F3D56"/>
<path d="M745.613 160.162V192.091H834.578V156.56C821.046 152.478 807.596 150.712 794.399 150.881H794.343C778.812 151.089 763.633 153.98 749.081 158.943C748.218 159.232 747.363 159.535 746.507 159.842C746.208 159.947 745.912 160.057 745.613 160.166V160.162Z" fill="#CCCCCC"/>
<path d="M512.415 73.999V201.055H612.299V163.871C611.341 163.24 610.38 162.591 609.416 161.925C608.561 161.34 607.702 160.741 606.843 160.127C583.096 143.264 557.899 117.691 533.965 80.9431C533.261 79.861 532.557 78.7683 531.857 77.665C531.082 76.4524 530.311 75.2327 529.544 73.999H512.419H512.415Z" fill="#CCCCCC"/>
<path d="M515.302 77.6647V197.385H609.416V161.921C608.561 161.336 607.702 160.737 606.843 160.123C583.096 143.26 557.899 117.687 533.965 80.9393C533.261 79.8572 532.557 78.7644 531.857 77.6611H515.302V77.6647Z" fill="#3F3D56"/>
<path d="M517.878 80.9434V194.111H606.843V160.127C583.096 143.264 557.899 117.691 533.965 80.9434H517.878Z" fill="#CCCCCC"/>
<path d="M452.83 250.531C452.83 250.531 462.461 246.84 468.016 251.493C473.571 256.15 477.379 280.112 475.475 284.582C473.57 289.051 468.016 291.716 468.016 291.716C468.016 291.716 469.181 289.083 468.755 287.035C468.755 287.035 467.167 292.21 462.936 293.2C458.705 294.191 443.635 292.968 440.721 291.716C437.352 290.271 435.43 288.78 434.585 284.582C433.74 280.384 430.347 243.146 452.83 250.531Z" fill="#B5493F"/>
<path d="M406.223 470.448C406.301 470.459 406.375 470.466 406.445 470.466C407.043 470.466 407.568 470.103 407.691 469.574L421.796 408.494V408.487L422.828 404.039L418.005 403.827L416.428 412.153L405.551 469.609C405.48 470.004 405.776 470.381 406.227 470.448H406.223Z" fill="#E5BD9E"/>
<path d="M477.928 404.039L480.252 414.092L493.065 469.571C493.188 470.099 493.713 470.462 494.311 470.462C494.385 470.462 494.455 470.459 494.533 470.445C494.98 470.378 495.279 470.001 495.209 469.606L483.613 408.353L482.754 403.827L477.932 404.039H477.928Z" fill="#E5BD9E"/>
<path d="M477.928 404.039L480.252 414.092C480.586 410.014 483.613 408.357 483.613 408.357L482.754 403.831L477.932 404.043L477.928 404.039Z" fill="#CC9E7F"/>
<path d="M416.428 412.153C418.811 408.635 421.705 408.628 421.796 408.494V408.487L422.828 404.039L418.005 403.827L416.428 412.153Z" fill="#CC9E7F"/>
<path d="M487.517 404.479H417.65C414.2 404.479 411.398 401.673 411.398 398.219V393.192C411.398 389.734 414.2 386.928 417.653 386.928H487.521C490.97 386.928 493.776 389.734 493.776 393.192V398.222C493.776 401.677 490.974 404.482 487.524 404.482L487.517 404.479Z" fill="#3629B7"/>
<path d="M428.129 366.268C430.199 354.728 436.239 341.583 436.239 341.583C431.857 323.183 436.331 302.492 436.331 302.492C438.711 301.84 441.189 301.385 443.684 301.085C443.991 299.443 444.878 294.504 445.254 290.253C445.297 289.76 445.332 289.273 445.364 288.805C445.437 287.596 445.452 286.489 445.378 285.59L448.468 285.794L461.187 286.644L461.729 286.679C461.729 286.679 461.651 287.821 461.63 289.541C461.591 292.636 461.743 297.585 462.848 301.135C468.318 301.702 472.025 302.502 472.025 302.502C475.605 303.116 474.855 325.439 468.16 342.789C465.08 350.776 473.782 363.142 473.782 366.265C473.782 369.388 427.383 370.435 428.133 366.265L428.129 366.268Z" fill="#FFB27D"/>
<path d="M445.251 290.25C446.444 291.656 449.458 294.681 453.294 294.748C458.29 294.836 461.623 289.542 461.623 289.542C461.525 288.442 461.377 287.479 461.18 286.641L448.461 285.791C447.124 286.958 446.015 288.093 445.357 288.801C445.325 289.27 445.29 289.753 445.247 290.25H445.251Z" fill="#EF9E67"/>
<path d="M453.386 291.755C460.307 291.755 465.97 286.027 465.97 279.027V268.42C465.97 263.704 462.155 259.848 457.494 259.848H449.862C445.202 259.848 441.386 263.704 441.386 268.42V279.615C441.386 286.292 446.786 291.755 453.386 291.755Z" fill="#FFB27D"/>
<path d="M457.536 283.852C457.536 283.852 457.276 285.534 453.192 285.594C453.192 285.594 449.764 285.643 449.732 283.817C449.732 283.817 452.946 282.27 457.54 283.852H457.536Z" fill="white"/>
<path d="M487.591 386.924C487.591 386.924 479.125 367.104 471.374 363.23C463.623 359.356 432.762 362.796 428.125 366.268C423.493 369.74 417.572 386.924 417.572 386.924H487.591Z" fill="#22356B"/>
<path d="M479.871 386.925C479.871 386.925 476.851 375.035 470.135 374.517C463.418 373.999 454.453 380.287 451.267 378.592C448.081 376.9 441.998 372.656 436.352 373.738C430.706 374.816 422.212 386.925 422.212 386.925H479.875H479.871Z" fill="#1B2E59"/>
<path d="M443.047 461.029L451.038 461.6C451.038 461.6 455.523 448.921 460.528 434.113C460.993 432.727 461.472 431.324 461.943 429.907C466.087 417.556 470.325 404.443 472.497 396.322C473.014 394.376 473.405 392.61 473.68 391.003C476.098 376.967 469.871 375.423 468.382 375.056C466.724 374.651 456.723 369.279 449.926 387.376C447.631 393.474 443.903 410.439 444.019 426.495C444.132 441.949 443.044 461.026 443.044 461.026L443.047 461.029Z" fill="#FFB27D"/>
<path d="M460.525 434.113C460.989 432.728 461.468 431.325 461.94 429.908C466.083 417.556 470.321 404.443 472.493 396.322C473.011 394.376 473.401 392.61 473.676 391.003C473.468 391.574 460.067 427.951 448.623 430.042C441.28 431.385 451.869 433.069 460.525 434.113Z" fill="#EF9E67"/>
<path d="M443.047 461.03L451.059 462.796L453.101 463.25C453.101 463.25 456.403 446.44 461.943 429.908C461.943 429.908 457.374 430.334 451.45 428.886C449.348 428.371 447.081 427.624 444.783 426.538C443.146 443.641 443.047 461.026 443.047 461.026V461.03Z" fill="#E9F3FE"/>
<path d="M451.056 462.795L453.097 463.249C453.097 463.249 456.399 446.439 461.94 429.907C461.94 429.907 457.371 430.334 451.446 428.885C451.446 428.885 454.132 453.679 451.056 462.795Z" fill="#C7DCF2"/>
<path d="M441.259 465.481C441.154 465.862 441.058 466.214 440.981 466.528C440.801 467.247 441.249 467.966 441.96 468.121L451.27 470.141C451.95 470.292 452.64 469.862 452.795 469.172C452.935 468.541 453.03 467.941 453.094 467.37C453.312 465.516 453.196 464.039 453.094 463.246C453.045 462.851 452.823 462.499 452.481 462.298C448.173 459.76 444.987 460.165 443.801 460.468C443.484 460.546 443.206 460.747 443.04 461.029C442.238 462.379 441.646 464.103 441.256 465.481H441.259Z" fill="#22356B"/>
<path d="M443.487 460.803C443.487 460.803 445.022 459.175 448.218 459.51C451.411 459.852 452.636 462.471 452.647 462.499L453.066 463.077C453.006 462.95 451.753 459.362 448.268 458.995C444.8 458.629 443.111 460.959 443.04 461.033L443.484 460.803H443.487Z" fill="#22356B"/>
<path d="M441.259 465.481C441.154 465.862 441.058 466.215 440.981 466.528C440.801 467.247 441.249 467.967 441.96 468.122L451.27 470.141C451.95 470.293 452.64 469.863 452.795 469.172C452.935 468.541 453.03 467.942 453.094 467.371C453.094 467.371 452.024 469.366 446.374 468.058C442.963 467.265 441.71 466.197 441.256 465.485L441.259 465.481Z" fill="#22356B"/>
<path d="M414.182 351.171L427.087 351.386C428.076 349.116 429.798 341.545 431.501 336.977C430.868 339.768 430.245 342.648 429.664 345.479C427.386 356.466 425.661 366.804 425.932 369.018C426.545 374.059 446.018 371.789 451.038 370.576C456.058 369.357 467.47 372.138 476.601 371.961C481.853 371.863 480.241 357.072 477.928 344.545C477.379 341.541 476.781 338.661 476.228 336.148C479.178 342.084 480.516 349.405 481.234 351.383C481.234 351.383 493.839 350.558 493.843 350.526C494.269 348.27 489.524 312.591 479.868 305.301C479.868 305.301 474.422 300.352 465.967 301.505C465.967 301.505 462.792 307.212 453.632 307.646C444.473 308.079 439.598 301.724 439.598 301.724C439.598 301.724 431.948 301.918 428.858 305.301C425.816 308.64 418.941 320.832 414.182 351.168V351.171Z" fill="#2B478B"/>
<path d="M425.933 369.019C426.545 374.059 446.018 371.789 451.038 370.577C456.058 369.357 467.47 372.138 476.601 371.962C481.853 371.863 480.241 357.073 477.928 344.545C477.928 344.545 468.033 362.067 455.699 361.947C443.364 361.828 429.667 345.483 429.667 345.483C427.39 356.47 425.665 366.808 425.936 369.022L425.933 369.019Z" fill="#233F77"/>
<path d="M462.105 297.79C462.105 297.79 457.814 306.316 453.632 307.645C453.632 307.645 459.578 309.919 468.244 301.332C468.244 301.332 466.523 297.881 462.105 297.786V297.79Z" fill="#E6F1FF"/>
<path d="M444.086 297.79C444.086 297.79 449.454 306.317 453.632 307.646C453.632 307.646 446.786 310.416 438.119 301.83C438.119 301.83 439.668 297.882 444.086 297.79Z" fill="#E6F1FF"/>
<path d="M454.231 307.621C454.231 307.24 453.925 306.93 453.548 306.93C453.171 306.93 452.865 307.24 452.865 307.621C452.865 308.001 453.171 308.311 453.548 308.311C453.925 308.311 454.231 308.001 454.231 307.621Z" fill="#35488B"/>
<path d="M454.931 325.154C454.931 324.428 454.351 323.839 453.632 323.839C452.914 323.839 452.333 324.428 452.333 325.154C452.333 325.88 452.914 326.468 453.632 326.468C454.351 326.468 454.931 325.88 454.931 325.154Z" fill="#233F77"/>
<path d="M454.931 346.226C454.931 345.5 454.351 344.911 453.632 344.911C452.914 344.911 452.333 345.5 452.333 346.226C452.333 346.952 452.914 347.541 453.632 347.541C454.351 347.541 454.931 346.952 454.931 346.226Z" fill="#233F77"/>
<path d="M416.463 385.652L416.428 381.986C416.428 381.986 411.422 350.847 414.886 349.884C418.354 348.922 424.88 352.235 424.88 352.235L422.828 381.986C422.849 382.687 422.983 383.375 423.127 384.009C423.215 384.03 423.299 384.048 423.384 384.073C426.788 385.053 424.743 392.134 422.205 392.258C420.343 392.349 417.935 389.526 416.301 388.556C415.59 388.133 415.802 386.152 416.46 385.652H416.463Z" fill="#EF9E67"/>
<path d="M427.087 351.383C427.087 351.383 427.893 355.771 425.904 356.413C423.915 357.054 413.76 357.375 413.123 356.413C412.489 355.45 413.373 348.083 414.886 347.54C416.403 346.998 426.144 349.01 427.087 351.383Z" fill="#233F77"/>
<path d="M483.441 352.235L485.493 381.986H491.893C491.893 381.986 496.898 350.847 493.435 349.884C489.967 348.922 483.441 352.235 483.441 352.235Z" fill="#FFB27D"/>
<path d="M492.016 388.557C492.727 388.134 492.516 386.153 491.858 385.652C490.281 384.45 487.387 383.368 484.933 384.073C481.53 385.053 483.575 392.135 486.113 392.258C487.975 392.35 490.383 389.526 492.016 388.557Z" fill="#FFB27D"/>
<path d="M491.893 381.986L491.847 387.034C491.027 386.956 486.394 388.705 484.958 386.784C484.395 386.033 485.433 384.055 485.497 381.99C485.683 375.797 491.896 381.99 491.896 381.99L491.893 381.986Z" fill="#FFB27D"/>
<path d="M481.234 351.383C481.234 351.383 480.428 355.771 482.416 356.413C484.405 357.054 494.561 357.375 495.198 356.413C495.832 355.45 494.948 348.083 493.435 347.54C491.917 346.998 482.181 349.01 481.234 351.383Z" fill="#233F77"/>
<path d="M452.027 261.525C452.027 261.525 450.137 268.346 445.251 270.274C445.251 270.274 447.504 266.34 446.712 264.416C446.712 264.416 444.547 272.121 441.386 274.768C441.386 274.768 436.88 258.797 449.732 257.997C462.584 257.193 467.741 264.017 467.818 268.91C467.896 273.806 465.97 277.578 465.97 277.578C465.97 277.578 464.566 268.508 458.934 265.861C453.301 263.214 452.031 261.525 452.031 261.525H452.027Z" fill="#B5493F"/>
<path d="M438.686 429.929C443.815 446.997 449.246 463.109 449.246 463.109L458.395 461.206C458.395 461.206 457.452 446.341 457.17 429.862C457.149 428.554 457.001 427.24 456.91 425.921C456.072 413.482 455.062 400.633 454.048 392.692C451.538 373.181 443.868 374.38 442.181 374.648C440.495 374.915 429.224 373.837 429.808 393.185C430.002 399.47 434.226 415.064 438.686 429.926V429.929Z" fill="#FFB27D"/>
<path d="M457.17 429.862C457.086 428.558 457.001 427.239 456.91 425.921C456.072 413.481 455.062 400.633 454.048 392.691C454.048 392.691 455.252 426.7 444.082 430.503C436.697 433.024 448.402 431.307 457.17 429.862Z" fill="#EF9E67"/>
<path d="M438.686 429.929C441.597 439.622 444.607 448.999 446.666 455.298C448.233 460.095 449.246 463.109 449.246 463.109L458.979 461.304C458.979 461.304 458.272 446.246 456.23 427.147C454.977 427.898 452.052 428.871 446.025 429.463C443.959 429.671 441.534 429.837 438.686 429.929Z" fill="#E9F3FE"/>
<path d="M449.208 468.534C449.25 468.929 449.292 469.289 449.334 469.609C449.433 470.343 450.109 470.847 450.827 470.723L460.215 469.102C460.901 468.986 461.384 468.33 461.275 467.628C461.173 466.99 461.042 466.395 460.891 465.841C460.412 464.04 459.764 462.711 459.381 462.013C459.191 461.668 458.853 461.421 458.466 461.361C453.534 460.624 450.725 462.193 449.732 462.923C449.468 463.113 449.282 463.406 449.232 463.73C448.986 465.284 449.067 467.11 449.208 468.534Z" fill="#35488B"/>
<path d="M449.56 463.353C449.567 463.332 450.387 461.262 453.478 460.378C456.568 459.496 458.666 461.467 458.687 461.488L459.289 461.865C459.187 461.77 456.706 458.908 453.337 459.874C449.982 460.836 449.268 463.635 449.232 463.726L449.56 463.349V463.353Z" fill="#35488B"/>
<path d="M449.208 468.535C449.25 468.93 449.292 469.289 449.334 469.61C449.433 470.343 450.109 470.847 450.827 470.724L460.215 469.102C460.902 468.986 461.384 468.33 461.275 467.629C461.173 466.991 461.042 466.395 460.891 465.842C460.891 465.842 460.627 468.094 454.903 469.004C451.446 469.55 449.891 469.028 449.208 468.535Z" fill="#35488B"/>
<path d="M674.468 470.741C674.468 470.741 674.542 461.235 670.381 460.487C666.217 459.74 660.187 457.456 659.342 470.741H674.468Z" fill="#22356B"/>
<path d="M643.684 470.741C643.684 470.741 643.758 461.235 639.597 460.487C635.437 459.74 629.403 457.456 628.558 470.741H643.688H643.684Z" fill="#22356B"/>
<path d="M681.392 369.297C681.392 369.297 685.046 377.239 686.158 387.204H627.393C627.393 387.204 632.776 369.794 637.602 367.869C642.428 365.945 681.392 369.297 681.392 369.297Z" fill="#1B2E59"/>
<path d="M669.491 283.8C669.491 283.8 674.961 276.271 678.572 270.225C682.881 263.01 680.47 251.409 664.777 248.949C664.777 248.949 659.733 247.867 658.296 246.517C658.296 246.517 658.37 248.399 658.824 248.899C658.824 248.899 646.317 247.257 645.42 252.876C642.674 270.077 645.881 276.359 645.881 276.359L669.491 283.796V283.8Z" fill="#28235C"/>
<path d="M609.662 470.727C609.74 470.737 609.81 470.741 609.884 470.741C610.483 470.741 611.007 470.378 611.13 469.849L625.239 408.769H625.242L626.267 404.317L621.444 404.105L619.867 412.431L608.99 469.888C608.916 470.283 609.215 470.66 609.662 470.727Z" fill="#E5BD9E"/>
<path d="M681.367 404.317L683.687 414.37L696.5 469.849C696.624 470.378 697.148 470.741 697.747 470.741C697.817 470.741 697.891 470.738 697.968 470.727C698.415 470.66 698.715 470.283 698.644 469.888L687.049 408.635L686.19 404.109L681.367 404.321V404.317Z" fill="#E5BD9E"/>
<path d="M681.367 404.317L683.687 414.37C684.022 410.292 687.049 408.635 687.049 408.635L686.19 404.109L681.367 404.321V404.317Z" fill="#CC9E7F"/>
<path d="M619.867 412.432C622.25 408.914 625.144 408.907 625.239 408.773H625.242L626.267 404.321L621.444 404.109L619.867 412.435V412.432Z" fill="#CC9E7F"/>
<path d="M690.956 404.754H621.089C617.635 404.754 614.833 401.948 614.833 398.49V393.464C614.833 390.006 617.635 387.2 621.089 387.2H690.956C694.409 387.2 697.211 390.006 697.211 393.464V398.49C697.211 401.948 694.409 404.754 690.956 404.754Z" fill="#A03530"/>
<path d="M631.568 366.548C633.638 355.007 639.679 341.863 639.679 341.863C635.296 323.463 639.77 302.771 639.77 302.771C642.15 302.119 644.628 301.664 647.124 301.365C647.43 299.722 648.317 294.784 648.694 290.533C648.736 290.039 648.771 289.553 648.803 289.084C648.873 287.875 648.891 286.768 648.817 285.869L651.908 286.074L664.622 286.923L665.164 286.958C665.164 286.958 665.087 288.1 665.066 289.821C665.027 292.915 665.178 297.864 666.284 301.414C671.754 301.982 675.461 302.782 675.461 302.782C679.041 303.395 678.291 325.718 671.596 343.068C668.516 351.056 677.217 363.421 677.217 366.544C677.217 369.667 630.822 370.714 631.568 366.544V366.548Z" fill="#FFB27D"/>
<path d="M648.69 290.529C649.884 291.936 652.897 294.96 656.734 295.027C661.729 295.115 665.062 289.821 665.062 289.821C664.964 288.721 664.816 287.759 664.619 286.92L651.904 286.07C650.566 287.237 649.458 288.372 648.799 289.081C648.768 289.549 648.732 290.036 648.69 290.529Z" fill="#EF9E67"/>
<path d="M655.171 291.506C661.961 292.852 668.607 288.337 669.941 281.467L671.958 271.058C672.856 266.429 669.846 261.903 665.273 260.994L657.786 259.506C653.21 258.597 648.736 261.642 647.838 266.267L645.708 277.254C644.438 283.804 648.697 290.219 655.174 291.502L655.171 291.506Z" fill="#FFB27D"/>
<path d="M660.75 284.561C660.75 284.561 660.173 286.161 656.156 285.421C656.156 285.421 652.78 284.801 653.097 283.003C653.097 283.003 656.543 282.111 660.75 284.561Z" fill="white"/>
<path d="M614.129 357.986L625.214 352.385L628.551 350.696C629.541 348.426 632.878 341.323 634.944 337.256C634.479 339.29 634.022 341.373 633.585 343.452C633.42 344.224 633.261 344.993 633.103 345.761C630.829 356.749 629.104 367.087 629.372 369.301C629.984 374.341 649.457 372.071 654.477 370.859C659.497 369.639 670.909 372.424 680.04 372.241C685.289 372.145 683.68 357.351 681.367 344.824C680.818 341.817 680.22 338.941 679.667 336.427C682.617 342.367 685.666 348.634 686.38 350.612L692.667 353.957L699.616 357.654L699.795 357.753C699.809 357.725 699.82 357.693 699.824 357.658C700.246 355.37 692.583 313.103 682.937 305.817C682.937 305.817 682.994 305.302 682.409 304.886C680.533 303.568 675.841 300.91 669.406 301.784C669.406 301.784 666.227 307.491 657.071 307.925C647.912 308.358 643.037 302.003 643.037 302.003C643.037 302.003 638.556 302.116 635.071 303.684C634.001 304.164 633.022 304.784 632.297 305.581C629.252 308.919 614.443 337.552 614.129 357.982V357.986Z" fill="#3629B7"/>
<path d="M628.069 350.178C628.069 350.178 643.79 367.171 651.45 372.889L649.007 377.968C649.007 377.968 624.722 368.673 614.471 355.627L628.069 350.181V350.178Z" fill="#E8945B"/>
<path d="M649.471 371.698C649.471 371.698 655.938 373.531 656.99 375.561C658.043 377.592 657.599 383.404 655.97 382.438C654.34 381.472 645.339 375.491 645.339 375.491L649.471 371.694V371.698Z" fill="#E8945B"/>
<path d="M665.545 298.069C665.545 298.069 661.253 306.596 657.072 307.925C657.072 307.925 663.017 310.198 671.684 301.612C671.684 301.612 669.962 298.161 665.545 298.065V298.069Z" fill="#E6F1FF"/>
<path d="M647.525 298.069C647.525 298.069 652.893 306.596 657.071 307.925C657.071 307.925 650.052 310.198 641.386 301.612C641.386 301.612 643.111 298.161 647.525 298.065V298.069Z" fill="#E6F1FF"/>
<path d="M686.331 350.178C686.331 350.178 669.969 366.54 662.095 371.951L664.341 377.122C664.341 377.122 687.552 369.142 698.296 356.512L686.331 350.178Z" fill="#FFB27D"/>
<path d="M667.949 370.513C667.949 370.513 661.246 370.975 659.81 372.748C658.37 374.521 657.638 380.302 659.427 379.692C661.218 379.082 671.233 375.078 671.233 375.078L667.949 370.51V370.513Z" fill="#FFB27D"/>
<path d="M658.37 325.429C658.37 324.703 657.789 324.114 657.071 324.114C656.353 324.114 655.772 324.703 655.772 325.429C655.772 326.155 656.353 326.744 657.071 326.744C657.789 326.744 658.37 326.155 658.37 325.429Z" fill="#3629B7"/>
<path d="M658.37 346.505C658.37 345.779 657.789 345.19 657.071 345.19C656.353 345.19 655.772 345.779 655.772 346.505C655.772 347.231 656.353 347.82 657.071 347.82C657.789 347.82 658.37 347.231 658.37 346.505Z" fill="#3629B7"/>
<path d="M671.962 271.06C671.962 271.06 671.582 266.82 668.906 266.154C666.231 265.487 656.265 269.069 654.139 266.139C652.013 263.21 650.369 261.994 648.922 263.46C647.476 264.927 648.497 254.662 648.849 254.514C649.201 254.366 671.384 255.607 671.384 255.607L676.654 261.233L676.383 267.641L671.965 271.064L671.962 271.06Z" fill="#28235C"/>
<path d="M656.406 461.89C656.406 461.89 660.159 463.463 665.854 463.508C669.23 463.533 673.296 463.022 677.671 461.319C677.671 461.319 680.956 438.037 682.92 418.121C684.032 406.796 684.722 396.559 684.134 392.315C682.515 380.609 677.249 373.845 670.606 374.409C663.96 374.969 657.747 379.629 657.283 385.28C656.818 390.93 656.406 461.894 656.406 461.894V461.89Z" fill="#2B478B"/>
<path d="M677.217 327.583L679.667 336.427C682.353 344.376 685.666 348.634 686.38 350.611L692.667 353.956L699.616 357.654H699.827C700.774 352.983 692.956 312.87 683.307 305.584C683.307 305.584 682.997 305.302 682.409 304.886C679.298 310.825 673.577 323.177 677.217 327.583Z" fill="#E6F1FF"/>
<path d="M681.392 353.855L684.497 356.594L692.509 363.651C696.941 363.302 700.14 357.986 700.14 357.986C698.574 355.452 696.187 353.608 693.808 352.293C689.819 350.087 685.859 349.371 685.859 349.371L681.396 353.855H681.392Z" fill="#E6F1FF"/>
<path d="M681.392 353.855L684.497 356.594C689.876 356.551 693.804 352.293 693.804 352.293C689.816 350.087 685.856 349.371 685.856 349.371L681.392 353.855Z" fill="#C7DCF2"/>
<path d="M635.071 303.688C634.001 304.167 632.74 304.717 632.015 305.513C631.033 306.592 628.967 310.399 626.411 315.63C621.061 326.585 614.341 344.161 614.129 357.986L620.606 354.711L625.214 352.384L628.551 350.696C630.519 347.46 633.216 341.496 634.944 337.255C634.479 339.289 634.022 341.373 633.585 343.452L638.394 325.433C640.53 322.25 636.018 306.814 635.071 303.688Z" fill="#E6F1FF"/>
<path d="M614.133 357.985C614.133 357.985 617.336 363.301 621.764 363.65L630.871 355.624L632.878 353.854L629.083 349.508C629.083 349.508 626.263 349.952 622.947 351.295C619.79 352.574 616.178 354.675 614.133 357.985Z" fill="#E6F1FF"/>
<path d="M622.947 351.295C622.947 351.295 627.224 355.085 630.871 355.627L632.878 353.858L629.083 349.512C629.083 349.512 626.263 349.956 622.947 351.299V351.295Z" fill="#C7DCF2"/>
<path d="M628.97 442.245C628.287 451.943 627.886 459.035 627.886 459.035C638.503 465.852 648.62 463.839 648.62 463.839C648.62 463.839 659.007 410.024 661.957 393.178C662.366 390.863 662.63 389.241 662.707 388.561C663.355 382.931 658.173 377.122 651.767 375.244C645.363 373.365 638.879 378.945 635.007 390.098C632.49 397.345 630.237 424.268 628.963 442.245H628.97Z" fill="#2B478B"/>
<path d="M628.97 442.245C628.287 451.942 627.886 459.035 627.886 459.035C638.503 465.852 648.62 463.839 648.62 463.839C648.62 463.839 659.007 410.024 661.957 393.178C661.908 391.472 661.876 390.461 661.873 390.33C661.739 391.395 655.456 440.5 628.967 442.245H628.97Z" fill="#233F77"/>
<path d="M665.854 463.508C669.23 463.533 673.296 463.022 677.671 461.319C677.671 461.319 680.956 438.037 682.92 418.121C682.807 418.671 675.996 452.144 665.854 463.508Z" fill="#233F77"/>
<path d="M626.411 315.63C621.061 326.585 613.563 343.583 614.129 357.985L620.607 354.711C620.469 354.584 620.314 354.464 620.142 354.337C613.535 349.554 626.091 316.451 626.408 315.63H626.411Z" fill="#C7DCF2"/>
<path d="M786.739 281.681C786.739 281.681 790.164 277.268 791.277 270.849C792.389 264.43 791.53 248.712 779.692 249.421C771.275 249.925 766.678 247.87 762.95 250.062C759.539 252.068 754.653 257.881 755.607 263.947C756.561 270.014 762.288 281.681 762.288 281.681H786.739Z" fill="#1B2E59"/>
<path d="M791.801 470.74C791.801 470.74 791.875 461.234 787.714 460.486C783.55 459.739 777.52 457.455 776.675 470.74H791.805H791.801Z" fill="#22356B"/>
<path d="M770.321 470.74C770.321 470.74 770.395 461.234 766.234 460.486C762.07 459.739 756.04 457.455 755.195 470.74H770.321Z" fill="#22356B"/>
<path d="M798.725 369.297C798.725 369.297 802.379 377.239 803.492 387.204H744.727C744.727 387.204 750.109 369.794 754.935 367.869C759.761 365.945 798.725 369.297 798.725 369.297Z" fill="#993530"/>
<path d="M726.996 470.727C727.073 470.737 727.143 470.741 727.217 470.741C727.816 470.741 728.34 470.378 728.463 469.849L742.572 408.769H742.576L743.6 404.317L738.777 404.105L737.2 412.431L726.323 469.888C726.249 470.283 726.548 470.66 726.996 470.727Z" fill="#E5BD9E"/>
<path d="M798.697 404.317L801.02 414.37L813.834 469.849C813.957 470.378 814.481 470.741 815.08 470.741C815.154 470.741 815.224 470.738 815.302 470.727C815.749 470.66 816.048 470.283 815.977 469.888L804.382 408.635L803.523 404.109L798.701 404.321L798.697 404.317Z" fill="#E5BD9E"/>
<path d="M798.697 404.317L801.02 414.37C801.355 410.292 804.382 408.635 804.382 408.635L803.523 404.109L798.701 404.321L798.697 404.317Z" fill="#CC9E7F"/>
<path d="M737.2 412.432C739.583 408.914 742.477 408.907 742.569 408.773H742.572L743.596 404.321L738.774 404.109L737.197 412.435L737.2 412.432Z" fill="#CC9E7F"/>
<path d="M808.286 404.754H738.418C734.965 404.754 732.163 401.948 732.163 398.49V393.464C732.163 390.006 734.965 387.2 738.418 387.2H808.286C811.736 387.2 814.538 390.006 814.538 393.46V398.49C814.538 401.945 811.736 404.75 808.286 404.75V404.754Z" fill="#842121"/>
<path d="M748.898 366.548C750.968 355.007 757.008 341.863 757.008 341.863C752.625 323.463 757.1 302.771 757.1 302.771C759.479 302.119 761.957 301.664 764.453 301.365C764.759 299.722 765.647 294.784 766.023 290.533C766.065 290.039 766.101 289.553 766.132 289.084C766.206 287.875 766.22 286.768 766.146 285.869L769.237 286.074L781.952 286.923L782.494 286.958C782.494 286.958 782.416 288.1 782.395 289.821C782.356 292.915 782.508 297.864 783.613 301.414C789.087 301.982 792.79 302.782 792.79 302.782C796.37 303.395 795.62 325.718 788.925 343.068C785.845 351.056 794.547 363.421 794.547 366.544C794.547 369.667 748.148 370.714 748.898 366.544V366.548Z" fill="#FFB27D"/>
<path d="M766.023 290.528C767.217 291.935 770.23 294.959 774.067 295.026C779.062 295.114 782.395 289.82 782.395 289.82C782.297 288.72 782.149 287.758 781.952 286.919L769.237 286.069C767.899 287.236 766.791 288.371 766.132 289.08C766.101 289.548 766.065 290.035 766.023 290.528Z" fill="#EF9E67"/>
<path d="M774.158 292.034C781.079 292.034 786.743 286.306 786.743 279.305V268.699C786.743 263.982 782.927 260.126 778.266 260.126H770.635C765.974 260.126 762.158 263.986 762.158 268.699V279.894C762.158 286.57 767.558 292.034 774.158 292.034Z" fill="#FFB27D"/>
<path d="M778.309 284.131C778.309 284.131 778.048 285.813 773.965 285.869C773.965 285.869 770.536 285.918 770.504 284.092C770.504 284.092 773.718 282.545 778.312 284.128L778.309 284.131Z" fill="white"/>
<path d="M731.463 357.986L742.548 352.385L745.885 350.696C746.874 348.426 750.211 341.323 752.277 337.256C751.813 339.29 751.355 341.373 750.918 343.452C750.753 344.224 750.595 344.993 750.436 345.761C748.162 356.749 746.437 367.087 746.705 369.301C747.317 374.341 766.791 372.071 771.81 370.859C776.83 369.639 788.242 372.424 797.374 372.241C802.622 372.145 801.013 357.351 798.701 344.824C798.152 341.817 797.553 338.941 797.004 336.427C799.954 342.367 803.002 348.634 803.717 350.612L810.004 353.957L816.956 357.654L817.136 357.753C817.153 357.725 817.16 357.693 817.164 357.658C817.586 355.37 810.293 312.87 800.644 305.584C800.644 305.584 800.334 305.302 799.746 304.886C797.87 303.568 793.178 300.91 786.743 301.784C786.743 301.784 783.568 307.491 774.408 307.925C765.249 308.358 760.374 302.003 760.374 302.003C760.374 302.003 755.892 302.116 752.407 303.684C751.337 304.164 750.362 304.784 749.634 305.581C746.589 308.919 731.779 337.552 731.466 357.982L731.463 357.986Z" fill="#28235C"/>
<path d="M745.402 350.178C745.402 350.178 761.123 367.171 768.783 372.889L766.34 377.968C766.34 377.968 742.055 368.673 731.804 355.627L745.402 350.181V350.178Z" fill="#E8945B"/>
<path d="M766.805 371.697C766.805 371.697 773.271 373.53 774.324 375.56C775.376 377.591 774.933 383.403 773.303 382.437C771.673 381.472 762.672 375.49 762.672 375.49L766.805 371.693V371.697Z" fill="#E8945B"/>
<path d="M782.878 298.069C782.878 298.069 778.586 306.596 774.405 307.925C774.405 307.925 780.35 310.198 789.017 301.612C789.017 301.612 787.292 298.161 782.878 298.065V298.069Z" fill="#233F77"/>
<path d="M764.855 298.069C764.855 298.069 770.223 306.596 774.401 307.925C774.401 307.925 767.382 310.198 758.716 301.612C758.716 301.612 760.437 298.161 764.855 298.065V298.069Z" fill="#233F77"/>
<path d="M803.664 350.178C803.664 350.178 787.303 366.54 779.428 371.951L781.674 377.122C781.674 377.122 804.886 369.142 815.629 356.512L803.668 350.178H803.664Z" fill="#FFB27D"/>
<path d="M785.282 370.513C785.282 370.513 778.58 370.975 777.143 372.748C775.704 374.521 774.972 380.302 776.76 379.692C778.552 379.082 788.566 375.078 788.566 375.078L785.282 370.51V370.513Z" fill="#FFB27D"/>
<path d="M775.704 325.429C775.704 324.703 775.123 324.114 774.405 324.114C773.687 324.114 773.106 324.703 773.106 325.429C773.106 326.155 773.687 326.744 774.405 326.744C775.123 326.744 775.704 326.155 775.704 325.429Z" fill="#3629B7"/>
<path d="M775.704 346.504C775.704 345.778 775.123 345.189 774.405 345.189C773.687 345.189 773.106 345.778 773.106 346.504C773.106 347.23 773.687 347.819 774.405 347.819C775.123 347.819 775.704 347.23 775.704 346.504Z" fill="#3629B7"/>
<path d="M786.739 268.702C786.739 268.702 785.556 264.617 782.807 264.483C780.058 264.349 770.958 269.806 768.315 267.345C765.671 264.885 763.827 264.011 762.686 265.731C761.546 267.451 760.592 257.179 760.908 256.964C761.225 256.749 783.23 253.647 783.23 253.647L789.471 258.142L790.421 264.483L786.736 268.702H786.739Z" fill="#1B2E59"/>
<path d="M773.74 461.889C773.74 461.889 777.492 463.462 783.187 463.507C786.563 463.532 790.629 463.021 795.005 461.318C795.005 461.318 798.289 438.036 800.253 418.12C801.366 406.795 802.055 396.558 801.468 392.314C799.848 380.608 794.582 373.844 787.94 374.408C781.294 374.968 775.081 379.628 774.616 385.279C774.151 390.929 773.74 461.893 773.74 461.893V461.889Z" fill="#3629B7"/>
<path d="M751.049 444.61C752.239 454.258 753.21 461.294 753.21 461.294C764.932 465.897 774.472 461.932 774.472 461.932C774.472 461.932 774.327 407.098 773.989 389.995C773.944 387.644 773.894 386.001 773.842 385.318C773.398 379.667 767.196 374.986 760.553 374.404C753.911 373.819 748.623 380.562 746.965 392.269C745.888 399.872 748.849 426.725 751.049 444.61Z" fill="#3629B7"/>
<path d="M794.55 327.583L797.001 336.427C799.95 342.366 802.999 348.634 803.713 350.611L810 353.956L816.953 357.654H817.16C817.583 355.37 810.289 312.87 800.64 305.584C800.64 305.584 800.33 305.302 799.743 304.886C796.631 310.825 790.911 323.177 794.55 327.583Z" fill="#35488B"/>
<path d="M798.725 353.854L801.83 356.593L809.842 363.65C814.274 363.301 817.47 357.985 817.47 357.985C815.904 355.451 813.517 353.607 811.137 352.292C807.149 350.086 803.189 349.37 803.189 349.37L798.725 353.854Z" fill="#35488B"/>
<path d="M798.725 353.854L801.83 356.593C807.209 356.55 811.137 352.292 811.137 352.292C807.149 350.086 803.189 349.37 803.189 349.37L798.725 353.854Z" fill="#233F77"/>
<path d="M731.463 357.986L737.94 354.711L742.548 352.384L745.885 350.696C746.874 348.426 750.211 341.323 752.277 337.255C751.813 339.289 751.355 341.373 750.918 343.452L755.727 325.433C757.864 322.25 753.351 306.814 752.404 303.688C751.334 304.167 750.359 304.787 749.63 305.584C748.648 306.663 746.434 310.385 743.878 315.616C743.878 315.616 743.878 315.626 743.878 315.63C738.528 326.585 731.677 344.161 731.47 357.986H731.463Z" fill="#35488B"/>
<path d="M731.466 357.985C731.466 357.985 734.669 363.301 739.094 363.65L748.201 355.624L750.211 353.854L746.416 349.508C746.416 349.508 743.596 349.952 740.28 351.295C737.123 352.574 733.511 354.675 731.466 357.985Z" fill="#35488B"/>
<path d="M740.277 351.295C740.277 351.295 744.554 355.085 748.201 355.627L750.211 353.858L746.416 349.512C746.416 349.512 743.597 349.956 740.281 351.299L740.277 351.295Z" fill="#233F77"/>
<path d="M751.049 444.611C752.238 454.258 753.21 461.294 753.21 461.294C764.932 465.898 774.472 461.932 774.472 461.932C774.472 461.932 774.327 407.098 773.989 389.995C773.616 388.332 773.391 387.348 773.359 387.218C773.433 388.289 776.696 437.695 751.049 444.607V444.611Z" fill="#28235C"/>
<path d="M783.187 463.508C786.563 463.533 790.629 463.022 795.004 461.319C795.004 461.319 798.289 438.037 800.253 418.121C800.14 418.671 793.329 452.144 783.187 463.508Z" fill="#28235C"/>
<path d="M743.871 315.63C738.521 326.585 731.67 344.161 731.463 357.985L737.94 354.711C737.802 354.584 737.648 354.464 737.475 354.337C730.868 349.554 743.554 316.451 743.871 315.63Z" fill="#233F77"/>
<path d="M252.017 470.727C252.094 470.738 252.165 470.745 252.239 470.745C252.837 470.745 253.361 470.382 253.485 469.853L267.59 408.773H267.597L268.621 404.321L263.799 404.109L262.222 412.435L251.344 469.892C251.271 470.286 251.57 470.664 252.02 470.731L252.017 470.727Z" fill="#E5BD9E"/>
<path d="M323.718 404.317L326.042 414.37L338.855 469.849C338.978 470.378 339.503 470.741 340.101 470.741C340.175 470.741 340.245 470.734 340.323 470.723C340.77 470.656 341.069 470.279 340.999 469.884L329.403 408.631L328.544 404.105L323.722 404.317H323.718Z" fill="#E5BD9E"/>
<path d="M323.718 404.317L326.042 414.37C326.376 410.292 329.403 408.635 329.403 408.635L328.544 404.109L323.722 404.321L323.718 404.317Z" fill="#CC9E7F"/>
<path d="M262.222 412.428C264.605 408.91 267.498 408.903 267.59 408.769H267.597L268.621 404.317L263.799 404.105L262.222 412.431V412.428Z" fill="#CC9E7F"/>
<path d="M333.311 404.754H263.443C259.993 404.754 257.188 401.948 257.188 398.49V393.464C257.188 390.006 259.99 387.2 263.443 387.2H333.311C336.76 387.2 339.562 390.006 339.562 393.46V398.49C339.562 401.945 336.76 404.75 333.311 404.75V404.754Z" fill="#3629B7"/>
<path d="M299.211 248.505C299.211 248.505 312.081 245.727 319.977 251.628C327.872 257.529 322.55 271.59 325.64 275.234C328.731 278.879 332.332 280.268 328.731 287.557C325.127 294.847 332.336 296.846 332.336 302.094C332.336 307.343 324.852 308.908 324.648 313.593C324.44 318.281 301.102 322.62 291.15 322.793C281.195 322.965 269.706 310.85 268.329 308.488C266.953 306.127 263.355 295.538 268.329 290.159C273.303 284.776 269.354 277.487 271.244 273.32C273.131 269.154 280.34 266.725 279.139 263.253C277.939 259.781 280.512 244.68 299.218 248.498L299.211 248.505Z" fill="#1B2E59"/>
<path d="M273.919 366.547C275.989 355.007 282.029 341.862 282.029 341.862C277.647 323.462 282.121 302.771 282.121 302.771C284.501 302.119 286.979 301.664 289.475 301.364C289.781 299.722 290.668 294.783 291.044 290.529C291.087 290.035 291.122 289.549 291.154 289.08C291.228 287.871 291.242 286.764 291.168 285.865L294.258 286.07L306.973 286.919L307.515 286.954C307.515 286.954 307.438 288.097 307.417 289.82C307.378 292.915 307.526 297.864 308.635 301.414C314.108 301.981 317.812 302.781 317.812 302.781C321.392 303.395 320.642 325.718 313.946 343.068C310.863 351.055 319.568 363.421 319.568 366.544C319.568 369.667 273.173 370.714 273.919 366.544V366.547Z" fill="#FFB27D"/>
<path d="M291.045 290.529C292.238 291.935 295.251 294.96 299.088 295.03C304.083 295.118 307.417 289.824 307.417 289.824C307.318 288.724 307.17 287.762 306.973 286.923L294.258 286.073C292.921 287.24 291.812 288.375 291.154 289.084C291.122 289.552 291.087 290.035 291.045 290.532V290.529Z" fill="#EF9E67"/>
<path d="M299.176 292.034C306.097 292.034 311.761 286.306 311.761 279.305V268.699C311.761 263.982 307.948 260.126 303.284 260.126H295.652C290.992 260.126 287.176 263.986 287.176 268.699V279.894C287.176 286.57 292.576 292.034 299.176 292.034Z" fill="#FFB27D"/>
<path d="M303.326 284.131C303.326 284.131 303.066 285.813 298.982 285.869C298.982 285.869 295.554 285.918 295.522 284.092C295.522 284.092 298.736 282.545 303.33 284.128L303.326 284.131Z" fill="white"/>
<path d="M298.733 256.658C298.733 256.658 299.827 269.806 311.412 272.611C322.997 275.417 312.894 250.418 305.072 252.329C297.254 254.239 298.733 256.658 298.733 256.658Z" fill="#1B2E59"/>
<path d="M300.116 256.658C300.116 256.658 299.021 269.806 287.436 272.611C275.852 275.417 285.958 250.418 293.776 252.329C301.594 254.239 300.116 256.658 300.116 256.658Z" fill="#1B2E59"/>
<path d="M333.385 387.204C333.385 387.204 324.919 367.383 317.167 363.509C309.416 359.635 278.555 363.075 273.919 366.548C269.287 370.02 263.366 387.204 263.366 387.204H333.385Z" fill="#22356B"/>
<path d="M325.661 387.204C325.661 387.204 322.641 375.314 315.925 374.796C309.208 374.278 300.243 380.566 297.057 378.871C293.871 377.179 287.788 372.935 282.142 374.017C276.496 375.096 268.002 387.204 268.002 387.204H325.665H325.661Z" fill="#1B2E59"/>
<path d="M295.54 462.105L303.552 462.211C303.552 462.211 307.304 449.292 311.454 434.216C311.842 432.806 312.236 431.378 312.626 429.936C316.055 417.366 319.54 404.024 321.244 395.79C321.652 393.816 321.941 392.029 322.12 390.411C323.733 376.259 317.431 375.081 315.921 374.799C314.242 374.493 303.949 369.713 298.201 388.176C296.261 394.401 293.505 411.554 294.54 427.578C295.536 443 295.54 462.108 295.54 462.108V462.105Z" fill="#FFB27D"/>
<path d="M276.806 428.484C280.143 446.003 283.881 462.598 283.881 462.598L293.178 461.675C293.178 461.675 293.776 446.793 295.198 430.373C295.311 429.069 295.3 427.747 295.346 426.425C295.8 413.965 296.124 401.081 295.934 393.076C295.455 373.407 287.7 373.788 285.997 373.876C284.293 373.964 273.194 371.697 271.775 391.003C271.318 397.274 273.908 413.228 276.806 428.484Z" fill="#FFB27D"/>
<path d="M311.454 434.212C311.841 432.803 312.236 431.375 312.626 429.933C316.055 417.363 319.54 404.021 321.244 395.787C321.652 393.813 321.941 392.026 322.12 390.408C321.944 390.993 310.645 428.09 299.338 430.846C292.083 432.616 302.752 433.68 311.451 434.216L311.454 434.212Z" fill="#EF9E67"/>
<path d="M295.195 430.377C295.248 429.07 295.297 427.751 295.343 426.429C295.797 413.969 296.121 401.085 295.93 393.08C295.93 393.08 293.614 427.029 282.11 429.634C274.507 431.357 286.321 430.888 295.191 430.377H295.195Z" fill="#EF9E67"/>
<path d="M276.806 428.484C278.699 438.432 280.724 448.076 282.118 454.558C283.177 459.493 283.878 462.599 283.878 462.599L293.741 461.834C293.741 461.834 294.596 446.782 294.54 427.571C293.216 428.185 290.207 428.84 284.149 428.794C282.075 428.784 279.643 428.692 276.802 428.481L276.806 428.484Z" fill="#E9F3FE"/>
<path d="M282.117 454.562C283.177 459.497 283.877 462.602 283.877 462.602L293.741 461.837C293.741 461.837 295.374 446.285 295.318 427.074C293.994 427.688 290.203 428.844 284.149 428.798C284.149 428.798 288.359 448.488 282.114 454.562H282.117Z" fill="#C7DCF2"/>
<path d="M283.23 467.832C283.23 468.227 283.233 468.594 283.244 468.915C283.265 469.655 283.888 470.226 284.613 470.18L294.118 469.56C294.815 469.517 295.36 468.915 295.321 468.206C295.286 467.561 295.219 466.955 295.124 466.387C294.836 464.544 294.325 463.155 294.019 462.418C293.864 462.055 293.554 461.773 293.174 461.674C288.345 460.42 285.391 461.685 284.328 462.305C284.046 462.467 283.828 462.739 283.747 463.056C283.339 464.575 283.233 466.401 283.226 467.832H283.23Z" fill="#35488B"/>
<path d="M284.113 462.714C284.124 462.697 285.152 460.723 288.316 460.17C291.481 459.62 293.364 461.802 293.382 461.826L293.942 462.267C293.85 462.161 291.678 459.052 288.228 459.658C284.793 460.261 283.793 462.968 283.747 463.056L284.113 462.714Z" fill="#35488B"/>
<path d="M283.23 467.833C283.23 468.228 283.233 468.594 283.244 468.915C283.265 469.655 283.888 470.226 284.613 470.181L294.118 469.56C294.815 469.518 295.36 468.915 295.321 468.207C295.286 467.562 295.219 466.955 295.124 466.388C295.124 466.388 294.632 468.601 288.844 468.897C285.349 469.074 283.856 468.393 283.226 467.829L283.23 467.833Z" fill="#22356B"/>
<path d="M295.54 462.105L303.64 463.402L305.702 463.737C305.702 463.737 308.04 446.761 312.626 429.936C312.626 429.936 308.089 430.627 302.094 429.531C299.968 429.14 297.662 428.526 295.304 427.578C294.646 444.748 295.54 462.108 295.54 462.108V462.105Z" fill="#E9F3FE"/>
<path d="M303.64 463.402L305.702 463.737C305.702 463.737 308.04 446.761 312.626 429.937C312.626 429.937 308.089 430.628 302.094 429.531C302.094 429.531 306.192 454.128 303.64 463.406V463.402Z" fill="#C7DCF2"/>
<path d="M294.012 466.656C293.928 467.043 293.854 467.399 293.794 467.717C293.656 468.443 294.142 469.137 294.86 469.25L304.273 470.723C304.96 470.836 305.621 470.364 305.738 469.666C305.84 469.028 305.903 468.422 305.935 467.847C306.047 465.982 305.847 464.516 305.702 463.73C305.628 463.342 305.389 462.997 305.037 462.817C300.591 460.536 297.434 461.125 296.265 461.499C295.955 461.594 295.684 461.812 295.536 462.105C294.815 463.501 294.318 465.256 294.008 466.652L294.012 466.656Z" fill="#35488B"/>
<path d="M295.969 461.855C295.969 461.855 297.409 460.138 300.616 460.29C303.823 460.445 305.195 462.986 305.21 463.014L305.66 463.564C305.593 463.441 304.139 459.93 300.637 459.768C297.156 459.602 295.6 462.027 295.536 462.108L295.966 461.855H295.969Z" fill="#35488B"/>
<path d="M294.012 466.655C293.928 467.043 293.854 467.399 293.794 467.716C293.656 468.442 294.142 469.137 294.86 469.25L304.273 470.723C304.96 470.836 305.621 470.364 305.738 469.666C305.84 469.028 305.903 468.421 305.935 467.847C305.935 467.847 304.981 469.898 299.264 468.925C295.814 468.333 294.501 467.343 294.008 466.655H294.012Z" fill="#22356B"/>
<path d="M256.484 357.986L267.569 352.381L270.906 350.692C271.895 348.422 275.232 341.32 277.295 337.252C276.661 340.044 276.038 342.924 275.457 345.758C273.18 356.745 271.459 367.083 271.726 369.297C272.339 374.338 291.812 372.068 296.832 370.855C301.851 369.635 313.264 372.417 322.395 372.24C327.647 372.142 326.035 357.351 323.722 344.823C323.169 341.82 322.574 338.94 322.022 336.427C324.972 342.363 328.02 348.634 328.735 350.611L335.022 353.953L342.153 357.749C342.167 357.718 342.178 357.686 342.185 357.654C342.611 355.398 335.317 312.87 325.665 305.577C325.665 305.577 320.219 300.628 311.764 301.781C311.764 301.781 308.589 307.487 299.43 307.921C290.27 308.355 285.395 301.999 285.395 301.999C285.395 301.999 277.745 302.193 274.655 305.577C271.613 308.915 256.801 337.544 256.491 357.982L256.484 357.986Z" fill="#3629B7"/>
<path d="M271.723 369.297C272.335 374.338 291.808 372.067 296.828 370.855C301.848 369.635 313.26 372.416 322.391 372.24C327.643 372.141 326.031 357.351 323.718 344.823C323.718 344.823 313.823 362.346 301.485 362.226C289.151 362.106 275.454 345.761 275.454 345.761C273.176 356.748 271.455 367.087 271.723 369.3V369.297Z" fill="#28235C"/>
<path d="M270.244 350.611C270.244 350.611 288.89 364.246 297.49 368.377L296.054 373.834C296.054 373.834 269.325 368.476 256.797 357.658L270.244 350.611Z" fill="#E8945B"/>
<path d="M297.486 368.377C297.486 368.377 303.904 366.368 305.875 367.496C307.85 368.624 310.595 373.753 308.705 373.834C306.818 373.919 296.047 373.834 296.047 373.834L297.483 368.377H297.486Z" fill="#E8945B"/>
<path d="M307.899 298.069C307.899 298.069 303.608 306.596 299.426 307.925C299.426 307.925 305.371 310.198 314.038 301.612C314.038 301.612 312.313 298.161 307.899 298.065V298.069Z" fill="#E6F1FF"/>
<path d="M322.018 336.427C324.968 342.363 328.016 348.634 328.731 350.612L335.018 353.953C335.416 353.802 335.75 353.495 336 352.991C337.89 349.174 322.018 336.424 322.018 336.424V336.427Z" fill="#28235C"/>
<path d="M290.062 297.998C290.062 297.998 295.244 306.595 299.426 307.928C299.426 307.928 292.688 310.688 284.022 302.101C284.022 302.101 285.645 298.093 290.062 298.002V297.998Z" fill="#E6F1FF"/>
<path d="M265.861 351.821C266.442 352.149 267.016 352.336 267.569 352.385L270.906 350.696C271.895 348.426 275.232 341.324 277.295 337.256C277.295 337.256 261.482 349.346 265.861 351.821Z" fill="#28235C"/>
<path d="M328.735 350.611C328.735 350.611 310.088 364.246 301.489 368.377L302.925 373.834C302.925 373.834 329.653 368.476 342.182 357.658L328.735 350.611Z" fill="#FFB27D"/>
<path d="M301.489 368.377C301.489 368.377 295.072 366.368 293.1 367.496C291.125 368.624 288.38 373.753 290.27 373.834C292.157 373.919 302.928 373.834 302.928 373.834L301.492 368.377H301.489Z" fill="#FFB27D"/>
<path d="M323.743 353.855L326.848 356.594L334.86 363.651C339.291 363.302 342.491 357.986 342.491 357.986C340.925 355.452 338.538 353.608 336.159 352.293C332.17 350.087 328.21 349.371 328.21 349.371L323.747 353.855H323.743Z" fill="#E6F1FF"/>
<path d="M256.484 357.986C256.484 357.986 259.687 363.301 264.116 363.65L273.222 355.624L275.232 353.855L271.437 349.505C271.437 349.505 268.618 349.949 265.302 351.292C262.144 352.572 258.533 354.672 256.487 357.982L256.484 357.986Z" fill="#E6F1FF"/>
<path d="M265.298 351.295C265.298 351.295 269.575 355.084 273.222 355.627L275.232 353.858L271.437 349.508C271.437 349.508 268.618 349.952 265.302 351.295H265.298Z" fill="#C7DCF2"/>
<path d="M323.743 353.855L326.848 356.594C332.227 356.551 336.155 352.293 336.155 352.293C332.167 350.087 328.207 349.371 328.207 349.371L323.743 353.855Z" fill="#C7DCF2"/>
<path d="M300.024 307.896C300.024 307.515 299.718 307.205 299.341 307.205C298.965 307.205 298.659 307.515 298.659 307.896C298.659 308.277 298.965 308.587 299.341 308.587C299.718 308.587 300.024 308.277 300.024 307.896Z" fill="#35488B"/>
<path d="M300.725 325.429C300.725 324.703 300.144 324.114 299.426 324.114C298.708 324.114 298.127 324.703 298.127 325.429C298.127 326.155 298.708 326.744 299.426 326.744C300.144 326.744 300.725 326.155 300.725 325.429Z" fill="#A53D38"/>
<path d="M300.725 346.505C300.725 345.779 300.144 345.19 299.426 345.19C298.708 345.19 298.127 345.779 298.127 346.505C298.127 347.231 298.708 347.82 299.426 347.82C300.144 347.82 300.725 347.231 300.725 346.505Z" fill="#A53D38"/>
<path d="M563.566 248.211C563.566 248.211 579.731 244.834 582.772 258.772C585.293 270.32 573.169 285.184 573.169 285.184H551.693C551.693 285.184 527.686 245.367 563.57 248.215L563.566 248.211Z" fill="#1B2E59"/>
<path d="M515.326 470.726C515.404 470.737 515.474 470.744 515.548 470.744C516.147 470.744 516.671 470.381 516.794 469.852L530.903 408.772H530.906L531.931 404.32L527.108 404.108L525.531 412.434L514.654 469.891C514.58 470.285 514.879 470.663 515.326 470.73V470.726Z" fill="#E5BD9E"/>
<path d="M587.028 404.316L589.351 414.369L602.165 469.848C602.288 470.377 602.812 470.74 603.411 470.74C603.481 470.74 603.555 470.733 603.632 470.722C604.079 470.655 604.379 470.278 604.308 469.883L592.713 408.63L591.854 404.104L587.028 404.316Z" fill="#E5BD9E"/>
<path d="M587.028 404.316L589.351 414.369C589.686 410.291 592.713 408.634 592.713 408.634L591.854 404.108L587.028 404.32V404.316Z" fill="#CC9E7F"/>
<path d="M525.528 412.427C527.911 408.909 530.804 408.902 530.899 408.768H530.903L531.927 404.316L527.105 404.104L525.528 412.43V412.427Z" fill="#CC9E7F"/>
<path d="M596.62 404.753H526.753C523.299 404.753 520.497 401.947 520.497 398.489V393.463C520.497 390.005 523.299 387.199 526.753 387.199H596.62C600.074 387.199 602.876 390.005 602.876 393.463V398.493C602.876 401.951 600.074 404.757 596.62 404.757V404.753Z" fill="#3629B7"/>
<path d="M537.229 366.546C539.298 355.006 545.339 341.861 545.339 341.861C540.956 323.461 545.431 302.77 545.431 302.77C547.81 302.118 550.288 301.663 552.781 301.363C553.087 299.721 553.974 294.782 554.351 290.528C554.393 290.034 554.428 289.548 554.46 289.079C554.534 287.87 554.548 286.763 554.474 285.864L557.564 286.069L570.283 286.918L570.825 286.953C570.825 286.953 570.747 288.096 570.726 289.819C570.687 292.914 570.835 297.863 571.944 301.413C577.414 301.98 581.121 302.78 581.121 302.78C584.701 303.394 583.951 325.717 577.256 343.067C574.176 351.054 582.878 363.42 582.878 366.543C582.878 369.666 536.482 370.713 537.229 366.543V366.546Z" fill="#FFB27D"/>
<path d="M554.354 290.528C555.547 291.934 558.561 294.959 562.394 295.029C567.389 295.117 570.723 289.823 570.723 289.823C570.624 288.723 570.476 287.761 570.279 286.922L557.561 286.072C556.223 287.239 555.114 288.374 554.456 289.083C554.424 289.551 554.389 290.034 554.347 290.531L554.354 290.528Z" fill="#EF9E67"/>
<path d="M562.486 292.034C569.406 292.034 575.07 286.306 575.07 279.305V268.699C575.07 263.982 571.254 260.126 566.594 260.126H558.962C554.301 260.126 550.485 263.986 550.485 268.699V279.894C550.485 286.57 555.885 292.034 562.486 292.034Z" fill="#FFB27D"/>
<path d="M596.694 387.203C596.694 387.203 588.228 367.382 580.477 363.508C572.726 359.634 541.865 363.075 537.229 366.547C532.596 370.019 526.675 387.203 526.675 387.203H596.694Z" fill="#22356B"/>
<path d="M588.971 387.203C588.971 387.203 585.954 375.313 579.234 374.795C572.518 374.277 563.552 380.565 560.366 378.87C557.181 377.178 551.098 372.934 545.448 374.016C539.802 375.095 531.308 387.203 531.308 387.203H588.971Z" fill="#1B2E59"/>
<path d="M558.849 462.104L566.861 462.21C566.861 462.21 570.614 449.291 574.764 434.215C575.151 432.805 575.545 431.377 575.939 429.935C579.368 417.365 582.853 404.023 584.557 395.789C584.965 393.815 585.25 392.028 585.433 390.41C587.045 376.258 580.744 375.08 579.234 374.798C577.555 374.492 567.266 369.712 561.514 388.175C559.574 394.4 556.818 411.553 557.853 427.577C558.849 442.999 558.853 462.107 558.853 462.107L558.849 462.104Z" fill="#FFB27D"/>
<path d="M540.115 428.483C543.452 446.002 547.191 462.597 547.191 462.597L556.487 461.674C556.487 461.674 557.086 446.792 558.508 430.372C558.621 429.068 558.61 427.746 558.656 426.425C559.11 413.964 559.434 401.08 559.244 393.075C558.765 373.406 551.01 373.787 549.306 373.875C547.603 373.963 536.5 371.696 535.085 391.002C534.627 397.273 537.215 413.227 540.115 428.483Z" fill="#FFB27D"/>
<path d="M574.764 434.212C575.151 432.802 575.545 431.374 575.94 429.932C579.368 417.362 582.853 404.02 584.557 395.786C584.965 393.812 585.25 392.025 585.433 390.407C585.257 390.992 573.958 428.089 562.651 430.845C555.396 432.615 566.066 433.679 574.764 434.215V434.212Z" fill="#EF9E67"/>
<path d="M558.504 430.376C558.557 429.069 558.606 427.75 558.652 426.428C559.106 413.968 559.43 401.084 559.24 393.079C559.24 393.079 556.924 427.028 545.423 429.633C537.82 431.356 549.634 430.888 558.504 430.376Z" fill="#EF9E67"/>
<path d="M540.115 428.483C542.009 438.431 544.033 448.075 545.427 454.557C546.487 459.492 547.187 462.598 547.187 462.598L557.05 461.833C557.05 461.833 557.906 446.781 557.85 427.57C556.526 428.184 553.513 428.839 547.462 428.793C545.388 428.783 542.956 428.691 540.115 428.48V428.483Z" fill="#E9F3FE"/>
<path d="M545.427 454.561C546.487 459.496 547.187 462.601 547.187 462.601L557.05 461.836C557.05 461.836 558.684 446.284 558.627 427.073C557.304 427.687 553.513 428.843 547.458 428.797C547.458 428.797 551.668 448.487 545.423 454.561H545.427Z" fill="#C7DCF2"/>
<path d="M546.536 467.831C546.536 468.226 546.539 468.593 546.55 468.914C546.571 469.654 547.194 470.225 547.919 470.179L557.424 469.559C558.121 469.516 558.666 468.914 558.628 468.205C558.592 467.56 558.525 466.954 558.43 466.386C558.142 464.543 557.631 463.154 557.325 462.417C557.17 462.054 556.86 461.772 556.48 461.673C551.651 460.419 548.697 461.684 547.634 462.304C547.353 462.467 547.134 462.738 547.053 463.055C546.645 464.574 546.539 466.4 546.532 467.831H546.536Z" fill="#35488B"/>
<path d="M547.419 462.714C547.43 462.696 548.458 460.722 551.623 460.169C554.787 459.619 556.67 461.801 556.688 461.825L557.248 462.266C557.156 462.16 554.984 459.051 551.535 459.657C548.099 460.26 547.099 462.967 547.053 463.055L547.419 462.714Z" fill="#35488B"/>
<path d="M546.536 467.832C546.536 468.227 546.539 468.593 546.55 468.914C546.571 469.654 547.194 470.225 547.919 470.18L557.424 469.559C558.121 469.517 558.666 468.914 558.628 468.206C558.592 467.561 558.525 466.954 558.43 466.387C558.43 466.387 557.938 468.6 552.151 468.896C548.655 469.073 547.162 468.392 546.532 467.828L546.536 467.832Z" fill="#22356B"/>
<path d="M558.849 462.104L566.949 463.401L569.012 463.736C569.012 463.736 571.349 446.76 575.936 429.935C575.936 429.935 571.402 430.626 565.404 429.53C563.278 429.139 560.972 428.525 558.613 427.577C557.955 444.747 558.849 462.107 558.849 462.107V462.104Z" fill="#E9F3FE"/>
<path d="M566.949 463.401L569.012 463.736C569.012 463.736 571.349 446.76 575.936 429.936C575.936 429.936 571.402 430.627 565.404 429.53C565.404 429.53 569.501 454.127 566.949 463.405V463.401Z" fill="#C7DCF2"/>
<path d="M557.322 466.655C557.237 467.042 557.163 467.398 557.107 467.716C556.97 468.442 557.455 469.136 558.173 469.249L567.586 470.723C568.273 470.835 568.935 470.363 569.051 469.665C569.153 469.027 569.216 468.421 569.248 467.846C569.36 465.981 569.16 464.515 569.015 463.729C568.942 463.341 568.702 462.996 568.35 462.816C563.904 460.535 560.747 461.124 559.578 461.498C559.268 461.593 558.997 461.811 558.849 462.104C558.128 463.5 557.631 465.255 557.322 466.651V466.655Z" fill="#35488B"/>
<path d="M559.279 461.854C559.279 461.854 560.719 460.137 563.925 460.289C567.132 460.444 568.505 462.985 568.519 463.013L568.973 463.563C568.906 463.44 567.453 459.929 563.95 459.767C560.469 459.601 558.913 462.026 558.849 462.107L559.279 461.854Z" fill="#35488B"/>
<path d="M557.322 466.654C557.237 467.042 557.163 467.398 557.107 467.715C556.97 468.441 557.455 469.136 558.173 469.249L567.586 470.722C568.273 470.835 568.935 470.363 569.051 469.665C569.153 469.027 569.216 468.42 569.248 467.846C569.248 467.846 568.294 469.897 562.577 468.924C559.127 468.332 557.814 467.342 557.322 466.654Z" fill="#22356B"/>
<path d="M519.793 357.985L530.878 352.38L534.215 350.691C535.205 348.421 538.542 341.319 540.604 337.251C539.971 340.043 539.348 342.923 538.767 345.757C536.493 356.744 534.768 367.082 535.036 369.296C535.648 374.337 555.118 372.067 560.141 370.854C565.161 369.634 576.577 372.416 585.704 372.239C590.956 372.141 589.344 357.35 587.032 344.822C586.482 341.819 585.884 338.939 585.331 336.426C588.281 342.362 591.33 348.633 592.044 350.61L598.331 353.952L605.463 357.748C605.477 357.717 605.488 357.685 605.495 357.653C605.921 355.397 598.627 312.869 588.971 305.576C588.971 305.576 583.525 300.627 575.07 301.78C575.07 301.78 571.895 307.486 562.736 307.92C553.576 308.354 548.701 301.998 548.701 301.998C548.701 301.998 541.052 302.192 537.961 305.576C534.919 308.914 520.107 337.543 519.797 357.981L519.793 357.985Z" fill="#3629B7"/>
<path d="M535.032 369.296C535.645 374.337 555.114 372.066 560.138 370.854C565.157 369.634 576.573 372.415 585.701 372.239C590.953 372.14 589.341 357.35 587.028 344.822C587.028 344.822 577.133 362.345 564.798 362.225C552.464 362.105 538.767 345.76 538.767 345.76C536.493 356.747 534.768 367.086 535.036 369.299L535.032 369.296Z" fill="#B5493F"/>
<path d="M533.554 350.61C533.554 350.61 552.2 364.245 560.799 368.376L559.363 373.833C559.363 373.833 532.635 368.475 520.107 357.657L533.554 350.61Z" fill="#E8945B"/>
<path d="M560.796 368.376C560.796 368.376 567.213 366.367 569.184 367.495C571.159 368.623 573.905 373.752 572.018 373.833C570.131 373.918 559.36 373.833 559.36 373.833L560.796 368.376Z" fill="#E8945B"/>
<path d="M571.205 298.068C571.205 298.068 566.914 306.595 562.732 307.924C562.732 307.924 568.677 310.197 577.344 301.611C577.344 301.611 575.619 298.16 571.205 298.064V298.068Z" fill="#E6F1FF"/>
<path d="M585.328 336.426C588.278 342.362 591.326 348.633 592.041 350.611L598.328 353.952C598.725 353.801 599.06 353.494 599.31 352.99C601.2 349.173 585.328 336.423 585.328 336.423V336.426Z" fill="#B5493F"/>
<path d="M553.185 298.068C553.185 298.068 558.554 306.595 562.732 307.924C562.732 307.924 555.713 310.197 547.046 301.611C547.046 301.611 548.771 298.16 553.185 298.064V298.068Z" fill="#E6F1FF"/>
<path d="M529.171 351.82C529.752 352.148 530.326 352.335 530.882 352.384L534.219 350.695C535.208 348.425 538.545 341.323 540.608 337.255C540.608 337.255 524.796 349.345 529.171 351.82Z" fill="#B5493F"/>
<path d="M592.044 350.61C592.044 350.61 573.398 364.245 564.798 368.376L566.235 373.833C566.235 373.833 592.963 368.475 605.491 357.657L592.044 350.61Z" fill="#FFB27D"/>
<path d="M564.798 368.376C564.798 368.376 558.381 366.367 556.41 367.495C554.435 368.623 551.689 373.752 553.58 373.833C555.466 373.918 566.238 373.833 566.238 373.833L564.802 368.376H564.798Z" fill="#FFB27D"/>
<path d="M587.053 353.854L590.157 356.593L598.169 363.65C602.601 363.301 605.801 357.985 605.801 357.985C604.234 355.451 601.848 353.607 599.468 352.292C595.476 350.086 591.52 349.37 591.52 349.37L587.056 353.854H587.053Z" fill="#E6F1FF"/>
<path d="M519.793 357.985C519.793 357.985 522.997 363.3 527.425 363.649L536.532 355.623L538.538 353.854L534.743 349.504C534.743 349.504 531.92 349.948 528.604 351.291C525.45 352.571 521.835 354.671 519.79 357.981L519.793 357.985Z" fill="#E6F1FF"/>
<path d="M528.608 351.294C528.608 351.294 532.885 355.083 536.532 355.626L538.538 353.857L534.743 349.507C534.743 349.507 531.92 349.951 528.604 351.294H528.608Z" fill="#C7DCF2"/>
<path d="M587.053 353.854L590.157 356.593C595.536 356.55 599.465 352.292 599.465 352.292C595.473 350.086 591.516 349.37 591.516 349.37L587.053 353.854Z" fill="#C7DCF2"/>
<path d="M563.334 307.896C563.334 307.515 563.028 307.205 562.651 307.205C562.274 307.205 561.968 307.515 561.968 307.896C561.968 308.277 562.274 308.587 562.651 308.587C563.028 308.587 563.334 308.277 563.334 307.896Z" fill="#35488B"/>
<path d="M564.035 325.428C564.035 324.702 563.454 324.113 562.736 324.113C562.017 324.113 561.437 324.702 561.437 325.428C561.437 326.154 562.017 326.743 562.736 326.743C563.454 326.743 564.035 326.154 564.035 325.428Z" fill="#A53D38"/>
<path d="M564.035 346.504C564.035 345.778 563.454 345.189 562.736 345.189C562.017 345.189 561.437 345.778 561.437 346.504C561.437 347.23 562.017 347.819 562.736 347.819C563.454 347.819 564.035 347.23 564.035 346.504Z" fill="#A53D38"/>
<path d="M579.168 263.95C579.168 263.95 594.48 265.525 590.407 280.506C586.331 295.494 588.425 298.071 588.425 298.071C588.425 298.071 586.641 298.071 585.247 296.665C585.247 296.665 585.958 297.8 588.612 302.012C594.22 310.92 579.938 316.136 579.938 316.136C579.938 316.136 582.216 310.257 578.351 308.198C570.944 304.257 567.84 294.017 572.479 289.491C583.124 279.111 579.171 263.946 579.171 263.946L579.168 263.95Z" fill="#1B2E59"/>
<path d="M547.046 263.95C547.046 263.95 531.734 265.525 535.806 280.506C539.883 295.494 537.792 298.071 537.792 298.071C537.792 298.071 539.577 298.071 540.971 296.665C540.971 296.665 540.259 297.8 537.605 302.012C531.998 310.92 546.279 316.136 546.279 316.136C546.279 316.136 543.998 310.257 547.866 308.198C555.273 304.257 558.378 294.017 553.738 289.491C543.093 279.111 547.046 263.946 547.046 263.946V263.95Z" fill="#1B2E59"/>
<path d="M575.07 271.514C575.07 271.514 566.763 272.395 563.985 270.552C563.985 270.552 562.162 265.014 563.985 263.569C563.985 263.569 560.574 266.537 561.208 270.471C561.208 270.471 556.03 270.309 554.889 269.667C554.889 269.667 555.245 267.179 555.924 266.135C555.924 266.135 554.146 268.141 553.749 269.586C553.749 269.586 549.94 269.988 549.148 268.543C548.356 267.097 555.259 249.522 566.206 254.418C577.154 259.314 578.221 268.462 575.07 271.511V271.514Z" fill="#1B2E59"/>
<path d="M583.057 263.601C583.057 263.601 584.638 264.56 584.536 265.575C584.43 266.59 580.695 270.122 580.695 270.122L583.061 263.598L583.057 263.601Z" fill="#3629B7"/>
<path d="M543.959 263.601C543.959 263.601 542.379 264.56 542.481 265.575C542.586 266.59 546.325 270.122 546.325 270.122L543.959 263.598V263.601Z" fill="#3629B7"/>
<path d="M857.871 251.37C857.871 251.37 866.787 246.153 873.011 249.84C879.234 253.527 886.82 276.552 885.655 281.275C884.49 285.999 879.435 289.534 879.435 289.534C879.435 289.534 880.164 286.742 879.417 284.793C879.417 284.793 878.678 290.162 874.658 291.829C870.642 293.496 855.575 294.751 852.495 293.993C848.94 293.119 846.807 291.959 845.3 287.955C843.794 283.951 834.5 247.757 857.871 251.37Z" fill="#1B2E59"/>
<path d="M815.816 470.726C815.893 470.737 815.963 470.744 816.037 470.744C816.636 470.744 817.16 470.381 817.283 469.852L831.392 408.772H831.396L832.42 404.32L827.597 404.108L826.02 412.434L815.143 469.891C815.073 470.285 815.369 470.663 815.816 470.73V470.726Z" fill="#E5BD9E"/>
<path d="M887.517 404.316L889.84 414.369L902.654 469.848C902.777 470.377 903.301 470.74 903.9 470.74C903.974 470.74 904.044 470.733 904.122 470.722C904.569 470.655 904.868 470.278 904.797 469.883L893.202 408.63L892.343 404.104L887.521 404.316H887.517Z" fill="#E5BD9E"/>
<path d="M887.517 404.316L889.84 414.369C890.175 410.291 893.202 408.634 893.202 408.634L892.343 404.108L887.521 404.32L887.517 404.316Z" fill="#CC9E7F"/>
<path d="M826.021 412.427C828.404 408.909 831.297 408.902 831.392 408.768H831.396L832.42 404.316L827.598 404.104L826.021 412.43V412.427Z" fill="#CC9E7F"/>
<path d="M897.109 404.753H827.242C823.789 404.753 820.987 401.947 820.987 398.489V393.463C820.987 390.005 823.789 387.199 827.242 387.199H897.109C900.563 387.199 903.365 390.005 903.365 393.463V398.493C903.365 401.951 900.563 404.757 897.109 404.757V404.753Z" fill="#3629B7"/>
<path d="M837.721 366.546C839.791 355.006 845.832 341.861 845.832 341.861C841.449 323.461 845.923 302.77 845.923 302.77C848.303 302.118 850.781 301.663 853.273 301.363C853.583 299.721 854.466 294.782 854.843 290.528C854.885 290.034 854.921 289.548 854.952 289.079C855.026 287.87 855.04 286.763 854.966 285.864L858.057 286.069L870.775 286.918L871.314 286.953C871.314 286.953 871.236 288.096 871.215 289.819C871.177 292.914 871.328 297.863 872.433 301.413C877.904 301.98 881.61 302.78 881.61 302.78C885.19 303.394 884.44 325.717 877.745 343.067C874.662 351.054 883.367 363.42 883.367 366.543C883.367 369.666 836.968 370.713 837.718 366.543L837.721 366.546Z" fill="#FFB27D"/>
<path d="M854.843 290.528C856.037 291.934 859.05 294.959 862.883 295.029C867.878 295.117 871.212 289.823 871.212 289.823C871.113 288.723 870.965 287.761 870.768 286.922L858.05 286.072C856.712 287.239 855.604 288.374 854.945 289.083C854.914 289.551 854.878 290.034 854.836 290.531L854.843 290.528Z" fill="#EF9E67"/>
<path d="M865.002 291.963C871.831 290.831 876.506 284.254 875.39 277.348L873.697 266.883C872.944 262.23 868.565 259.043 863.964 259.805L856.431 261.053C851.83 261.814 848.683 266.245 849.433 270.898L851.221 281.945C852.288 288.533 858.487 293.041 865.002 291.963Z" fill="#FFB27D"/>
<path d="M867.836 283.485C867.836 283.485 867.847 285.188 863.827 285.91C863.827 285.91 860.451 286.516 860.127 284.722C860.127 284.722 863.052 282.671 867.836 283.485Z" fill="white"/>
<path d="M897.183 387.203C897.183 387.203 888.718 367.382 880.966 363.508C873.215 359.634 842.354 363.075 837.718 366.547C833.085 370.019 827.165 387.203 827.165 387.203H897.183Z" fill="#22356B"/>
<path d="M889.464 387.203C889.464 387.203 886.443 375.313 879.727 374.795C873.011 374.277 864.045 380.565 860.859 378.87C857.673 377.178 851.591 372.934 845.944 374.016C840.298 375.095 831.804 387.203 831.804 387.203H889.467H889.464Z" fill="#1B2E59"/>
<path d="M838.781 427.077C838.907 444.916 839.597 461.924 839.597 461.924L848.905 462.728C848.905 462.728 852.171 448.202 856.526 432.322C856.871 431.06 857.099 429.759 857.385 428.469C860.074 416.298 862.711 403.689 863.964 395.786C867.033 376.356 859.342 375.303 857.649 375.077C855.959 374.851 845.451 370.579 840.583 389.3C839.002 395.381 838.679 411.546 838.784 427.08L838.781 427.077Z" fill="#FFB27D"/>
<path d="M856.526 432.322C856.811 431.046 857.099 429.759 857.385 428.469C860.074 416.298 862.711 403.689 863.964 395.786C863.964 395.786 855.575 428.741 843.797 429.185C836.01 429.481 847.711 431.194 856.526 432.326V432.322Z" fill="#EF9E67"/>
<path d="M838.781 427.077C838.855 437.208 839.108 447.064 839.312 453.694C839.467 458.745 839.597 461.925 839.597 461.925L849.436 462.989C849.436 462.989 852.985 448.347 856.388 429.449C854.977 429.809 851.897 429.901 845.951 428.741C843.913 428.35 841.541 427.81 838.784 427.081L838.781 427.077Z" fill="#E9F3FE"/>
<path d="M839.316 453.693C839.471 458.744 839.601 461.924 839.601 461.924L849.44 462.988C849.44 462.988 853.847 448 857.247 429.1C855.836 429.459 851.9 429.9 845.955 428.74C845.955 428.74 846.553 448.878 839.319 453.697L839.316 453.693Z" fill="#C7DCF2"/>
<path d="M838.017 466.95C837.946 467.338 837.883 467.698 837.837 468.018C837.725 468.748 838.235 469.428 838.957 469.516L848.415 470.658C849.105 470.747 849.753 470.253 849.845 469.548C849.926 468.907 849.968 468.3 849.978 467.726C850.028 465.861 849.774 464.398 849.605 463.619C849.521 463.231 849.267 462.9 848.908 462.731C844.385 460.609 841.252 461.307 840.097 461.723C839.791 461.829 839.527 462.054 839.39 462.354C838.717 463.774 838.281 465.547 838.02 466.954L838.017 466.95Z" fill="#35488B"/>
<path d="M839.805 462.082C839.805 462.082 841.185 460.316 844.395 460.352C847.606 460.394 849.063 462.886 849.081 462.914L849.552 463.45C849.482 463.33 847.905 459.872 844.402 459.834C840.917 459.791 839.446 462.269 839.386 462.35L839.805 462.082Z" fill="#35488B"/>
<path d="M838.017 466.95C837.946 467.338 837.883 467.697 837.837 468.018C837.725 468.748 838.235 469.428 838.957 469.516L848.415 470.658C849.105 470.747 849.753 470.253 849.845 469.548C849.926 468.907 849.968 468.3 849.978 467.726C849.978 467.726 849.095 469.812 843.35 469.037C839.879 468.568 838.534 467.623 838.02 466.954L838.017 466.95Z" fill="#22356B"/>
<path d="M874.186 463.73L881.927 461.643C881.927 461.643 882.093 448.178 882.068 432.527C882.065 431.064 882.065 429.58 882.057 428.085C882.005 415.043 881.804 401.247 881.248 392.854C881.114 390.841 880.913 389.043 880.656 387.436C878.432 373.368 872.05 373.953 870.522 374.094C868.825 374.256 857.638 372.462 857.026 391.814C856.818 398.335 858.74 415.607 864.013 430.75C869.086 445.326 874.186 463.73 874.186 463.73Z" fill="#FFB27D"/>
<path d="M882.068 432.526C882.064 431.064 882.064 429.58 882.057 428.085C882.005 415.043 881.804 401.246 881.248 392.853C881.114 390.841 880.913 389.043 880.656 387.436C880.642 388.045 879.66 426.851 869.508 432.59C862.996 436.273 873.549 434.388 882.072 432.526H882.068Z" fill="#EF9E67"/>
<path d="M874.186 463.73L882.332 462.768L884.409 462.525C884.409 462.525 882.131 445.538 882.061 428.086C882.061 428.086 877.879 429.989 871.81 430.571C869.659 430.775 866.41 430.642 863.886 430.374C867.833 447.085 874.19 463.73 874.19 463.73H874.186Z" fill="#E9F3FE"/>
<path d="M882.329 462.768L884.405 462.525C884.405 462.525 882.128 445.538 882.058 428.086C882.058 428.086 877.876 429.989 871.807 430.571C871.807 430.571 882.315 453.134 882.332 462.768H882.329Z" fill="#C7DCF2"/>
<path d="M873.578 468.295C873.553 468.69 873.532 469.053 873.521 469.377C873.493 470.118 874.077 470.731 874.806 470.731L884.332 470.742C885.029 470.745 885.613 470.181 885.62 469.469C885.627 468.821 885.599 468.214 885.542 467.643C885.373 465.786 884.955 464.365 884.694 463.611C884.564 463.237 884.275 462.937 883.899 462.811C879.16 461.238 876.13 462.303 875.031 462.853C874.739 462.994 874.507 463.251 874.401 463.561C873.898 465.052 873.673 466.864 873.574 468.292L873.578 468.295Z" fill="#35488B"/>
<path d="M874.792 463.247C874.802 463.23 875.957 461.33 879.15 460.984C882.343 460.646 884.082 462.948 884.099 462.972L884.627 463.448C884.543 463.335 882.578 460.089 879.093 460.466C875.626 460.84 874.454 463.473 874.401 463.561L874.788 463.244L874.792 463.247Z" fill="#35488B"/>
<path d="M873.578 468.295C873.553 468.689 873.532 469.053 873.521 469.377C873.493 470.117 874.077 470.73 874.806 470.73L884.332 470.741C885.029 470.744 885.613 470.181 885.62 469.468C885.627 468.82 885.599 468.214 885.542 467.643C885.542 467.643 884.905 469.817 879.111 469.729C875.612 469.673 874.165 468.894 873.574 468.291L873.578 468.295Z" fill="#22356B"/>
<path d="M823.774 351.45L836.679 351.665C837.668 349.395 839.39 341.823 841.093 337.255C840.46 340.046 839.837 342.926 839.256 345.76C836.982 356.748 835.257 367.086 835.525 369.3C836.137 374.34 855.611 372.07 860.627 370.858C865.646 369.638 877.062 372.419 886.19 372.243C891.442 372.144 889.83 357.354 887.517 344.826C886.968 341.823 886.369 338.943 885.817 336.43C888.767 342.366 890.104 349.687 890.822 351.668C890.822 351.668 903.428 350.843 903.432 350.812C903.857 348.556 899.112 312.876 889.457 305.587C889.457 305.587 884.011 300.638 875.556 301.79C875.556 301.79 872.38 307.497 863.221 307.931C854.062 308.364 849.186 302.009 849.186 302.009C849.186 302.009 841.537 302.203 838.446 305.587C835.405 308.925 828.53 321.117 823.774 351.453V351.45Z" fill="#3629B7"/>
<path d="M835.525 369.296C836.137 374.337 855.611 372.066 860.627 370.854C865.647 369.634 877.062 372.415 886.19 372.239C891.442 372.14 889.83 357.35 887.517 344.822C887.517 344.822 877.622 362.345 865.287 362.225C852.953 362.105 839.256 345.76 839.256 345.76C836.982 356.747 835.257 367.086 835.525 369.299V369.296Z" fill="#28235C"/>
<path d="M871.698 298.068C871.698 298.068 867.407 306.595 863.225 307.924C863.225 307.924 869.17 310.197 877.837 301.611C877.837 301.611 876.112 298.16 871.698 298.064V298.068Z" fill="#E6F1FF"/>
<path d="M853.678 298.068C853.678 298.068 859.046 306.595 863.225 307.924C863.225 307.924 856.206 310.197 847.539 301.611C847.539 301.611 849.26 298.16 853.678 298.064V298.068Z" fill="#E6F1FF"/>
<path d="M863.823 307.896C863.823 307.515 863.517 307.205 863.144 307.205C862.771 307.205 862.461 307.515 862.461 307.896C862.461 308.277 862.767 308.587 863.144 308.587C863.52 308.587 863.823 308.277 863.823 307.896Z" fill="#35488B"/>
<path d="M864.524 325.428C864.524 324.702 863.943 324.113 863.225 324.113C862.507 324.113 861.926 324.702 861.926 325.428C861.926 326.154 862.507 326.743 863.225 326.743C863.943 326.743 864.524 326.154 864.524 325.428Z" fill="#A53D38"/>
<path d="M864.524 346.504C864.524 345.778 863.943 345.189 863.225 345.189C862.507 345.189 861.926 345.778 861.926 346.504C861.926 347.23 862.507 347.819 863.225 347.819C863.943 347.819 864.524 347.23 864.524 346.504Z" fill="#A53D38"/>
<path d="M826.055 385.93L826.02 382.264C826.02 382.264 821.015 351.125 824.478 350.163C827.946 349.2 834.472 352.514 834.472 352.514L832.42 382.264C832.441 382.966 832.575 383.653 832.719 384.287C832.807 384.309 832.892 384.326 832.976 384.351C836.38 385.331 834.335 392.412 831.797 392.536C829.935 392.627 827.527 389.804 825.894 388.835C825.182 388.412 825.394 386.431 826.052 385.93H826.055Z" fill="#FFB27D"/>
<path d="M836.679 351.661C836.679 351.661 837.485 356.05 835.497 356.691C833.504 357.333 823.349 357.653 822.715 356.691C822.081 355.729 822.961 348.362 824.478 347.819C825.992 347.276 835.732 349.289 836.679 351.661Z" fill="#28235C"/>
<path d="M894.526 384.351C894.61 384.326 894.698 384.309 894.782 384.287C894.927 383.653 895.061 382.962 895.082 382.264L893.029 352.514C893.029 352.514 899.556 349.2 903.023 350.163C906.49 351.125 901.481 382.264 901.481 382.264L901.446 385.93C902.104 386.431 902.316 388.412 901.605 388.835C899.971 389.804 897.567 392.627 895.701 392.536C893.163 392.412 891.118 385.331 894.522 384.351H894.526Z" fill="#FFB27D"/>
<path d="M890.826 351.661C890.826 351.661 890.02 356.05 892.009 356.691C894.001 357.333 904.157 357.653 904.791 356.691C905.424 355.729 904.544 348.362 903.027 347.819C901.51 347.276 891.77 349.289 890.826 351.661Z" fill="#28235C"/>
<path d="M858.838 262.35C858.838 262.35 858.064 269.39 853.548 272.09C853.548 272.09 855.146 267.842 854.055 266.069C854.055 266.069 853.146 274.025 850.45 277.155C850.45 277.155 843.452 262.132 856.008 259.238C868.565 256.347 874.742 262.237 875.601 267.053C876.46 271.871 875.161 275.907 875.161 275.907C875.161 275.907 872.328 267.186 866.347 265.495C860.366 263.803 858.842 262.347 858.842 262.347L858.838 262.35Z" fill="#1B2E59"/>
<path d="M161.173 198.651C161.173 198.651 182.712 242.283 185.448 249.266C186.5 251.952 224.785 240.051 224.785 240.051C224.785 240.051 228.041 237.196 228.337 234.003C228.411 233.192 229.372 232.311 230.78 231.468L242.245 234.782C241.104 237.669 239.675 240.496 238.873 241.225C237.204 242.741 227.27 247.144 227.27 247.144C221.124 253.21 182.892 268.829 179.477 266.971C175.89 265.019 159.304 234.792 152.886 226.808C146.466 218.828 149.011 192.666 161.176 198.651H161.173Z" fill="#FFB27D"/>
<path d="M270.624 194.643L282.216 197.77L260.465 239.223L232.656 232.445L209.395 224.024L225.264 181.615L247.729 198.983L270.624 194.643Z" fill="#A03732"/>
<path d="M232.656 231.719L248.493 193.34C248.493 193.34 267.762 186.392 280.164 194.69L259.941 235.604C259.941 235.604 249.067 227.447 232.656 231.719Z" fill="#E9F3FE"/>
<path d="M224.07 178.478C240.288 177.512 248.493 193.339 248.493 193.339L232.656 231.719C227.696 223.008 207.469 222.286 207.469 222.286L224.07 178.478Z" fill="#C7DCF2"/>
<path d="M209.701 449.108C209.701 449.108 207.413 460.018 209.701 463.031C211.989 466.045 218.231 466.74 218.09 471.036H187.852C187.852 471.036 188.88 463.349 192.062 460.074C195.248 456.799 198.43 437.684 198.43 437.684L209.701 449.111V449.108Z" fill="#163560"/>
<path d="M167.65 449.108C167.65 449.108 165.362 460.018 167.65 463.031C169.938 466.045 176.179 466.74 176.038 471.036H145.8C145.8 471.036 146.828 463.349 150.014 460.074C153.2 456.799 156.382 437.684 156.382 437.684L167.653 449.111L167.65 449.108Z" fill="#163560"/>
<path d="M105.931 355.32C107.311 355.662 109.501 355.986 112.327 356.293V356.3C123.257 357.491 143.685 358.404 163.345 358.619C170.336 358.697 177.221 358.686 183.55 358.57C183.578 358.57 183.603 358.574 183.631 358.57C189.13 358.464 194.206 358.277 198.557 358.003C203.372 357.699 207.301 357.276 209.916 356.727C211.817 356.332 213.031 355.863 213.401 355.32C216.53 350.752 224.31 341.598 223.321 334.65C223.12 333.229 222.56 331.907 221.515 330.737C221.515 330.737 216.171 328.696 207.769 325.816H207.762C191.115 320.117 162.451 311.132 139.499 308.223H139.492C125.943 306.503 114.383 306.898 108.466 311.34C87.4471 327.099 92.5266 352.017 105.928 355.317L105.931 355.32Z" fill="#B23636"/>
<path d="M152.936 443C156.241 450.244 167.161 450.603 167.161 450.603C169.642 444.886 171.948 439.433 174.085 434.237C188.915 398.17 195.716 374.338 198.447 358.663C198.486 358.437 198.525 358.222 198.557 358.003C202.805 332.948 196.501 329.138 196.501 329.138C196.374 329.11 196.244 329.081 196.121 329.06C190.443 327.96 185.448 329.081 181.065 331.852C173.543 336.628 167.833 346.301 163.549 358.042C163.485 358.229 163.412 358.423 163.341 358.62C157.836 373.957 154.741 392.713 153.238 408.678C151.566 426.352 151.841 440.607 152.936 443.004V443Z" fill="#892828"/>
<path d="M115.879 191.245C115.879 191.245 114.865 191.361 113.348 191.615C109.68 192.229 103.059 193.646 100.651 196.176C97.2471 199.751 79.393 247.894 80.3294 254.877C81.2622 261.86 101.253 272.586 108.047 273.411L115.879 191.245Z" fill="#3629B7"/>
<path d="M139.964 198.429C140.034 198.489 139.908 208.786 131.104 206.572C125.324 205.12 114.172 195.405 116.295 190.583C117.305 188.292 122.955 182.962 126.686 168.926L127.689 169.43L144.572 177.925C144.572 177.925 142.636 183.494 141.178 188.842C139.957 193.332 139.077 197.668 139.964 198.429Z" fill="#F4A269"/>
<path d="M151.816 181.548C151.816 181.548 126.404 187.358 123.071 171.294C119.737 155.231 114.214 145.164 130.298 140.776C146.381 136.387 150.816 141.847 153.217 146.934C155.618 152.02 158.339 179.624 151.816 181.548Z" fill="#FFB27D"/>
<path d="M100.658 331.827C100.658 331.827 116.175 344.63 115.27 353.491C114.366 362.35 127.538 351.722 127.538 351.722L121.536 331.831H100.658V331.827Z" fill="#A03732"/>
<path d="M132.051 171.859C125.975 173.952 116.689 161.887 114.024 154.854C110.764 146.243 118.252 129.154 137.789 131.65C137.789 131.65 143.456 132.118 148.838 135.661C153.115 138.481 164.492 145.785 146.103 153.571C139.19 156.5 137.338 170.036 132.051 171.859Z" fill="#1C468A"/>
<path d="M129.756 355.321C134.304 356.442 147.691 357.429 163.549 358.038C169.952 358.282 176.763 358.468 183.55 358.567C183.575 358.567 183.606 358.574 183.631 358.567C188.637 358.641 193.635 358.68 198.447 358.659C201.665 358.645 204.791 358.617 207.797 358.553C206.596 361.909 205.505 365.423 204.523 369.04C196.043 400.285 195.512 438.876 197.381 442.958C200.69 450.201 211.606 450.557 211.606 450.557C221.856 426.94 228.999 407.814 233.899 392.354C250.982 338.496 240.942 329.095 240.942 329.095C240.918 329.088 232.142 323.614 219.135 320.262C194.962 314.033 158.371 303.74 139.492 308.224C136.627 308.897 134.191 309.92 132.294 311.34C126.425 315.736 122.599 320.84 120.41 325.99C114.753 339.318 120.089 352.934 129.752 355.317L129.756 355.321Z" fill="#A03732"/>
<path d="M94.1143 326.921C95.4449 328.799 97.7118 330.438 100.651 331.824H100.658C121.698 341.746 172.057 319.79 169.667 305.094C168.826 299.923 164.837 299.951 161.729 291.502C159.314 284.939 157.579 278.791 157.66 272.778C157.691 270.226 158.061 267.691 158.839 265.164C160.736 259.03 162.475 249.168 163.577 238.656C165.457 220.753 164.042 202.607 159.814 196.241C159.216 195.338 124.465 185.497 97.4795 194.38C97.4795 194.38 95.3498 226.083 101.51 259.157C102.337 263.571 101.947 268.125 100.37 272.323C95.4554 285.422 85.7821 315.137 94.1143 326.917V326.921Z" fill="#3629B7"/>
<path d="M147.328 265.625C143.695 254.138 142.639 239.897 150.035 225.177C150.035 225.177 157.54 229.784 163.577 238.66C162.472 249.171 160.733 259.034 158.839 265.167C158.036 267.761 157.677 270.359 157.66 272.982C157.66 273.133 157.66 273.282 157.66 273.433C157.66 273.779 157.67 274.124 157.684 274.466C157.691 274.614 157.695 274.758 157.702 274.906C157.727 275.358 157.758 275.809 157.804 276.264C157.818 276.412 157.836 276.556 157.853 276.704C157.889 277.043 157.931 277.377 157.977 277.716C158.001 277.892 158.022 278.065 158.05 278.238C158.11 278.646 158.177 279.059 158.251 279.468C158.279 279.619 158.307 279.774 158.336 279.926C158.406 280.296 158.48 280.67 158.561 281.04C158.6 281.227 158.642 281.414 158.684 281.6C158.762 281.935 158.839 282.27 158.923 282.608C158.962 282.764 158.997 282.915 159.036 283.07C159.152 283.525 159.275 283.98 159.406 284.438C159.458 284.625 159.511 284.812 159.568 284.998C159.663 285.323 159.758 285.647 159.856 285.971C159.913 286.151 159.965 286.334 160.022 286.514C160.166 286.979 160.317 287.445 160.472 287.913C160.525 288.069 160.578 288.227 160.631 288.382C160.754 288.745 160.877 289.112 161.007 289.479C161.067 289.651 161.127 289.82 161.187 289.993C161.363 290.494 161.542 290.994 161.729 291.498C164.837 299.948 172.311 304.262 172.3 308.52C172.268 319.539 121.698 341.743 100.658 331.82C149.697 339.451 147.339 265.928 147.328 265.618V265.625Z" fill="#28235C"/>
<path d="M156.044 145.774C156.044 145.774 153.393 165.051 138.612 172.059C138.612 172.059 148.264 149.725 143.375 145.463C138.482 141.202 156.044 145.774 156.044 145.774Z" fill="#1C468A"/>
<path d="M141.471 162.094C141.471 162.094 138.936 156.874 136.581 157.878C134.226 158.887 137.486 167.315 139.028 167.223C140.566 167.131 141.474 162.091 141.474 162.091L141.471 162.094Z" fill="#FFB27D"/>
<path d="M144.42 226.505C148.359 229.424 155.143 244.955 164.615 255.875C164.615 255.875 164.633 255.896 164.665 255.942C166.464 258.008 168.354 259.908 170.343 261.522C186.081 274.307 198.06 270.846 198.06 270.846C206.061 266.383 208.603 257.158 209.392 250.901C209.853 247.176 209.694 244.504 209.694 244.504C209.694 244.504 190.087 248.127 188.063 247.852C186.035 247.577 166.076 200.756 163.355 197.964C157.487 191.947 133.413 190.445 133.413 190.445C127.056 187.724 139.725 223.019 144.417 226.505H144.42Z" fill="#3629B7"/>
<path d="M164.615 255.875C164.615 255.875 164.633 255.896 164.665 255.942C166.464 258.008 168.354 259.908 170.343 261.522C186.081 274.307 198.06 270.845 198.06 270.845C206.062 266.383 208.603 257.158 209.392 250.901C206.846 253.355 188.521 269.686 164.612 255.875H164.615Z" fill="#ED7D2B"/>
<path d="M78.7594 193.244C89.5521 185.271 100.978 175.563 98.6622 167.223C93.2799 147.892 109.043 124.438 125.405 131.35C134.205 135.065 141.337 183.611 129.22 196.97C130.294 194.277 131.477 189.515 131.963 181.055C131.882 181.89 130.78 192.574 127.327 198.68C109.67 222.209 141.467 222.469 128.622 243.841C128.622 243.841 127.527 251.257 98.4158 243.161C93.3081 241.74 88.6826 238.871 85.2188 234.817C82.7899 231.976 80.5757 228.525 80.2941 225.177C80.2941 225.177 80.0653 231.98 84.6133 238.836C75.7426 235.681 69.9696 226.671 68.7622 216.361C67.8505 208.645 69.6563 199.97 78.7594 193.244Z" fill="#1C468A"/>
<path d="M81.4031 362.346H206.597C206.597 362.346 203.682 350.076 131.178 351.902C125.419 352.05 120.325 352.293 115.819 352.618C80.1957 355.141 81.4031 362.346 81.4031 362.346Z" fill="#E5BD9E"/>
<path d="M176.742 472.553C162.183 406.996 165.925 366.769 165.942 366.262C165.978 365.254 163.887 364.337 162.764 364.302C161.627 364.284 156.6 364.002 156.016 364.866C155.255 365.997 152.323 415.562 174.025 472.549H176.742V472.553Z" fill="#A06B47"/>
<path d="M211.285 472.553C196.726 406.996 200.468 366.769 200.486 366.262C200.524 365.254 198.43 364.337 197.307 364.302C196.166 364.284 191.143 364.002 190.559 364.866C189.798 365.997 186.866 415.562 208.564 472.549H211.282L211.285 472.553Z" fill="#A06B47"/>
<path d="M79.5162 364.302C79.5162 365.381 80.3857 366.265 81.4417 366.265H207.322C207.85 366.265 208.332 366.047 208.677 365.687C209.029 365.331 209.244 364.841 209.244 364.302C209.244 363.23 208.381 362.346 207.322 362.346H81.4417C80.9137 362.346 80.4315 362.568 80.083 362.924C79.731 363.28 79.5162 363.766 79.5162 364.306V364.302Z" fill="#CE9A78"/>
<path d="M111.937 362.346H206.597C206.597 362.346 203.671 350.076 130.942 351.902C125.165 352.05 120.054 352.293 115.534 352.618C115.763 354.14 116.136 359.132 111.937 362.346Z" fill="#D6A685"/>
<path d="M79.5162 364.302C79.5162 365.381 80.3998 366.265 81.477 366.265H148.645C149.183 366.265 149.672 366.047 150.024 365.687C150.38 365.331 150.602 364.841 150.602 364.302C150.602 363.23 149.722 362.346 148.645 362.346H81.477C80.9384 362.346 80.4491 362.568 80.0935 362.924C79.738 363.28 79.5162 363.766 79.5162 364.306V364.302Z" fill="#7C4F31"/>
<path d="M83.406 364.545H83.3778C82.2514 364.531 81.3537 363.7 81.3678 362.691C82.5119 290.818 55.0337 235.554 54.7556 235.004C54.291 234.084 54.379 232.029 57.3394 231.768C59.9302 231.539 61.5354 232.11 62.0001 233.03C62.0705 233.168 68.199 246.319 75.007 269.178C81.2833 290.254 86.0496 324.763 85.4441 362.741C85.4301 363.742 84.5183 364.542 83.406 364.542V364.545Z" fill="#7C4F31"/>
<path d="M144.684 364.545H144.656C143.53 364.531 142.632 363.7 142.646 362.691C143.79 290.818 116.312 235.554 116.034 235.004C115.569 234.084 115.657 232.029 118.618 231.768C121.209 231.539 122.814 232.11 123.278 233.03C123.349 233.168 129.477 246.319 136.285 269.178C142.562 290.254 147.328 324.763 146.723 362.741C146.709 363.742 145.797 364.542 144.684 364.542V364.545Z" fill="#7C4F31"/>
<path d="M65.2597 257.077C64.2846 257.077 63.4222 256.446 63.2532 255.558C63.0631 254.564 63.8094 253.619 64.9182 253.446C66.6853 253.175 108.36 246.883 127.013 252.135C128.087 252.438 128.685 253.464 128.347 254.426C128.01 255.389 126.866 255.928 125.792 255.625C108.075 250.641 66.0271 256.989 65.6047 257.052C65.4885 257.07 65.3723 257.081 65.2597 257.081V257.077Z" fill="#7C4F31"/>
<path d="M70.0225 269.182C69.0474 269.182 68.185 268.551 68.016 267.663C67.8259 266.669 68.5722 265.724 69.681 265.551C71.4481 265.283 113.123 258.988 131.776 264.24C132.85 264.543 133.448 265.569 133.11 266.531C132.772 267.493 131.628 268.033 130.555 267.726C112.831 262.735 70.7899 269.09 70.3675 269.154C70.2513 269.171 70.1351 269.182 70.0225 269.182Z" fill="#7C4F31"/>
<path d="M70.7898 472.553C85.3526 406.996 81.6072 366.769 81.5896 366.262C81.5544 365.254 83.6453 364.337 84.7682 364.302C85.9088 364.284 90.932 364.002 91.5163 364.866C92.2767 365.997 95.209 415.562 73.5109 472.549H70.7933L70.7898 472.553Z" fill="#7C4F31"/>
<path d="M127.541 472.553C142.101 406.196 138.359 365.476 138.341 364.965C138.306 363.943 140.397 363.016 141.52 362.984C142.66 362.967 147.684 362.681 148.268 363.555C149.028 364.701 151.961 414.871 130.259 472.553H127.541Z" fill="#7C4F31"/>
<path d="M258.853 234.895L257.994 236.689C257.994 236.689 238.76 231.451 232.653 231.719C232.653 231.719 246.293 227.165 258.849 234.895H258.853Z" fill="#C7DCF2"/>
<path d="M232.656 231.719L210.62 223.541L211.004 222.564C211.004 222.564 227.936 223.537 232.66 231.715L232.656 231.719Z" fill="#ADC7E0"/>
<path d="M228.115 235.127C228.115 235.127 228.513 229.258 231.963 227.143C233.49 226.319 234.74 225.691 235.585 225.286C236.282 224.951 237.088 225.508 237.007 226.287C236.944 226.921 236.673 227.683 235.944 228.419C234.18 230.203 233.726 233.171 233.726 233.171L228.112 235.131L228.115 235.127Z" fill="#FFB27D"/>
<path d="M1.32005 473H983.68C984.405 473 985 472.404 985 471.678C985 470.952 984.405 470.356 983.68 470.356H1.32005C0.594902 470.356 0 470.952 0 471.678C0 472.404 0.594902 473 1.32005 473Z" fill="#2E3552"/>
</g>
<defs>
<clipPath id="clip0_434_235">
<rect width="985" height="473" fill="white"/>
</clipPath>
</defs>
</svg>
