<svg width="38" height="38" viewBox="0 0 38 38" fill="none" xmlns="http://www.w3.org/2000/svg">
<path d="M6.84012 0V6.84012H0V38H31.1599V31.1599H38V0H6.84012ZM17.3601 29.5199C17.3601 29.9998 17.0001 30.36 16.5199 30.36H14.6399C14.16 30.36 13.7998 30.0001 13.7998 29.5199L13.8001 24.1999H8.4801C8.00019 24.1999 7.63996 23.84 7.63996 23.3598V21.4798C7.63996 20.9999 7.9999 20.6396 8.4801 20.6396H13.8001V15.3197C13.8001 14.8397 14.16 14.4795 14.6402 14.4795H16.5202C17.0001 14.4795 17.3604 14.8395 17.3604 15.3197V20.6396H22.6803C23.1602 20.6396 23.5205 20.9996 23.5205 21.4798V23.3598C23.5205 23.8397 23.1605 24.1999 22.6803 24.1999H17.3604L17.3601 29.5199ZM35.04 28.1999H31.1999L31.2002 6.83997H9.80024V2.95999H35.0401L35.04 28.1999Z" fill="url(#paint0_linear_14_139)"/>
<defs>
<linearGradient id="paint0_linear_14_139" x1="19" y1="0" x2="19" y2="38" gradientUnits="userSpaceOnUse">
<stop stop-color="#3629B7"/>
<stop offset="1" stop-color="#9093E1"/>
</linearGradient>
</defs>
</svg>
