<svg viewBox="0 0 697 532" fill="none" xmlns="http://www.w3.org/2000/svg">
<path d="M425.642 340.881C425.642 465.766 345.68 495.343 233.964 495.343C122.248 495.343 89.7811 492.398 89.7811 367.512C89.7811 242.627 -55.0122 25.6611 56.7038 25.6611C168.42 25.6611 425.642 215.995 425.642 340.881Z" fill="#F2F2F2"/>
<path d="M567.76 463.661H129.24C111.771 463.661 97.5596 449.434 97.5596 431.947V100.107C97.5596 82.6195 111.771 68.3926 129.24 68.3926H567.76C585.228 68.3926 599.44 82.6195 599.44 100.107V431.947C599.44 449.434 585.228 463.661 567.76 463.661V463.661ZM129.24 70.7737C113.082 70.7737 99.9381 83.9322 99.9381 100.107V431.947C99.9381 448.121 113.082 461.28 129.24 461.28H567.76C583.917 461.28 597.061 448.121 597.061 431.947V100.107C597.061 83.9322 583.917 70.7737 567.76 70.7737H129.24V70.7737Z" fill="#3F3D56"/>
<path d="M291.15 450.46C295.346 450.353 298.734 449.714 298.716 449.033C298.699 448.352 295.283 447.887 291.087 447.995C286.891 448.102 283.503 448.741 283.521 449.422C283.538 450.103 286.954 450.568 291.15 450.46Z" fill="#E6E6E6"/>
<path d="M339.308 446.45C343.505 446.342 346.892 445.703 346.875 445.022C346.857 444.341 343.441 443.876 339.245 443.984C335.049 444.091 331.662 444.731 331.679 445.412C331.697 446.093 335.112 446.557 339.308 446.45Z" fill="#3F3D56"/>
<path d="M271.766 442.167C275.962 442.06 279.349 441.42 279.332 440.74C279.314 440.059 275.898 439.594 271.702 439.701C267.506 439.809 264.119 440.448 264.136 441.129C264.154 441.81 267.569 442.275 271.766 442.167Z" fill="#FF6584"/>
<path d="M255.704 438.511C255.711 437.899 254.205 437.385 252.34 437.364C250.475 437.343 248.958 437.823 248.951 438.435C248.944 439.047 250.45 439.561 252.315 439.582C254.18 439.603 255.697 439.124 255.704 438.511Z" fill="#E6E6E6"/>
<path d="M243.923 432.005C243.93 431.392 242.424 430.879 240.56 430.858C238.695 430.836 237.178 431.316 237.171 431.928C237.164 432.54 238.67 433.054 240.535 433.075C242.399 433.096 243.917 432.617 243.923 432.005Z" fill="#3F3D56"/>
<path d="M307.992 440.872C307.999 440.26 306.493 439.746 304.628 439.725C302.763 439.704 301.246 440.183 301.239 440.795C301.232 441.408 302.738 441.921 304.603 441.943C306.468 441.964 307.985 441.484 307.992 440.872Z" fill="#E6E6E6"/>
<path d="M286.159 444.99C286.166 444.378 284.66 443.864 282.795 443.843C280.93 443.822 279.413 444.301 279.406 444.914C279.399 445.526 280.905 446.04 282.77 446.061C284.635 446.082 286.152 445.602 286.159 444.99Z" fill="#FF6584"/>
<path d="M322.345 448.037C322.352 447.425 320.846 446.911 318.982 446.89C317.117 446.869 315.6 447.348 315.593 447.961C315.586 448.573 317.092 449.087 318.956 449.108C320.821 449.129 322.338 448.65 322.345 448.037Z" fill="#3F3D56"/>
<path d="M443.021 448.449C447.218 448.341 450.605 447.702 450.588 447.021C450.57 446.34 447.154 445.875 442.958 445.983C438.762 446.091 435.375 446.73 435.392 447.411C435.409 448.092 438.825 448.556 443.021 448.449Z" fill="#E6E6E6"/>
<path d="M491.18 444.438C495.376 444.33 498.763 443.691 498.746 443.01C498.728 442.329 495.312 441.865 491.116 441.972C486.92 442.08 483.533 442.719 483.55 443.4C483.568 444.081 486.983 444.546 491.18 444.438Z" fill="#3F3D56"/>
<path d="M423.637 440.156C427.833 440.048 431.22 439.409 431.203 438.728C431.185 438.047 427.77 437.582 423.573 437.69C419.377 437.797 415.99 438.437 416.007 439.117C416.025 439.798 419.44 440.263 423.637 440.156Z" fill="#FF6584"/>
<path d="M407.575 436.5C407.582 435.888 406.076 435.374 404.211 435.353C402.346 435.332 400.829 435.811 400.822 436.423C400.815 437.036 402.321 437.549 404.186 437.57C406.051 437.592 407.568 437.112 407.575 436.5Z" fill="#E6E6E6"/>
<path d="M395.795 429.993C395.801 429.38 394.295 428.867 392.431 428.846C390.566 428.825 389.049 429.304 389.042 429.916C389.035 430.529 390.541 431.042 392.406 431.063C394.27 431.084 395.788 430.605 395.795 429.993Z" fill="#3F3D56"/>
<path d="M459.863 438.86C459.87 438.248 458.364 437.734 456.499 437.713C454.634 437.692 453.117 438.171 453.11 438.784C453.103 439.396 454.609 439.91 456.474 439.931C458.339 439.952 459.856 439.473 459.863 438.86Z" fill="#E6E6E6"/>
<path d="M438.03 442.978C438.037 442.366 436.531 441.853 434.666 441.831C432.801 441.81 431.284 442.29 431.277 442.902C431.27 443.514 432.776 444.028 434.641 444.049C436.506 444.07 438.023 443.591 438.03 442.978Z" fill="#FF6584"/>
<path d="M474.216 446.026C474.223 445.413 472.717 444.9 470.853 444.879C468.988 444.857 467.471 445.337 467.464 445.949C467.457 446.561 468.963 447.075 470.828 447.096C472.692 447.117 474.21 446.638 474.216 446.026Z" fill="#3F3D56"/>
<path d="M74.5512 394.468C71.9807 394.629 70.5601 391.435 72.5048 389.574L72.6983 388.805C72.6728 388.743 72.6472 388.682 72.6214 388.62C70.0219 382.421 61.2118 382.464 58.6344 388.672C56.3468 394.182 53.4342 399.701 52.7171 405.526C52.3956 408.098 52.5402 410.718 53.1108 413.241C47.7506 401.532 44.9298 388.746 44.9298 375.888C44.9298 372.658 45.1066 369.427 45.4682 366.204C45.7656 363.568 46.1754 360.949 46.7059 358.353C49.5748 344.321 55.787 330.957 64.7475 319.794C69.055 317.439 72.6473 313.759 74.8171 309.347C75.5966 307.756 76.2074 306.044 76.4967 304.3C76.0065 304.364 74.6483 296.898 75.018 296.44C74.3349 295.404 73.1122 294.888 72.366 293.877C68.6553 288.846 63.5429 289.724 60.8739 296.561C55.1725 299.438 55.1174 304.211 58.6157 308.8C60.8414 311.72 61.1472 315.671 63.1001 318.798C62.8991 319.055 62.6902 319.304 62.4893 319.561C58.805 324.287 55.6185 329.366 52.9322 334.702C53.6914 328.771 52.5705 321.627 50.6597 317.022C48.4845 311.774 44.4075 307.355 40.8172 302.819C36.5046 297.37 27.6613 299.748 26.9016 306.655C26.8942 306.722 26.8871 306.789 26.88 306.856C27.4133 307.156 27.9358 307.476 28.4461 307.814C31.357 309.739 30.351 314.251 26.9019 314.783L26.8238 314.795C27.0167 316.716 27.3462 318.621 27.8283 320.493C23.2224 338.306 33.1663 344.793 47.3648 345.085C47.6782 345.245 47.9836 345.406 48.2971 345.559C46.8585 349.609 45.7093 353.764 44.8575 357.975C44.094 361.696 43.5636 365.457 43.2663 369.234C42.8965 374 42.9287 378.789 43.3306 383.547L43.3064 383.378C42.2859 378.138 39.4409 373.244 35.3102 369.853C29.1567 364.798 20.4629 362.937 13.8243 358.873C10.6287 356.917 6.53372 359.445 7.09144 363.15C7.10035 363.209 7.10938 363.268 7.11859 363.327C8.10706 363.729 9.07139 364.195 10.0036 364.718C10.5369 365.018 11.0593 365.338 11.5697 365.676C14.4806 367.601 13.4745 372.113 10.0255 372.646L9.94733 372.658C9.89109 372.666 9.84284 372.674 9.78668 372.682C11.4823 376.708 13.845 380.445 16.8024 383.667C19.6824 399.217 32.0519 400.692 45.2834 396.164H45.2914C46.738 402.465 48.8516 408.62 51.5679 414.487H73.9893C74.0698 414.238 74.1421 413.981 74.2144 413.732C72.141 413.86 70.0516 413.74 68.0103 413.362C69.6738 411.321 71.3373 409.263 73.0009 407.222C73.0411 407.182 73.0733 407.142 73.1054 407.102C73.9492 406.057 74.801 405.02 75.6448 403.975L75.6453 403.974C75.6981 400.767 75.3137 397.571 74.5519 394.468L74.5512 394.468V394.468Z" fill="#6071E0"/>
<path d="M42.1133 412.976C42.1133 413.64 42.6464 414.173 43.3102 414.173H682.267C682.931 414.173 683.464 413.64 683.464 412.976C683.464 412.312 682.931 411.779 682.267 411.779H43.3102C42.6464 411.779 42.1133 412.312 42.1133 412.976V412.976Z" fill="#3F3D56"/>
<path d="M90.4738 87.5021H63.3179C60.5452 87.5021 58.2891 85.2459 58.2891 82.4732C58.2891 79.7004 60.5452 77.4443 63.3179 77.4443H90.4738C93.2465 77.4443 95.5026 79.7004 95.5026 82.4732C95.5026 85.2459 93.2465 87.5021 90.4738 87.5021Z" fill="#E6E6E6"/>
<path d="M512.441 86.4963C514.941 86.4963 516.967 84.4699 516.967 81.9703C516.967 79.4707 514.941 77.4443 512.441 77.4443C509.941 77.4443 507.915 79.4707 507.915 81.9703C507.915 84.4699 509.941 86.4963 512.441 86.4963Z" fill="#E6E6E6"/>
<path d="M526.522 86.4963C529.022 86.4963 531.048 84.4699 531.048 81.9703C531.048 79.4707 529.022 77.4443 526.522 77.4443C524.022 77.4443 521.996 79.4707 521.996 81.9703C521.996 84.4699 524.022 86.4963 526.522 86.4963Z" fill="#E6E6E6"/>
<path d="M540.602 86.4963C543.102 86.4963 545.128 84.4699 545.128 81.9703C545.128 79.4707 543.102 77.4443 540.602 77.4443C538.103 77.4443 536.076 79.4707 536.076 81.9703C536.076 84.4699 538.103 86.4963 540.602 86.4963Z" fill="#E6E6E6"/>
<path d="M697 285.136V508.227C697 520.809 686.761 531.048 674.179 531.048H503.057L504.646 529.036L694.988 287.691L697 285.136V285.136Z" fill="#F2F2F2"/>
<path d="M674.179 0H22.821C10.2387 0 0 10.2388 0 22.821V508.227C0 520.809 10.2387 531.048 22.821 531.048H674.179C686.761 531.048 697 520.809 697 508.227V22.821C697 10.2388 686.761 0 674.179 0ZM694.988 508.227C694.988 519.719 685.672 529.036 674.179 529.036H22.821C11.3282 529.036 2.01154 519.719 2.01154 508.227V158.586C2.01154 72.1122 72.1122 2.01154 158.586 2.01154H674.179C685.672 2.01154 694.988 11.3282 694.988 22.821V508.227Z" fill="#E6E6E6"/>
<path d="M161.881 183.182H53.8921C50.5434 183.182 47.8213 185.904 47.8213 189.252C47.8213 192.601 50.5434 195.323 53.8921 195.323H161.881C165.229 195.323 167.952 192.601 167.952 189.252C167.952 185.904 165.229 183.182 161.881 183.182V183.182Z" fill="#E6E6E6"/>
<path d="M114.816 149.142H53.8921C50.5434 149.142 47.8213 151.864 47.8213 155.213C47.8213 158.561 50.5434 161.284 53.8921 161.284H114.816C118.165 161.284 120.887 158.561 120.887 155.213C120.887 151.864 118.165 149.142 114.816 149.142V149.142Z" fill="#E6E6E6"/>
<path d="M161.881 365.226H53.8921C50.5434 365.226 47.8213 367.948 47.8213 371.297C47.8213 374.646 50.5434 377.368 53.8921 377.368H161.881C165.229 377.368 167.952 374.646 167.952 371.297C167.952 367.948 165.229 365.226 161.881 365.226V365.226Z" fill="#E6E6E6"/>
<path d="M114.816 331.187H53.8921C50.5434 331.187 47.8213 333.909 47.8213 337.257C47.8213 340.606 50.5434 343.328 53.8921 343.328H114.816C118.165 343.328 120.887 340.606 120.887 337.257C120.887 333.909 118.165 331.187 114.816 331.187V331.187Z" fill="#E6E6E6"/>
<path d="M628.069 512.15C630.147 512.28 631.295 509.698 629.723 508.194L629.567 507.572C629.587 507.522 629.608 507.473 629.629 507.423C631.73 502.412 638.852 502.447 640.935 507.465C642.784 511.919 645.139 516.38 645.718 521.089C645.978 523.168 645.861 525.285 645.4 527.325C649.733 517.86 652.013 507.525 652.013 497.131C652.013 494.52 651.87 491.908 651.578 489.303C651.337 487.173 651.006 485.055 650.577 482.957C648.258 471.614 643.237 460.811 635.993 451.788C632.512 449.885 629.608 446.909 627.854 443.343C627.224 442.057 626.73 440.673 626.496 439.264C626.892 439.315 627.99 433.281 627.691 432.91C628.244 432.072 629.232 431.656 629.835 430.838C632.835 426.771 636.967 427.481 639.125 433.008C643.733 435.334 643.778 439.191 640.95 442.901C639.151 445.262 638.904 448.456 637.325 450.982C637.488 451.19 637.657 451.392 637.819 451.6C640.797 455.42 643.373 459.525 645.544 463.839C644.931 459.045 645.837 453.27 647.381 449.547C649.14 445.305 652.435 441.733 655.337 438.066C658.823 433.662 665.972 435.584 666.586 441.167C666.592 441.221 666.598 441.275 666.603 441.329C666.172 441.572 665.75 441.831 665.337 442.104C662.984 443.66 663.798 447.307 666.586 447.738L666.649 447.747C666.493 449.3 666.227 450.84 665.837 452.353C669.56 466.752 661.522 471.996 650.045 472.231C649.791 472.361 649.544 472.491 649.291 472.615C650.454 475.889 651.383 479.247 652.071 482.651C652.689 485.659 653.117 488.699 653.358 491.752C653.657 495.604 653.631 499.476 653.306 503.322L653.325 503.186C654.15 498.95 656.45 494.994 659.789 492.253C664.763 488.166 671.791 486.662 677.157 483.377C679.74 481.796 683.05 483.839 682.599 486.834L682.577 486.978C681.778 487.302 680.999 487.679 680.245 488.101C679.814 488.345 679.392 488.603 678.979 488.876C676.626 490.432 677.44 494.08 680.228 494.51L680.291 494.52C680.336 494.526 680.375 494.533 680.421 494.539C679.05 497.794 677.14 500.814 674.75 503.419C672.422 515.989 662.423 517.181 651.727 513.521H651.721C650.551 518.614 648.843 523.59 646.647 528.332H628.523C628.458 528.131 628.4 527.923 628.341 527.721C630.017 527.825 631.706 527.728 633.356 527.423C632.011 525.773 630.667 524.11 629.322 522.46C629.289 522.427 629.263 522.395 629.238 522.362C628.555 521.518 627.867 520.68 627.185 519.835L627.184 519.834C627.142 517.242 627.452 514.658 628.068 512.15L628.069 512.15V512.15Z" fill="white"/>
</svg>
